SplineFontDB: 3.0
FontName: CMUSansSerif-DemiCondensed
FullName: CMU Sans Serif Demi Condensed
FamilyName: CMU Sans Serif Demi Condensed
Weight: Demi
Copyright: Converted by Andrey V. Panov from TeX fonts. Some glyphs are copied from Blue Sky fonts released by AMS.
UComments: "2009-6-18: Created." 
Version: 0.7.0
ItalicAngle: 0
UnderlinePosition: -100
UnderlineWidth: 50
Ascent: 800
Descent: 200
LayerCount: 2
Layer: 0 0 "+BBcEMAQ0BD0EOAQ5 +BD8EOwQwBD0A"  1
Layer: 1 0 "+BB8ENQRABDUENAQ9BDgEOQAA +BD8EOwQwBD0A"  0
NeedsXUIDChange: 1
XUID: [1067 1281882]
FSType: 0
OS2Version: 0
OS2_WeightWidthSlopeOnly: 0
OS2_UseTypoMetrics: 1
CreationTime: 1245314410
ModificationTime: 1245314906
PfmFamily: 33
TTFWeight: 600
TTFWidth: 3
LineGap: 200
VLineGap: 90
OS2TypoAscent: 0
OS2TypoAOffset: 1
OS2TypoDescent: 0
OS2TypoDOffset: 1
OS2TypoLinegap: 200
OS2WinAscent: 913
OS2WinAOffset: 0
OS2WinDescent: 310
OS2WinDOffset: 0
HheadAscent: 913
HheadAOffset: 0
HheadDescent: -310
HheadDOffset: 0
Lookup: 1 0 0 "Case substitutions"  {"Case substitutions subtable"  } ['case' ('cyrl' <'dflt' > 'grek' <'dflt' > 'latn' <'dflt' > ) ]
Lookup: 3 0 0 "Greek alternatives"  {"Greek alternatives subtable"  } ['salt' ('grek' <'dflt' > ) ]
Lookup: 1 0 0 "Greek substitutions"  {"Greek substitutions subtable"  } ['locl' ('grek' <'dflt' > ) ]
Lookup: 4 0 1 "Latin Dutch ligatures"  {"Latin Dutch ligatures subtable"  } ['liga' ('latn' <'NLD ' > ) ]
Lookup: 4 0 1 "Latin ligatures excepting Turkic"  {"Latin ligatures excepting Turkic subtable"  } ['liga' ('latn' <'dflt' 'NLD ' 'VIT ' > ) ]
Lookup: 4 0 1 "Latin ligatures"  {"Latin ligatures subtable"  } ['liga' ('latn' <'dflt' 'NLD ' 'VIT ' 'TRK ' 'AZE ' > ) ]
Lookup: 4 0 1 "Cyrillic ligatures"  {"Cyrillic ligatures subtable"  } ['liga' ('cyrl' <'dflt' 'MKD ' 'SRB ' > ) ]
Lookup: 3 0 0 "Latin alternatives"  {"Latin alternatives subtable"  } ['salt' ('latn' <'dflt' > ) ]

StartChar: .notdef
Encoding: 0 0 0
Width: 760
Flags: HW
HStem: 10 60<105 655> 705 60<105 655>
VStem: 10 60<112 663> 690 60<112 663>
DStem2: 105 705 70 663 0.702289 -0.711892<5.31938 389.612 448.699 832.991> 70 112 105 70 0.702289 0.711892<0 384.292 443.379 827.672>
LayerCount: 2
Fore
SplineSet
10 10 m 1
 10 765 l 1
 750 765 l 1
 750 10 l 1
 10 10 l 1
70 112 m 1
 346 388 l 1
 70 663 l 1
 70 112 l 1
105 70 m 1
 655 70 l 1
 380 346 l 1
 105 70 l 1
105 705 m 1
 380 429 l 1
 655 705 l 1
 105 705 l 1
414 388 m 1
 690 112 l 1
 690 663 l 1
 414 388 l 1
EndSplineSet
EndChar

StartChar: uni262D
Encoding: 9773 9773 1
Width: 700
Flags: HW
TeX: 117 0
HStem: -1 21G<56 93 593.5 601> 39 76<321.786 462.78> 102 51<140.549 177.987> 466 20G<232 347>
VStem: 129 54<101.776 137.734> 556 82<197.341 366.709>
DStem2: 123 357 178 301 0.707107 0.707107<0 86.9741 130.108 182.434>
LayerCount: 2
Fore
SplineSet
40 18 m 0
 40 64 129 102 129 128 c 0
 129 148 134 153 148 153 c 0xbc
 162 153 164 157 182 180 c 1
 229 156 307 115 390 115 c 0
 438 115 463 128 463 129 c 0
 463 135 406 186 240 363 c 1
 178 301 l 1
 123 357 l 1
 252 486 l 1
 347 470 l 1
 271 393 l 1
 484 190 l 1
 513 165 l 1
 519 165 556 218 556 295 c 0
 556 473 346 588 346 593 c 1
 394 593 638 478 638 267 c 0
 638 167 592 118 580 100 c 1
 636 44 637 42 637 38 c 0xdc
 637 17 605 -1 597 -1 c 2
 596 -1 l 2
 591 -1 590 1 529 62 c 1
 500 51 474 39 428 39 c 0xdc
 297 39 201 138 188 138 c 0
 183 138 182 134 182 130 c 0
 182 126 183 123 183 118 c 0
 183 108 178 102 168 102 c 0
 131 102 122 0 64 -0 c 0
 48 0 40 7 40 18 c 0
EndSplineSet
EndChar

StartChar: circumflex.cap
Encoding: 65536 -1 2
Width: 475
Flags: HW
HStem: 735 178
VStem: 88 298<736 752>
AnchorPoint: "above" 237 713 mark 0
LayerCount: 2
Fore
SplineSet
88 746 m 0
 88 753 94 759 96 764 c 1
 191 898 186 913 214 913 c 0
 216 913 220 912 222 912 c 2
 300 912 l 2
 322 912 322 907 336 872 c 0
 382 762 386 752 386 747 c 0
 386 736 378 735 366 735 c 2
 348 735 l 2
 322 735 330 738 238 836 c 1
 146 735 152 735 128 735 c 2
 112 735 l 2
 102 735 88 735 88 746 c 0
EndSplineSet
EndChar

StartChar: dieresis.cap
Encoding: 65537 -1 3
Width: 475
Flags: HW
HStem: 738 123<87.0009 203.949 271.173 388.023>
VStem: 84 123<740.959 857.994> 268 123<741.061 857.48>
AnchorPoint: "above" 238 713 mark 0
LayerCount: 2
Fore
SplineSet
84 782 m 2
 84 817 l 2
 84 852 98 861 128 861 c 2
 162 861 l 2
 184 861 207 858 207 819 c 2
 207 785 l 2
 207 760 206 738 164 738 c 2
 130 738 l 2
 106 738 84 740 84 782 c 2
268 780 m 2
 268 814 l 2
 268 834 268 861 312 861 c 2
 346 861 l 2
 372 861 391 857 391 817 c 2
 391 782 l 2
 391 753 382 738 348 738 c 2
 314 738 l 2
 292 738 268 740 268 780 c 2
EndSplineSet
EndChar

StartChar: dotaccent.cap
Encoding: 65538 -1 4
Width: 475
Flags: HW
HStem: 764 123<179.233 295.875>
VStem: 176 123<767.061 884.202>
AnchorPoint: "above" 238 713 mark 0
LayerCount: 2
Fore
SplineSet
176 806 m 2
 176 844 l 2
 176 878 190 887 220 887 c 2
 253 887 l 2
 277 887 299 884 299 844 c 2
 299 807 l 2
 299 779 290 764 256 764 c 2
 217 764 l 2
 201 764 176 766 176 806 c 2
EndSplineSet
EndChar

StartChar: caron.cap
Encoding: 65539 -1 5
Width: 475
Flags: HW
HStem: 735 168
VStem: 82 310
AnchorPoint: "above" 237 713 mark 0
LayerCount: 2
Fore
SplineSet
82 891 m 0
 82 902 96 903 106 903 c 2
 122 903 l 2
 150 903 150 888 238 809 c 1
 334 901 332 903 352 903 c 2
 366 903 l 2
 378 903 392 902 392 891 c 0
 392 885 394 888 296 751 c 1
 284 736 280 735 266 735 c 2
 208 735 l 2
 190 735 190 737 170 765 c 0
 84 884 82 885 82 891 c 0
EndSplineSet
EndChar

StartChar: ring.cap
Encoding: 65540 -1 6
Width: 475
Flags: HW
HStem: 670 65<191.412 285.104> 838 65<189.982 284.674>
VStem: 132 53<740.681 832.241> 290 53<740.782 832.343>
AnchorPoint: "above" 238 713 mark 0
LayerCount: 2
Fore
SplineSet
132 786 m 0
 132 879 190 903 238 903 c 0
 283 903 343 879 343 787 c 0
 343 694 285 670 237 670 c 0
 191 670 132 693 132 786 c 0
185 787 m 0
 185 750 200 735 236 735 c 0
 274 735 290 745 290 787 c 0
 290 820 279 838 238 838 c 0
 202 838 185 828 185 787 c 0
EndSplineSet
EndChar

StartChar: breve.cap
Encoding: 65541 -1 7
Width: 475
Flags: HW
HStem: 735 80<158.856 315.147>
VStem: 74 65<836.847 900.027> 333 68<834.15 898.52>
AnchorPoint: "above" 238 713 mark 0
LayerCount: 2
Fore
SplineSet
74 867 m 0
 74 895 96 902 106 902 c 0
 137 902 138 867 139 864 c 0
 146 832 190 815 237 815 c 0
 289 815 323 835 333 855 c 0
 338 865 336 902 370 902 c 0
 382 902 401 893 401 866 c 0
 401 805 340 735 237 735 c 0
 148 735 74 793 74 867 c 0
EndSplineSet
EndChar

StartChar: grave
Encoding: 96 96 8
Width: 475
Flags: HW
TeX: 680 0
HStem: 542 150
VStem: 94 200
LayerCount: 2
Fore
SplineSet
94 681 m 0
 94 690 104 692 112 692 c 2
 180 692 l 2
 198 692 201 687 218 664 c 0
 281 577 294 562 294 553 c 0
 294 546 289 542 274 542 c 2
 256 542 l 2
 242 542 237 543 220 558 c 0
 96 672 94 671 94 681 c 0
EndSplineSet
EndChar

StartChar: acute
Encoding: 180 180 9
Width: 475
Flags: HW
TeX: 680 0
HStem: 542 150
VStem: 180 200
LayerCount: 2
Fore
SplineSet
180 554 m 0
 180 562 192 577 253 661 c 0
 274 690 275 692 292 692 c 0
 315 692 338 692 361 692 c 0
 369 692 380 690 380 680 c 0
 380 670 379 673 251 555 c 0
 236 542 232 542 219 542 c 2
 203 542 l 2
 192 542 180 544 180 554 c 0
EndSplineSet
EndChar

StartChar: circumflex
Encoding: 710 710 10
Width: 475
Flags: HW
TeX: 680 0
HStem: 624 66<213.017 259.737>
VStem: 89 297<542 561>
LayerCount: 2
Fore
SplineSet
89 553 m 0
 89 562 89 560 184 675 c 0
 196 689 202 690 214 690 c 2
 261 690 l 2
 281 690 283 685 301 663 c 0
 375 574 386 561 386 553 c 0
 386 542 375 542 364 542 c 2
 345 542 l 2
 332 542 322 545 238 624 c 1
 237 624 l 1
 221 609 213 603 157 553 c 0
 145 543 141 542 117 542 c 2
 115 542 l 2
 104 542 89 542 89 553 c 0
EndSplineSet
EndChar

StartChar: tilde
Encoding: 732 732 11
Width: 475
Flags: HW
TeX: 680 0
HStem: 529 66<253.879 325.367> 580 66<148.425 221.121>
VStem: 80 60<529.091 575.969> 334 61<599.763 645.742>
LayerCount: 2
Fore
SplineSet
80 547 m 0
 80 579 107 646 175 646 c 0x70
 238 646 266 595 299 595 c 0xb0
 328 595 329 632 334 639 c 0
 339 646 348 646 360 646 c 0x70
 386 646 395 645 395 627 c 0
 395 589 362 529 300 529 c 0xb0
 237 529 209 580 176 580 c 0x70
 147 580 145 543 140 536 c 0
 135 529 126 529 114 529 c 2
 113 529 l 2xb0
 88 529 80 529 80 547 c 0
EndSplineSet
EndChar

StartChar: dieresis
Encoding: 168 168 12
Width: 475
Flags: HW
TeX: 694 0
HStem: 572 122<86.0009 203.05 270.585 387.827>
VStem: 83 123<574.867 691.176> 268 123<574.165 691.308>
LayerCount: 2
Fore
SplineSet
83 615 m 2
 83 650 l 2
 83 685 97 694 127 694 c 0
 138 694 149 694 160 694 c 0
 180 694 206 693 206 652 c 0
 206 641 206 630 206 619 c 0
 206 601 207 571 163 571 c 0
 159 571 155 572 151 572 c 2
 129 572 l 2
 109 572 83 572 83 615 c 2
268 613 m 0
 268 626 268 639 268 652 c 0
 268 687 284 694 312 694 c 2
 345 694 l 2
 367 694 391 693 391 651 c 0
 391 639 391 627 391 615 c 0
 391 586 382 571 348 571 c 0
 344 571 339 572 335 572 c 2
 314 572 l 2
 294 572 268 571 268 613 c 0
EndSplineSet
EndChar

StartChar: ring
Encoding: 730 730 14
Width: 636
Flags: HW
TeX: 680 0
HStem: 507 35<273.79 361.854> 645 35<274.122 360.71>
VStem: 212 53<547.685 638.711> 370 52<548.289 639.315>
LayerCount: 2
Fore
SplineSet
212 594 m 0
 212 629 229 680 318 680 c 0
 404 680 422 628 422 593 c 0
 422 558 405 507 316 507 c 0
 230 507 212 559 212 594 c 0
265 594 m 0
 265 563 275 542 316 542 c 0
 359 542 370 561 370 593 c 0
 370 624 360 645 319 645 c 0
 276 645 265 626 265 594 c 0
EndSplineSet
EndChar

StartChar: caron
Encoding: 711 711 15
Width: 475
Flags: HW
TeX: 680 0
HStem: 604 42<178.085 295.878>
VStem: 88 299<661 673>
LayerCount: 2
Fore
SplineSet
88 669 m 0
 88 673 92 680 106 680 c 2
 128 680 l 2
 160 680 219 646 237 646 c 0
 256 646 316 681 349 681 c 0
 354 681 358 680 363 680 c 2
 367 680 l 2
 378 680 387 678 387 669 c 0
 387 658 377 656 300 616 c 0
 278 605 276 604 260 604 c 2
 230 604 l 2
 226 604 222 603 218 603 c 2
 214 603 l 2
 195 603 197 604 104 653 c 0
 99 656 88 661 88 669 c 0
EndSplineSet
EndChar

StartChar: breve
Encoding: 728 728 16
Width: 475
Flags: HW
TeX: 680 0
HStem: 556 124<117.516 134.705 339.217 385> 556 80<137.795 336.206>
VStem: 73 328<594.423 667>
LayerCount: 2
Fore
SplineSet
73 645 m 0
 73 667 89 680 106 680 c 0xa0
 112 680 134 676 137 648 c 1
 154 640 168 636 237 636 c 0x60
 307 636 320 640 337 648 c 1
 339 665 349 680 368 680 c 0xa0
 385 680 401 667 401 645 c 0
 401 628 394 576 307 561 c 0
 283 557 259 556 235 556 c 2x60
 222 556 l 2x60
 164 556 73 573 73 645 c 0
EndSplineSet
EndChar

StartChar: macron
Encoding: 175 175 17
Width: 475
Flags: HW
TeX: 694 0
HStem: 640 74<65.078 407.905>
LayerCount: 2
Fore
SplineSet
65 666 m 2
 65 688 l 2
 65 707 67 714 87 714 c 2
 385 714 l 2
 403 714 408 710 408 690 c 2
 408 668 l 2
 408 650 407 640 385 640 c 2
 87 640 l 2
 69 640 65 644 65 666 c 2
EndSplineSet
EndChar

StartChar: dotaccent
Encoding: 729 729 18
Width: 264
Flags: HW
TeX: 694 0
HStem: 572 123<86.2225 202.827>
VStem: 83 123<575.061 692.202>
LayerCount: 2
Fore
SplineSet
83 614 m 2
 83 652 l 2
 83 686 98 695 127 695 c 0
 138 695 149 695 160 695 c 0
 182 695 206 693 206 652 c 2
 206 615 l 2
 206 587 197 572 163 572 c 2
 123 572 l 2
 108 572 83 574 83 614 c 2
EndSplineSet
EndChar

StartChar: cedilla
Encoding: 184 184 19
Width: 422
Flags: HW
TeX: 0 145
HStem: -165 145<171.002 193.51>
VStem: 102 101<-161.311 -115.612>
LayerCount: 2
Fore
SplineSet
102 -153 m 0
 102 -145 110 -136 171 -39 c 0
 179 -26 182 -20 200 -20 c 0
 206 -20 212 -20 218 -20 c 0
 230 -20 240 -23 240 -34 c 0
 240 -42 234 -52 203 -122 c 0
 188 -155 188 -165 165 -165 c 0
 152 -165 139 -165 126 -165 c 0
 115 -165 102 -164 102 -153 c 0
EndSplineSet
EndChar

StartChar: ogonek
Encoding: 731 731 20
Width: 264
Flags: HW
TeX: 0 166
HStem: -167 84<48 144.025>
VStem: -32 248<-103.157 -46>
LayerCount: 2
Fore
SplineSet
-32 -77 m 0
 -32 16 91 22 129 49 c 0
 140 56 146 63 158 63 c 0
 176 63 190 49 190 32 c 0
 190 -11 84 -39 84 -71 c 0
 84 -80 96 -83 104 -83 c 0
 146 -83 153 -30 185 -30 c 0
 202 -30 216 -46 216 -62 c 0
 216 -83 163 -167 76 -167 c 0
 20 -167 -32 -131 -32 -77 c 0
EndSplineSet
EndChar

StartChar: guilsinglleft
Encoding: 8249 8249 22
Width: 422
Flags: HW
TeX: 527 0
HStem: -0 21G<264.5 299.5>
VStem: 107 113<220.336 308.109>
LayerCount: 2
Fore
SplineSet
107 264 m 0
 107 271 111 278 114 284 c 2
 245 508 l 2
 253 522 257 528 274 528 c 2
 294 528 l 2
 305 528 314 526 314 515 c 0
 314 499 220 280 220 264 c 0
 220 248 314 29 314 13 c 0
 314 3 305 0 294 -0 c 2
 274 -0 l 2
 255 0 254 5 245 20 c 2
 114 245 l 2
 112 248 107 257 107 264 c 0
EndSplineSet
EndChar

StartChar: guilsinglright
Encoding: 8250 8250 23
Width: 422
Flags: HW
TeX: 527 0
HStem: -0 21G<122.5 155>
VStem: 202 112<220.297 306.406>
LayerCount: 2
Fore
SplineSet
107 13 m 0
 107 27 202 249 202 264 c 0
 202 280 107 499 107 515 c 0
 107 525 116 528 127 528 c 2
 147 528 l 2
 164 528 167 522 175 509 c 2
 306 284 l 2
 307 282 314 272 314 264 c 0
 314 257 310 251 307 245 c 2
 175 18 l 2
 167 5 164 0 146 -0 c 0
 140 0 134 0 128 -0 c 0
 117 0 107 2 107 13 c 0
EndSplineSet
EndChar

StartChar: endash
Encoding: 8211 8211 29
Width: 475
Flags: HW
TeX: 472 0
ItalicCorrection: 26
HStem: 260 64<37.5 430 44 430>
VStem: 0 474<276 308>
LayerCount: 2
Fore
SplineSet
0 292 m 0
 0 324 31 324 44 324 c 2
 430 324 l 2
 443 324 474 324 474 292 c 0
 474 260 443 260 430 260 c 2
 44 260 l 2
 31 260 0 260 0 292 c 0
EndSplineSet
EndChar

StartChar: emdash
Encoding: 8212 8212 30
Width: 949
Flags: HW
TeX: 472 0
ItalicCorrection: 26
HStem: 260 64<37.5 905 44 905>
VStem: 0 949<276 308>
LayerCount: 2
Fore
SplineSet
0 292 m 0
 0 324 31 324 44 324 c 2
 905 324 l 2
 918 324 949 324 949 292 c 0
 949 260 918 260 905 260 c 2
 44 260 l 2
 31 260 0 260 0 292 c 0
EndSplineSet
Substitution2: "Cyrillic substitutions subtable" emdash.cyr
AlternateSubs2: "Cyrillic alternatives subtable" emdash.cyr
EndChar

StartChar: dotlessi
Encoding: 305 305 32
Width: 219
Flags: HW
TeX: 472 0
HStem: 0 21<82 100 100 119> 452 20<100 119 119 138>
VStem: 55 108<45 427 427 428>
AnchorPoint: "below" 109 0 basechar 0
AnchorPoint: "above" 109 487 basechar 0
LayerCount: 2
Fore
SplineSet
55 45 m 2
 55 427 l 2
 55 463 65 472 100 472 c 2
 119 472 l 2
 157 472 163 459 163 428 c 2
 163 44 l 2
 163 10 154 0 119 0 c 2
 100 0 l 2
 64 0 55 10 55 45 c 2
EndSplineSet
EndChar

StartChar: dotlessj
Encoding: 567 567 33
Width: 245
Flags: HW
TeX: 472 166
HStem: -177 73<37 54.5 14.5 100.5> 452 20<126 146 146 165>
VStem: 82 108<-42 -25 -25 428>
AnchorPoint: "below" 93 -167 basechar 0
AnchorPoint: "above" 136 487 basechar 0
LayerCount: 2
Fore
SplineSet
-62 -136 m 0
 -62 -133 -55 -113 -54 -107 c 0
 -48 -88 -46 -84 -38 -84 c 0
 -35 -84 -33 -86 -25 -90 c 0
 -18 -94 2 -104 27 -104 c 0
 82 -104 82 -65 82 -42 c 2
 82 428 l 2
 82 462 91 472 126 472 c 2
 146 472 l 2
 184 472 190 459 190 428 c 2
 190 -25 l 2
 190 -127 139 -177 62 -177 c 0
 12 -177 -62 -154 -62 -136 c 0
EndSplineSet
EndChar

StartChar: ff
Encoding: 64256 64256 34
Width: 554
Flags: HW
TeX: 694 0
ItalicCorrection: 65
HStem: -0 21G<99 165 365.5 427.5> 408 64<27.5721 77 185 268.41 449 532.41> 639 65<193.504 309.766 457.266 586.556>
VStem: 77 108<3.0296 408 472 629.464> 341 108<2.85764 408 472 630.643>
LayerCount: 2
Fore
SplineSet
341 42 m 2
 341 544 l 2
 341 672 426 704 508 704 c 0
 593 704 593 686 593 672 c 2
 593 634 l 2
 593 621 588 617 582 617 c 0
 565 617 553 639 508 639 c 0
 449 639 447 599 447 575 c 2
 447 472 l 1
 491 472 l 2
 505 472 534 471 534 440 c 0
 534 410 505 408 494 408 c 0
 479 408 464 408 449 408 c 1
 449 48 l 2
 449 21 448 0 407 -0 c 2
 384 -0 l 2
 347 0 341 18 341 42 c 2
EndSplineSet
Refer: 109 102 S 1 0 0 1 0 0 2
Ligature2: "Latin ligatures subtable" f f
EndChar

StartChar: fi
Encoding: 64257 64257 35
Width: 506
Flags: HW
TeX: 694 0
HStem: -0 21G<99 165 364 428> 408 64<27.5721 77 185 276.456> 583 112<340.924 446.78> 639 65<189.023 257.853>
VStem: 77 108<3.0296 408 472 635.938> 340 109<3.1222 469.707 585.255 692.157>
LayerCount: 2
Fore
SplineSet
26 440 m 0
 26 450 31 473 68 473 c 0
 71 473 74 472 77 472 c 1
 77 521 l 2
 77 528 76 536 76 543 c 0
 76 685 163 704 213 704 c 0
 282 704 279 681 279 671 c 2
 279 632 l 2
 279 625 278 613 268 613 c 0
 254 613 247 639 216 639 c 0xdc
 182 639 183 595 183 574 c 2
 183 472 l 1
 234 472 l 2
 247 472 278 471 278 440 c 0
 278 409 250 408 236 408 c 0
 219 408 202 408 185 408 c 1
 185 45 l 2
 185 29 186 0 144 -0 c 0
 136 0 128 0 120 -0 c 0
 78 0 77 23 77 43 c 2
 77 408 l 1
 66 408 l 2
 30 408 26 431 26 440 c 0
338 627 m 2
 338 650 l 2
 338 670 339 695 382 695 c 2
 408 695 l 2
 442 695 450 678 450 650 c 2
 450 628 l 2
 450 586 430 583 407 583 c 2xec
 381 583 l 2
 346 583 338 599 338 627 c 2
340 42 m 2
 340 430 l 2
 340 471 361 472 386 472 c 2
 393 472 l 2
 397 472 402 473 406 473 c 0
 440 473 449 457 449 430 c 2
 449 43 l 2
 449 28 449 0 407 -0 c 0xcc
 399 0 391 0 383 -0 c 0
 345 0 340 19 340 42 c 2
EndSplineSet
Ligature2: "Latin ligatures excepting Turkic subtable" f i
EndChar

StartChar: fl
Encoding: 64258 64258 36
Width: 506
Flags: HW
TeX: 694 0
HStem: -0 21G<99 165 361 418> 408 64<27.5721 77 185 276.456> 639 65<188.953 263.525> 674 20G<372 428>
VStem: 77 108<3.0296 408 472 635.938> 340 109<3.02357 690.985>
LayerCount: 2
Fore
SplineSet
26 440 m 0
 26 450 31 473 68 473 c 0
 71 473 74 472 77 472 c 1
 77 521 l 2
 77 528 76 536 76 543 c 0
 76 685 163 704 213 704 c 0
 270 704 279 692 279 672 c 2
 279 635 l 2
 279 621 274 616 269 616 c 0
 256 616 244 639 218 639 c 0xec
 182 639 183 597 183 573 c 2
 183 472 l 1
 234 472 l 2
 247 472 278 471 278 440 c 0
 278 409 250 408 236 408 c 0
 219 408 202 408 185 408 c 1
 185 45 l 2
 185 29 186 0 144 -0 c 0
 136 0 128 0 120 -0 c 0
 78 0 77 23 77 43 c 2
 77 408 l 1
 66 408 l 2
 30 408 26 431 26 440 c 0
340 43 m 2
 340 654 l 1
 341 692 361 694 383 694 c 0
 391 694 399 694 407 694 c 0
 449 694 449 667 449 652 c 2
 449 38 l 1
 448 5 429 0 407 -0 c 2xdc
 382 -0 l 2
 340 0 340 27 340 43 c 2
EndSplineSet
Ligature2: "Latin ligatures subtable" f l
EndChar

StartChar: ffi
Encoding: 64259 64259 37
Width: 769
Flags: HW
TeX: 694 0
HStem: -0 21G<99 164.5 362 424 628.5 691.5> 408 64<27.5944 77 185 276.402 449 540.402> 583 112<604.924 710.78> 639 65<191.34 285.372 453.573 532.271>
VStem: 77 108<3.0296 408 472 633.596> 341 108<3.13897 408 472 636.174> 604 109<2.82629 469.802 585.255 692.402>
LayerCount: 2
Fore
SplineSet
26 440 m 0
 26 450 30 473 67 473 c 0
 70 473 74 472 77 472 c 1
 77 542 l 2
 77 672 153 704 227 704 c 0
 302 704 302 686 302 670 c 2
 302 642 l 2
 302 631 302 616 291 616 c 0
 279 616 264 639 230 639 c 0
 185 639 183 600 183 577 c 2
 183 472 l 1
 234 472 l 2
 247 472 278 471 278 440 c 0
 278 409 249 408 235 408 c 2
 185 408 l 1
 185 45 l 2
 185 26 185 0 144 -0 c 0
 136 0 128 0 120 -0 c 0
 78 0 77 23 77 43 c 2
 77 408 l 1
 66 408 l 2
 30 408 26 431 26 440 c 0
341 45 m 2
 341 543 l 2
 341 669 407 704 478 704 c 0
 485 704 528 703 538 691 c 0
 542 686 542 678 542 672 c 0
 542 660 542 648 542 636 c 0
 542 623 538 614 531 614 c 0
 519 614 508 639 481 639 c 0xde
 453 639 447 612 447 578 c 2
 447 472 l 1
 498 472 l 2
 511 472 542 471 542 440 c 0
 542 409 513 408 499 408 c 2
 449 408 l 1
 449 47 l 2
 449 45 450 43 450 41 c 0
 450 17 442 0 406 -0 c 2
 384 -0 l 2
 340 0 341 28 341 45 c 2
602 627 m 2
 602 650 l 2
 602 670 603 695 646 695 c 2
 672 695 l 2
 706 695 714 679 714 650 c 2
 714 628 l 2
 714 586 694 583 670 583 c 2xee
 645 583 l 2
 610 583 602 599 602 627 c 2
604 42 m 2
 604 430 l 2
 604 471 625 472 650 472 c 2
 657 472 l 2
 661 472 666 473 670 473 c 0
 705 473 713 456 713 430 c 2
 713 43 l 2
 713 25 711 0 672 -0 c 2xce
 647 -0 l 2
 610 0 604 18 604 42 c 2
EndSplineSet
Ligature2: "Latin ligatures excepting Turkic subtable" ff i
Ligature2: "Latin ligatures excepting Turkic subtable" f f i
EndChar

StartChar: ffl
Encoding: 64260 64260 38
Width: 769
Flags: HW
TeX: 694 0
HStem: -0 21G<99 164.5 362 424 625 682> 408 64<27.5944 77 185 276.402 449 540.402> 639 65<191.34 285.372 452.169 526.232> 674 20G<636 692>
VStem: 77 108<3.0296 408 472 633.596> 341 201<410.439 469.289 621 682> 341 108<3.13897 408 472 634.63> 604 109<3.02357 690.985>
LayerCount: 2
Fore
SplineSet
26 440 m 0
 26 450 30 473 67 473 c 0
 70 473 74 472 77 472 c 1
 77 542 l 2
 77 672 153 704 227 704 c 0
 302 704 302 686 302 670 c 2
 302 642 l 2
 302 631 302 616 291 616 c 0
 279 616 264 639 230 639 c 0
 185 639 183 600 183 577 c 2
 183 472 l 1
 234 472 l 2
 247 472 278 471 278 440 c 0
 278 409 249 408 235 408 c 2
 185 408 l 1
 185 45 l 2
 185 26 185 0 144 -0 c 0
 136 0 128 0 120 -0 c 0
 78 0 77 23 77 43 c 2
 77 408 l 1
 66 408 l 2
 30 408 26 431 26 440 c 0
341 45 m 2
 341 543 l 2xeb
 341 682 422 704 477 704 c 0
 507 704 532 697 538 689 c 0
 542 684 542 676 542 670 c 0
 542 659 542 648 542 637 c 0
 542 621 538 616 532 616 c 0
 517 616 509 639 481 639 c 0
 453 639 447 613 447 578 c 2
 447 472 l 1
 498 472 l 2
 511 472 542 471 542 440 c 0xed
 542 409 513 408 499 408 c 2
 449 408 l 1
 449 47 l 2
 449 45 450 43 450 41 c 0
 450 17 442 0 406 -0 c 2
 384 -0 l 2
 340 0 341 28 341 45 c 2
604 43 m 2
 604 654 l 1
 605 692 625 694 647 694 c 2
 671 694 l 2
 713 694 713 667 713 652 c 2
 713 38 l 1
 712 5 693 0 671 -0 c 2xd9
 646 -0 l 2
 604 0 604 27 604 43 c 2
EndSplineSet
Ligature2: "Latin ligatures subtable" ff l
Ligature2: "Latin ligatures subtable" f f l
EndChar

StartChar: uni2423
Encoding: 9251 9251 39
Width: 475
Flags: HW
TeX: 472 83
HStem: -106 45<84 389>
VStem: 39 45<-61 285.945> 389 46<-61 285.945>
LayerCount: 2
Fore
SplineSet
39 -76 m 2
 39 252 l 2
 39 262 40 286 62 286 c 0
 83 286 84 267 84 253 c 2
 84 -61 l 1
 389 -61 l 1
 389 253 l 2
 389 267 391 286 412 286 c 0
 421 286 435 282 435 254 c 2
 435 -75 l 2
 435 -101 422 -106 402 -106 c 2
 68 -106 l 1
 43 -105 39 -92 39 -76 c 2
EndSplineSet
EndChar

StartChar: exclam
Encoding: 33 33 40
Width: 306
Flags: HW
TeX: 694 0
HStem: -0 106<102.264 202.772> 674 20G<110 189>
VStem: 99 106<3.26274 103.158 353.1 693.948> 109 86<183.047 527.9>
LayerCount: 2
Fore
SplineSet
99 48 m 2
 99 63 l 2
 99 105 124 106 143 106 c 2
 163 106 l 2
 208 106 205 77 205 58 c 2
 205 43 l 2
 205 26 205 0 163 -0 c 0
 156 0 149 0 142 -0 c 0
 97 0 99 29 99 48 c 2
99 659 m 1xe0
 99 673 l 2
 99 685 101 693 119 694 c 1
 182 694 l 2
 196 694 205 693 205 674 c 2xe0
 195 212 l 2
 195 197 196 183 172 183 c 2
 164 183 l 2
 156 183 149 182 141 182 c 0
 108 182 110 185 109 222 c 2xd0
 99 659 l 1xe0
EndSplineSet
EndChar

StartChar: quotedbl
Encoding: 34 34 41
Width: 475
Flags: HW
TeX: 694 0
HStem: 389 305<123.622 190.254 282.564 349.297>
VStem: 102 110<583.667 694> 261 110<584.333 694>
LayerCount: 2
Fore
SplineSet
102 677 m 0
 102 688 106 694 121 694 c 2
 190 694 l 2
 203 694 212 692 212 676 c 0
 212 673 211 670 211 667 c 2
 191 417 l 2
 189 398 188 389 166 389 c 2
 152 389 l 2
 125 389 125 395 123 417 c 0
 105 629 102 664 102 677 c 0
261 675 m 0
 261 685 262 694 281 694 c 2
 350 694 l 2
 363 694 371 692 371 677 c 2
 371 668 l 1
 350 417 l 2
 348 398 348 389 326 389 c 2
 312 389 l 2
 285 389 284 393 282 417 c 0
 267 593 261 653 261 675 c 0
EndSplineSet
EndChar

StartChar: numbersign
Encoding: 35 35 42
Width: 792
Flags: HW
TeX: 694 166
HStem: -166 21G<181 203 387 409> 118 65<55.3714 221 304 426 510 735.157> 345 64<54.5156 280 363 485 568 735.004> 673 20G<381 403 586 608>
VStem: 158 67<-162.405 -47.6634> 363 67<-162.922 -47.6634 589.895 689.958>
DStem2: 221 118 287 118 0.248462 0.968642<-230.357 0 83.5841 234.541 317.156 545.524> 426 118 492 118 0.25015 0.968207<-230.358 0 83.9461 234.542 317.27 545.637>
LayerCount: 2
Fore
SplineSet
53 151 m 0
 53 160 57 183 94 183 c 2
 238 183 l 1
 280 345 l 1
 156 345 l 2
 143 345 131 344 120 344 c 0
 79 344 53 348 53 378 c 0
 53 391 59 409 96 409 c 2
 296 409 l 1
 297 410 l 1
 302 435 309 459 359 656 c 0
 360 661 367 693 395 693 c 0
 411 693 426 681 426 662 c 0
 426 651 427 658 363 409 c 1
 502 409 l 1
 502 410 l 1
 507 435 515 459 565 656 c 0
 566 661 572 693 600 693 c 0
 616 693 631 681 631 662 c 0
 631 651 632 658 568 409 c 1
 689 409 l 2
 696 409 703 409 710 408 c 0
 725 405 737 392 737 377 c 0
 737 369 733 346 698 345 c 1
 552 345 l 1
 551 344 l 1
 510 183 l 1
 675 183 l 2
 711 183 737 179 737 150 c 0
 737 137 730 118 694 118 c 2
 492 118 l 1
 487 93 480 69 430 -128 c 0
 429 -133 423 -166 395 -166 c 0
 379 -166 363 -153 363 -134 c 0
 363 -123 362 -131 426 118 c 1
 287 118 l 1
 282 93 275 69 225 -128 c 0
 224 -133 217 -166 189 -166 c 0
 173 -166 158 -153 158 -134 c 0
 158 -123 157 -131 221 118 c 1
 100 118 l 2
 93 118 87 118 80 119 c 0
 65 122 53 136 53 151 c 0
304 183 m 1
 444 183 l 1
 485 345 l 1
 346 345 l 1
 346 344 l 1
 304 183 l 1
EndSplineSet
EndChar

StartChar: dollar
Encoding: 36 36 43
Width: 475
Flags: HW
TeX: 750 55
HStem: -8 87<135.419 205> 616 87<270 335.808>
VStem: 53 99<459.651 590.561> 205 65<-53.1359 -4.98954 83 287 434 612 699.908 747.184> 322 100<108.253 258.877>
LayerCount: 2
Fore
SplineSet
43 75 m 1
 43 75 49 143 64 143 c 0
 81 143 112 93 205 79 c 1
 205 306 l 1
 97 331 53 423 53 507 c 0
 53 556 64 683 205 702 c 1
 205 708 l 2
 205 745 228 749 238 749 c 0
 273 749 270 709 270 703 c 1
 342 693 404 656 404 633 c 1
 404 633 400 565 385 565 c 0
 367 565 348 603 270 616 c 1
 270 416 l 1
 374 391 422 294 422 202 c 0
 422 35 321 1 270 -8 c 1
 270 -21 271 -55 238 -55 c 0
 202 -55 205 -14 205 -8 c 1
 125 2 43 50 43 75 c 1
152 525 m 0
 152 471 185 443 205 434 c 1
 205 612 l 1
 160 596 152 555 152 525 c 0
270 83 m 1
 304 99 322 129 322 183 c 0
 322 236 302 268 270 287 c 1
 270 83 l 1
EndSplineSet
EndChar

StartChar: percent
Encoding: 37 37 44
Width: 879
Flags: HW
TeX: 750 55
HStem: -56 64<646 681 646 749> 283 128 686 64<184.5 217.5>
VStem: 53 101<522.5 561.5> 265 95<534 562.5 534 609.5> 518 101<119.5 158.5> 730 95<131 159.5 131 206.5>
LayerCount: 2
Fore
SplineSet
53 549 m 0
 53 574 53 642 91 694 c 0
 118 730 161 750 208 750 c 0
 360 750 360 577 360 548 c 0
 360 520 360 347 208 347 c 0
 67 347 53 488 53 549 c 0
154 548 m 0
 154 497 154 411 208 411 c 0
 224 411 265 421 265 549 c 0
 265 670 227 686 208 686 c 0
 154 686 154 600 154 548 c 0
173 -21 m 0
 173 -11 177 -4 183 5 c 2
 640 728 l 2
 646 737 654 750 673 750 c 0
 693 750 708 733 708 715 c 0
 708 705 704 698 698 689 c 2
 241 -34 l 2
 235 -44 227 -56 208 -56 c 0
 189 -56 173 -40 173 -21 c 0
518 146 m 0
 518 171 518 239 556 291 c 0
 583 327 626 347 673 347 c 0
 825 347 825 174 825 145 c 0
 825 117 825 -56 673 -56 c 0
 532 -56 518 85 518 146 c 0
619 145 m 0
 619 94 619 8 673 8 c 0
 689 8 730 18 730 146 c 0
 730 267 692 283 673 283 c 0
 619 283 619 197 619 145 c 0
EndSplineSet
EndChar

StartChar: ampersand
Encoding: 38 38 45
Width: 716
Flags: HW
TeX: 694 0
HStem: -19 86<184 222.5 184 248 550 564.5> 649 64<279 315>
VStem: 137 96<523 580.5 523 588> 343 95<527.5 571>
LayerCount: 2
Fore
SplineSet
40 144 m 0
 40 205 75 247 92 262 c 2
 178 337 l 1
 146 413 137 483 137 532 c 0
 137 644 215 713 296 713 c 0
 384 713 438 632 438 557 c 0
 438 492 380 428 285 344 c 1
 315 285 360 222 411 159 c 1
 478 228 520 327 544 422 c 0
 549 443 550 448 560 448 c 0
 564 448 612 434 621 432 c 1
 625 430 632 428 632 419 c 0
 632 415 614 333 569 243 c 0
 547 198 520 154 472 100 c 1
 514 67 543 67 557 67 c 0
 572 67 602 69 640 81 c 1
 646 84 649 85 652 85 c 0
 663 85 663 75 663 59 c 2
 663 25 l 2
 663 1 662 0 623 -10 c 0
 601 -16 577 -19 554 -19 c 0
 502 -19 450 -3 398 37 c 1
 342 3 283 -19 213 -19 c 0
 113 -19 40 57 40 144 c 0
151 168 m 0
 151 159 152 67 216 67 c 0
 229 67 280 69 333 98 c 1
 306 128 246 205 206 276 c 1
 176 252 151 229 151 168 c 0
233 551 m 0
 233 495 247 444 258 407 c 1
 308 455 343 498 343 557 c 0
 343 585 334 649 296 649 c 0
 262 649 233 610 233 551 c 0
EndSplineSet
EndChar

StartChar: parenleft
Encoding: 40 40 47
Width: 369
Flags: HW
TeX: 750 222
HStem: -222 21<268 276 276 290> 730 20<276 290 290 298>
VStem: 72 111<122.5 337.5>
LayerCount: 2
Fore
SplineSet
72 264 m 0
 72 411 101 559 189 676 c 0
 221 719 254 748 259 749 c 0
 260 750 262 750 276 750 c 2
 290 750 l 2
 306 750 314 750 314 739 c 0
 314 736 314 734 304 722 c 0
 229 624 183 492 183 264 c 0
 183 -19 256 -132 308 -198 c 0
 313 -205 314 -207 314 -211 c 0
 314 -222 306 -222 290 -222 c 2
 276 -222 l 2
 260 -222 258 -222 256 -220 c 0
 241 -208 72 -76 72 264 c 0
EndSplineSet
EndChar

StartChar: parenright
Encoding: 41 41 48
Width: 369
Flags: HW
TeX: 750 222
HStem: -222 21<71.5 79 79 92> 730 20<79 92 92 100>
VStem: 185 111<190.5 406>
LayerCount: 2
Fore
SplineSet
54 -211 m 0
 54 -208 54 -206 64 -194 c 0
 136 -99 185 29 185 264 c 0
 185 548 111 660 60 726 c 0
 54 734 54 736 54 739 c 0
 54 750 64 750 79 750 c 2
 92 750 l 2
 108 750 110 750 112 748 c 0
 127 736 296 604 296 264 c 0
 296 117 267 -31 179 -148 c 0
 147 -191 114 -220 109 -221 c 0
 108 -222 106 -222 92 -222 c 2
 79 -222 l 2
 64 -222 54 -222 54 -211 c 0
EndSplineSet
EndChar

StartChar: asterisk
Encoding: 42 42 49
Width: 475
Flags: HW
TeX: 750 0
HStem: 278 21<228.5 245.5> 730 20<228.5 245.5>
VStem: 195 84<302 317 711 726>
LayerCount: 2
Fore
SplineSet
57 422 m 0
 57 446 74 453 82 457 c 2
 210 514 l 1
 82 571 l 2
 74 575 57 582 57 606 c 0
 57 629 78 652 101 652 c 0
 112 652 119 648 129 638 c 2
 221 546 l 1
 198 690 l 2
 195 707 195 709 195 713 c 0
 195 739 220 750 237 750 c 0
 254 750 279 739 279 713 c 0
 279 709 279 707 276 690 c 2
 253 546 l 1
 346 638 l 2
 355 647 360 652 373 652 c 0
 397 652 417 629 417 606 c 0
 417 582 400 575 392 571 c 2
 264 514 l 1
 392 457 l 2
 400 453 417 446 417 422 c 0
 417 399 396 376 373 376 c 0
 362 376 355 380 345 390 c 2
 253 482 l 1
 260 441 279 324 279 315 c 0
 279 289 254 278 237 278 c 0
 220 278 195 289 195 315 c 0
 195 319 195 321 198 338 c 2
 221 482 l 1
 128 390 l 2
 119 381 114 376 101 376 c 0
 77 376 57 399 57 422 c 0
EndSplineSet
EndChar

StartChar: plus
Encoding: 43 43 50
Width: 739
Flags: HW
TeX: 580 52
HStem: 232 64<64.4241 336 400 682.287>
VStem: 336 64<-50.1914 232 296 578.436>
LayerCount: 2
Fore
SplineSet
53 264 m 0
 53 296 85 296 97 296 c 2
 336 296 l 1
 336 535 l 2
 336 544 335 580 368 580 c 0
 402 580 400 544 400 536 c 2
 400 296 l 1
 642 296 l 2
 653 296 683 295 684 264 c 0
 684 235 659 232 640 232 c 2
 400 232 l 1
 400 -8 l 2
 400 -17 401 -51 368 -52 c 0
 340 -52 336 -29 336 -8 c 2
 336 232 l 1
 97 232 l 2
 85 232 73 232 64 240 c 0
 53 249 53 262 53 264 c 0
EndSplineSet
EndChar

StartChar: comma
Encoding: 44 44 51
Width: 263
Flags: HW
TeX: 105 111
HStem: -111 21<96.5 116.5> 0 106<104 107>
VStem: 79 106<26 80 18 93>
LayerCount: 2
Fore
SplineSet
79 26 m 2
 79 80 l 2
 79 106 80 106 104 106 c 2
 160 106 l 2
 184 106 185 106 185 80 c 2
 185 26 l 2
 185 10 185 8 177 -9 c 0
 155 -55 155 -57 135 -95 c 0
 128 -110 127 -111 106 -111 c 0
 87 -111 79 -111 79 -99 c 0
 79 -93 103 -13 107 0 c 1
 80 0 79 1 79 26 c 2
EndSplineSet
EndChar

StartChar: hyphen
Encoding: 45 45 52
Width: 317
Flags: HW
TeX: 472 0
HStem: 204 64<12.5944 260.396>
VStem: 11 251<206.914 265.198>
LayerCount: 2
Fore
SplineSet
11 236 m 0
 11 246 15 268 52 268 c 2
 222 268 l 2
 259 268 262 244 262 236 c 0
 262 227 258 204 221 204 c 2
 52 204 l 2
 16 204 11 223 11 236 c 0
EndSplineSet
EndChar

StartChar: period
Encoding: 46 46 53
Width: 264
Flags: HW
TeX: 105 0
HStem: 0 106<78.2575 183.815>
VStem: 78 106<2.99993e-07 106>
LayerCount: 2
Fore
SplineSet
78 23 m 0
 78 37 78 52 78 66 c 0
 78 98 78 105 98 106 c 1
 162 106 l 2
 177 106 184 102 184 85 c 2
 184 33 l 2
 184 9 183 1 164 0 c 1
 100 0 l 2
 79 0 78 10 78 23 c 0
EndSplineSet
EndChar

StartChar: slash
Encoding: 47 47 54
Width: 475
Flags: HW
TeX: 750 222
DStem2: 60 -159 119 -189 0.317843 0.948143<-31.2144 945.501>
LayerCount: 2
Fore
SplineSet
53 -190 m 0
 53 -181 57 -169 60 -159 c 2
 350 705 l 2
 355 720 363 749 389 749 c 0
 405 749 420 737 420 718 c 0
 420 708 417 699 414 691 c 2
 119 -189 l 2
 114 -205 105 -221 84 -221 c 0
 74 -221 53 -214 53 -190 c 0
EndSplineSet
EndChar

StartChar: zero
Encoding: 48 48 55
Width: 475
Flags: HW
TeX: 694 0
HStem: -19 64<192.5 281.5 192.5 337> 649 64<202.5 281.5>
VStem: 37 111<281.5 387.5 277 404.5> 326 111<281.5 404.5 281.5 434>
LayerCount: 2
Fore
SplineSet
37 343 m 0
 37 466 37 713 237 713 c 0
 437 713 437 466 437 343 c 0
 437 220 437 -19 237 -19 c 0
 37 -19 37 220 37 343 c 0
148 357 m 0
 148 197 148 45 237 45 c 0
 326 45 326 197 326 357 c 0
 326 511 326 649 237 649 c 0
 168 649 157 557 154 535 c 0
 148 482 148 418 148 357 c 0
EndSplineSet
Substitution2: "LGC old numerals subtable" zerooldstyle
EndChar

StartChar: one
Encoding: 49 49 56
Width: 475
Flags: HW
TeX: 694 0
HStem: 0 64<117.5 191 124 191 303 364> 580 64 693 20<254.5 284>
VStem: 191 112<64 595 595 595>
LayerCount: 2
Fore
SplineSet
67 612 m 0
 67 623 74 643 102 644 c 0
 123 645 188 646 230 696 c 0
 239 707 244 713 265 713 c 0
 303 713 303 687 303 669 c 2
 303 64 l 1
 364 64 l 2
 377 64 408 64 408 32 c 0
 408 0 377 0 364 0 c 2
 124 0 l 2
 111 0 79 0 79 32 c 0
 79 64 111 64 124 64 c 2
 191 64 l 1
 191 595 l 1
 165 586 135 580 108 580 c 0
 97 580 67 580 67 612 c 0
EndSplineSet
Substitution2: "LGC old numerals subtable" oneoldstyle
EndChar

StartChar: two
Encoding: 50 50 57
Width: 475
Flags: HW
TeX: 694 0
HStem: 0 93<74 295 173 295 295 305 173 383> 627 86<197.5 259.5>
VStem: 312 115<453 497>
LayerCount: 2
Fore
SplineSet
40 551 m 0
 40 554 55 616 96 661 c 0
 128 695 171 713 224 713 c 0
 354 713 427 607 427 490 c 0
 427 392 376 337 250 202 c 0
 228 178 175 116 153 92 c 1
 160 93 162 93 173 93 c 2
 295 93 l 2
 315 93 337 94 357 94 c 0
 413 94 427 94 427 50 c 2
 427 44 l 2
 427 10 418 0 383 0 c 2
 92 0 l 2
 56 0 47 10 47 45 c 0
 47 63 47 65 56 75 c 2
 227 290 l 2
 273 348 312 417 312 489 c 0
 312 505 309 627 210 627 c 0
 139 627 115 565 101 506 c 0
 97 492 96 487 87 487 c 0
 81 487 79 490 72 499 c 0
 55 524 40 545 40 551 c 0
EndSplineSet
Substitution2: "LGC old numerals subtable" twooldstyle
EndChar

StartChar: three
Encoding: 51 51 58
Width: 475
Flags: HW
TeX: 694 0
HStem: -19 80<212 267.5 212 285.5> 343 64 638 75<215.5 257>
VStem: 312 122<180 249.5>
LayerCount: 2
Fore
SplineSet
40 89 m 0
 40 92 45 121 46 127 c 0
 49 148 50 154 60 154 c 0
 65 154 66 153 75 140 c 0
 126 68 200 61 224 61 c 0
 311 61 312 158 312 202 c 0
 312 297 288 343 217 343 c 2
 183 343 l 2
 159 343 158 343 158 369 c 2
 158 381 l 2
 158 401 159 402 164 405 c 0
 166 406 167 407 192 409 c 0
 226 412 248 414 270 450 c 0
 286 476 293 513 293 548 c 0
 293 587 289 638 225 638 c 0
 206 638 139 632 104 553 c 0
 101 546 99 541 92 541 c 0
 81 541 54 593 54 596 c 0
 54 607 104 713 229 713 c 0
 345 713 408 647 408 548 c 0
 408 462 355 405 308 376 c 1
 374 356 434 308 434 200 c 0
 434 48 343 -19 228 -19 c 0
 104 -19 40 75 40 89 c 0
EndSplineSet
Substitution2: "LGC old numerals subtable" threeoldstyle
EndChar

StartChar: four
Encoding: 52 52 59
Width: 475
Flags: HW
TeX: 694 0
HStem: 0 21<288 307 307 324> 166 81<51 269 114 263 368 404> 674 20<272 324 324 341.5>
VStem: 269 99<247 604 598 604>
LayerCount: 2
Fore
SplineSet
26 210 m 2
 26 228 l 2
 26 245 26 247 33 261 c 2
 230 670 l 2
 241 693 248 694 272 694 c 2
 324 694 l 2
 359 694 368 684 368 650 c 2
 368 247 l 1
 404 247 l 2
 425 247 448 247 448 206 c 0
 448 166 424 166 404 166 c 2
 368 166 l 1
 368 44 l 2
 368 10 359 0 324 0 c 2
 307 0 l 2
 269 0 263 13 263 44 c 2
 263 166 l 1
 70 166 l 2
 32 166 26 179 26 210 c 2
114 247 m 1
 269 247 l 1
 269 604 l 2
 269 592 251 548 238 517 c 0
 192 405 130 282 114 247 c 1
EndSplineSet
Substitution2: "LGC old numerals subtable" fouroldstyle
EndChar

StartChar: five
Encoding: 53 53 60
Width: 475
Flags: HW
TeX: 694 0
HStem: -19 80<203.5 249.5> 384 64<233 274> 608 86<176 176 176 351>
VStem: 71 105<433 608 433 648 433 665.5> 305 122<202 244 202 254.5>
LayerCount: 2
Fore
SplineSet
33 96 m 0
 33 97 58 159 71 159 c 0
 78 159 81 154 82 150 c 0
 119 61 199 61 208 61 c 0
 305 61 305 157 305 223 c 0
 305 286 305 384 243 384 c 0
 188 384 163 340 153 324 c 0
 143 306 134 304 114 304 c 0
 72 304 71 326 71 350 c 2
 71 648 l 2
 71 683 79 694 116 694 c 2
 351 694 l 2
 384 694 395 686 395 651 c 0
 395 615 383 608 351 608 c 2
 176 608 l 1
 176 433 l 1
 197 443 221 448 245 448 c 0
 307 448 357 420 383 384 c 0
 422 330 427 268 427 220 c 0
 427 184 425 103 370 42 c 0
 341 11 288 -19 211 -19 c 0
 87 -19 33 85 33 96 c 0
EndSplineSet
Substitution2: "LGC old numerals subtable" fiveoldstyle
EndChar

StartChar: six
Encoding: 54 54 61
Width: 475
Flags: HW
TeX: 694 0
HStem: -19 80<202 263.5> 410 64<237.5 281> 638 75<255.5 294 255.5 302>
VStem: 40 117<295 306.5 213.5 369> 319 115<197 259 197 274>
LayerCount: 2
Fore
SplineSet
40 339 m 0
 40 399 40 513 96 605 c 1
 145 683 222 713 289 713 c 0
 299 713 321 713 345 703 c 0
 376 691 376 688 376 666 c 2
 376 642 l 2
 376 626 376 616 365 616 c 0
 363 616 361 616 349 623 c 0
 333 633 312 638 292 638 c 0
 165 638 158 477 155 391 c 1
 174 439 209 474 266 474 c 0
 333 474 372 442 400 395 c 0
 433 339 434 285 434 233 c 0
 434 161 430 108 383 47 c 0
 341 -8 287 -19 240 -19 c 0
 40 -19 40 251 40 339 c 0
157 251 m 0
 157 176 165 61 239 61 c 0
 319 61 319 153 319 233 c 0
 319 315 319 410 243 410 c 0
 191 410 157 362 157 251 c 0
EndSplineSet
Substitution2: "LGC old numerals subtable" sixoldstyle
EndChar

StartChar: seven
Encoding: 55 55 62
Width: 475
Flags: HW
TeX: 694 0
HStem: -10 21<148.5 170 170 199> 601 94<165 175 117 304>
VStem: 126 117<6 139>
LayerCount: 2
Fore
SplineSet
40 644 m 2
 40 651 l 2
 40 695 52 695 117 695 c 2
 153 695 l 2
 197 695 354 695 386 694 c 0
 418 693 434 693 434 651 c 0
 434 632 434 630 425 618 c 0
 297 423 245 232 243 22 c 0
 243 -10 212 -10 199 -10 c 2
 170 -10 l 2
 127 -10 126 9 126 36 c 0
 126 242 201 439 327 602 c 1
 320 601 313 601 304 601 c 2
 175 601 l 2
 155 601 133 600 112 600 c 0
 53 600 40 600 40 644 c 2
EndSplineSet
Substitution2: "LGC old numerals subtable" sevenoldstyle
EndChar

StartChar: eight
Encoding: 56 56 63
Width: 475
Flags: HW
TeX: 694 0
HStem: -19 80<195.5 278.5 195.5 298.5> 343 64<196.5 277.5 196.5 278.5> 638 75<196.5 277.5>
VStem: 40 114<171.5 229 171.5 236> 320 114<171.5 229>
LayerCount: 2
Fore
SplineSet
40 199 m 0
 40 273 67 346 156 375 c 1
 73 402 53 467 53 524 c 0
 53 638 114 713 237 713 c 0
 358 713 421 640 421 524 c 0
 421 471 403 402 318 375 c 1
 395 350 434 289 434 199 c 0
 434 58 360 -19 237 -19 c 0
 118 -19 40 54 40 199 c 0
154 201 m 0
 154 142 154 61 237 61 c 0
 320 61 320 142 320 201 c 0
 320 257 320 343 237 343 c 0
 154 343 154 257 154 201 c 0
156 523 m 0
 156 476 156 407 237 407 c 0
 318 407 318 476 318 523 c 0
 318 572 318 638 237 638 c 0
 156 638 156 573 156 523 c 0
EndSplineSet
Substitution2: "LGC old numerals subtable" eightoldstyle
EndChar

StartChar: nine
Encoding: 57 57 64
Width: 475
Flags: HW
TeX: 694 0
HStem: -19 80<173.5 217 173.5 235> 220 64<193 232> 638 75<207 271.5>
VStem: 40 115<438.5 492> 318 116<318.5 492>
LayerCount: 2
Fore
SplineSet
40 462 m 0
 40 522 41 582 90 645 c 0
 128 693 175 713 239 713 c 0
 434 713 434 446 434 357 c 0
 434 280 432 170 373 77 c 0
 337 22 273 -19 197 -19 c 0
 110 -19 70 34 70 41 c 0
 70 43 98 102 109 102 c 0
 113 102 116 101 121 96 c 0
 131 84 151 61 196 61 c 0
 238 61 280 88 299 148 c 0
 314 194 315 226 319 303 c 1
 292 242 256 220 208 220 c 0
 133 220 97 260 72 304 c 0
 40 359 40 415 40 462 c 0
155 461 m 0
 155 380 155 284 231 284 c 0
 318 284 318 423 318 441 c 0
 318 543 303 638 240 638 c 0
 155 638 155 541 155 461 c 0
EndSplineSet
Substitution2: "LGC old numerals subtable" nineoldstyle
EndChar

StartChar: colon
Encoding: 58 58 65
Width: 263
Flags: HW
TeX: 472 0
HStem: 0 106<104 105 105 160> 366 106<92 160 105 160 105 160>
VStem: 79 106<26 80 13 93 392 446>
LayerCount: 2
Fore
SplineSet
79 26 m 2
 79 80 l 2
 79 106 80 106 104 106 c 2
 160 106 l 2
 184 106 185 106 185 80 c 2
 185 26 l 2
 185 0 184 0 160 0 c 2
 105 0 l 2
 80 0 79 1 79 26 c 2
79 392 m 2
 79 446 l 2
 79 471 80 472 105 472 c 2
 160 472 l 2
 184 472 185 472 185 446 c 2
 185 392 l 2
 185 366 184 366 160 366 c 2
 104 366 l 2
 80 366 79 366 79 392 c 2
EndSplineSet
EndChar

StartChar: less
Encoding: 60 60 67
Width: 739
Flags: HW
TeX: 611 83
DStem2: 111 301 173 264 0.854567 0.519341<33.7676 599.992> 173 264 112 226 0.85487 -0.518842<0 566.91>
LayerCount: 2
Fore
SplineSet
80 264 m 0
 80 285 100 294 111 301 c 2
 603 600 l 2
 608 603 617 608 627 608 c 0
 644 608 658 594 658 577 c 0
 658 554 632 542 627 539 c 2
 173 264 l 1
 245 221 l 1
 627 -11 l 2
 641 -19 658 -29 658 -49 c 0
 658 -66 644 -81 627 -81 c 0
 622 -81 616 -79 603 -72 c 2
 112 226 l 2
 101 233 80 242 80 264 c 0
EndSplineSet
EndChar

StartChar: equal
Encoding: 61 61 68
Width: 739
Flags: HW
TeX: 411 -115
HStem: 119 64<54.6166 681.681> 345 64<54.7198 681.945>
LayerCount: 2
Fore
SplineSet
53 377 m 0
 53 386 57 409 95 409 c 2
 644 409 l 2
 679 409 684 385 684 377 c 0
 684 367 679 345 641 345 c 2
 95 345 l 2
 59 345 53 364 53 377 c 0
EndSplineSet
Refer: 293 8722 S 1 0 0 1 0 -113 2
EndChar

StartChar: greater
Encoding: 62 62 69
Width: 739
Flags: HW
TeX: 611 83
DStem2: 135 600 111 539 0.85487 -0.518842<-24.2656 541.925> 111 -11 135 -72 0.855338 0.518071<-35.8624 530.793>
LayerCount: 2
Fore
SplineSet
80 -49 m 0
 80 -26 106 -14 111 -11 c 2
 565 264 l 1
 493 307 l 1
 111 539 l 2
 97 547 80 557 80 577 c 0
 80 594 94 608 111 608 c 0
 121 608 130 603 135 600 c 2
 626 302 l 2
 637 295 658 286 658 264 c 0
 658 243 638 233 627 226 c 2
 135 -72 l 2
 130 -75 121 -81 111 -81 c 0
 94 -81 80 -66 80 -49 c 0
EndSplineSet
EndChar

StartChar: question
Encoding: 63 63 70
Width: 448
Flags: HW
TeX: 694 0
HStem: 0 106<202 203 203 220> 183 21<182 194 194 228> 640 64<198.5 244>
VStem: 169 85<207 210 210 244 196.5 250 196.5 278> 284 111<537 583.5>
LayerCount: 2
Fore
SplineSet
54 642 m 0
 54 653 119 704 215 704 c 0
 277 704 395 693 395 552 c 0
 395 522 389 472 349 438 c 0
 270 372 254 295 254 244 c 2
 254 210 l 2
 254 183 253 183 228 183 c 2
 194 183 l 2
 170 183 169 184 169 207 c 2
 169 250 l 2
 169 306 189 390 260 477 c 1
 275 497 284 507 284 557 c 0
 284 610 276 640 212 640 c 0
 185 640 138 634 97 587 c 0
 92 580 89 577 84 577 c 0
 77 577 76 578 65 606 c 0
 61 618 54 639 54 642 c 0
158 45 m 2
 158 62 l 2
 158 96 167 106 202 106 c 2
 220 106 l 2
 258 106 264 93 264 62 c 2
 264 44 l 2
 264 10 255 0 220 0 c 2
 203 0 l 2
 167 0 158 10 158 45 c 2
EndSplineSet
EndChar

StartChar: at
Encoding: 64 64 71
Width: 633
Flags: HW
TeX: 694 0
HStem: -10 64<317 381.5 262 433> 120 64<385 404.5 363 431.5> 510 64<388.5 411.5 305 430> 640 64<330 389>
VStem: 53 101<323 379> 213 101<334.5 363.5> 479 101<339 383>
LayerCount: 2
Fore
SplineSet
53 347 m 0
 53 411 61 516 124 597 c 0
 186 676 280 704 366 704 c 0
 569 704 580 513 580 367 c 0
 580 311 580 252 542 193 c 0
 517 154 467 120 396 120 c 0
 374 120 302 123 254 189 c 0
 213 246 213 322 213 347 c 0
 213 380 213 574 397 574 c 0
 426 574 451 567 457 565 c 1
 445 608 412 640 366 640 c 0
 294 640 234 607 195 542 c 0
 163 489 154 413 154 347 c 0
 154 299 154 54 370 54 c 0
 393 54 454 58 512 98 c 1
 555 98 l 2
 571 98 579 98 579 87 c 0
 579 76 499 -10 367 -10 c 0
 267 -10 172 28 118 106 c 1
 62 185 53 274 53 347 c 0
314 347 m 0
 314 275 329 184 397 184 c 0
 412 184 479 187 479 347 c 0
 479 419 464 510 396 510 c 0
 381 510 314 507 314 347 c 0
EndSplineSet
EndChar

StartChar: A
Encoding: 65 65 72
Width: 636
Flags: HW
TeX: 694 0
HStem: 0 21<66 73 73 89 506 528 528 562> 171 75<211 407 211 430 188 407> 674 20<289 346 346 356>
VStem: 35 565<12.5 25.5 12.5 27>
AnchorPoint: "ogonek" 523 0 basechar 0
AnchorPoint: "below" 318 0 basechar 0
AnchorPoint: "above" 318 713 basechar 0
LayerCount: 2
Fore
SplineSet
35 25 m 0
 35 29 38 37 39 41 c 2
 232 657 l 2
 244 694 271 694 289 694 c 2
 346 694 l 2
 366 694 391 694 403 656 c 2
 596 39 l 2
 600 28 600 26 600 25 c 0
 600 0 576 0 562 0 c 2
 528 0 l 2
 484 0 479 13 463 64 c 2
 430 171 l 1
 188 171 l 1
 146 40 l 2
 139 18 133 0 89 0 c 2
 73 0 l 2
 59 0 35 0 35 25 c 0
211 246 m 1
 407 246 l 1
 351 431 l 2
 340 468 315 550 309 588 c 1
 308 588 l 1
 304 558 287 499 269 439 c 2
 211 246 l 1
EndSplineSet
EndChar

StartChar: B
Encoding: 66 66 73
Width: 634
Flags: HW
TeX: 694 0
HStem: 0 75<108 321 197 321 321 351> 329 64<197 296 296 305 197 296> 619 75<197 296 197 197>
VStem: 81 116<75 75 75 329 393 619> 444 111<482.5 561.5 476 566.5>
AnchorPoint: "below" 310 0 basechar 0
AnchorPoint: "above" 310 713 basechar 0
LayerCount: 2
Fore
SplineSet
81 45 m 2
 81 649 l 2
 81 685 91 694 126 694 c 2
 326 694 l 2
 495 694 555 607 555 516 c 0
 555 436 501 382 418 363 c 1
 543 342 581 265 581 192 c 0
 581 99 526 0 351 0 c 2
 126 0 l 2
 90 0 81 10 81 45 c 2
197 75 m 1
 321 75 l 2
 414 75 467 116 467 194 c 0
 467 329 333 329 305 329 c 2
 197 329 l 1
 197 75 l 1
197 393 m 1
 296 393 l 2
 406 393 444 451 444 514 c 0
 444 619 318 619 296 619 c 2
 197 619 l 1
 197 393 l 1
EndSplineSet
EndChar

StartChar: C
Encoding: 67 67 74
Width: 606
Flags: HW
TeX: 694 0
HStem: -19 86<323.5 408> 627 86<324 402.5 324 404.5>
VStem: 53 122<308 371.5 296.5 381>
AnchorPoint: "below" 373 0 basechar 0
AnchorPoint: "above" 371 713 basechar 0
LayerCount: 2
Fore
SplineSet
53 347 m 0
 53 415 61 523 126 606 c 0
 186 683 277 713 371 713 c 0
 434 713 478 702 523 685 c 0
 544 676 548 675 548 665 c 0
 548 655 538 604 535 591 c 0
 534 586 532 577 523 577 c 0
 520 577 518 577 509 584 c 0
 477 606 437 627 372 627 c 0
 175 627 175 396 175 347 c 0
 175 246 196 67 375 67 c 0
 445 67 478 80 525 114 c 0
 537 123 539 123 542 123 c 0
 551 123 552 115 553 111 c 0
 554 104 559 58 559 51 c 0
 559 43 558 42 537 27 c 1
 481 -9 443 -19 373 -19 c 0
 274 -19 196 11 137 74 c 0
 66 151 53 269 53 347 c 0
EndSplineSet
EndChar

StartChar: D
Encoding: 68 68 75
Width: 687
Flags: HW
TeX: 694 0
HStem: 0 75<108 312 200 312 312 345> 619 75<200 311 200 200>
VStem: 81 119<75 75 75 619> 514 119<302 382.5>
AnchorPoint: "below" 336 0 basechar 0
AnchorPoint: "above" 336 713 basechar 0
LayerCount: 2
Fore
SplineSet
81 45 m 2
 81 649 l 2
 81 685 91 694 126 694 c 2
 344 694 l 2
 431 694 518 661 569 587 c 0
 613 524 633 446 633 342 c 0
 633 248 616 155 554 85 c 1
 499 21 415 0 345 0 c 2
 126 0 l 2
 90 0 81 10 81 45 c 2
200 75 m 1
 312 75 l 2
 514 75 514 262 514 342 c 0
 514 423 514 619 311 619 c 2
 200 619 l 1
 200 75 l 1
EndSplineSet
EndChar

StartChar: E
Encoding: 69 69 76
Width: 566
Flags: HW
TeX: 694 0
HStem: 0 94<323 358.5 323 482> 318 81<203 443 203 443> 604 90
VStem: 81 122<92 318 92 399 399 604>
AnchorPoint: "ogonek" 304 0 basechar 0
AnchorPoint: "below" 304 0 basechar 0
AnchorPoint: "above" 304 713 basechar 0
LayerCount: 2
Fore
SplineSet
81 45 m 2
 81 646 l 2
 81 682 91 691 126 691 c 2
 469 691 l 2
 510 691 513 674 513 646 c 0
 513 601 495 601 461 601 c 0
 414 601 296 604 249 604 c 2
 203 604 l 1
 203 399 l 1
 443 399 l 2
 464 399 487 399 487 358 c 0
 487 318 463 318 443 318 c 2
 203 318 l 1
 203 92 l 1
 221 94 311 94 335 94 c 0
 382 94 429 96 476 96 c 0
 507 96 526 96 526 52 c 2
 526 44 l 2
 526 10 517 0 482 0 c 2
 126 0 l 2
 90 0 81 10 81 45 c 2
EndSplineSet
EndChar

StartChar: F
Encoding: 70 70 77
Width: 540
Flags: HW
TeX: 694 0
HStem: 0 21<108 126 126 159> 305 81<203 416 203 416> 601 93
VStem: 81 122<45 305 386 604>
AnchorPoint: "below" 290 0 basechar 0
AnchorPoint: "above" 290 713 basechar 0
LayerCount: 2
Fore
SplineSet
81 45 m 2
 81 646 l 2
 81 682 91 691 126 691 c 2
 455 691 l 2
 496 691 499 674 499 646 c 0
 499 601 481 601 448 601 c 0
 402 601 289 604 243 604 c 2
 203 604 l 1
 203 386 l 1
 416 386 l 2
 437 386 460 386 460 345 c 0
 460 305 436 305 416 305 c 2
 203 305 l 1
 203 44 l 2
 203 10 194 0 159 0 c 2
 126 0 l 2
 90 0 81 10 81 45 c 2
EndSplineSet
EndChar

StartChar: G
Encoding: 71 71 78
Width: 633
Flags: HW
TeX: 694 0
HStem: -19 86<331 374 273.5 385.5> 257 81<383 542 397 458> 627 86<319.5 393 319.5 414>
VStem: 53 122<326.5 372 322.5 383> 458 111<78 257 257 257>
AnchorPoint: "below" 369 0 basechar 0
AnchorPoint: "above" 369 713 basechar 0
LayerCount: 2
Fore
SplineSet
53 347 m 0
 53 419 62 533 136 619 c 0
 187 677 269 713 370 713 c 0
 416 713 472 708 535 674 c 0
 560 660 561 659 561 651 c 0
 561 641 551 590 548 577 c 0
 547 572 545 563 536 563 c 0
 531 563 530 564 523 569 c 0
 499 590 456 627 372 627 c 0
 175 627 175 397 175 347 c 0
 175 298 175 67 372 67 c 0
 376 67 416 67 458 78 c 1
 458 257 l 1
 396 257 l 2
 370 257 369 258 369 285 c 2
 369 310 l 2
 369 337 370 338 397 338 c 2
 542 338 l 2
 568 338 569 337 569 310 c 2
 569 58 l 2
 569 35 568 34 546 23 c 0
 469 -16 402 -19 369 -19 c 0
 293 -19 195 2 128 85 c 0
 53 178 53 306 53 347 c 0
EndSplineSet
EndChar

StartChar: H
Encoding: 72 72 79
Width: 677
Flags: HW
TeX: 694 0
HStem: 0 21<108 126 126 159 499 518 518 552> 320 81<203 474 203 474> 674 20<126 159 159 178 518 552 552 571>
VStem: 81 122<45 320 401 649 649 650> 474 122<44 320 320 320 401 650>
AnchorPoint: "below" 338 0 basechar 0
AnchorPoint: "above" 338 713 basechar 0
LayerCount: 2
Fore
SplineSet
81 45 m 2
 81 649 l 2
 81 685 91 694 126 694 c 2
 159 694 l 2
 197 694 203 681 203 650 c 2
 203 401 l 1
 474 401 l 1
 474 650 l 2
 474 684 483 694 518 694 c 2
 552 694 l 2
 590 694 596 681 596 650 c 2
 596 44 l 2
 596 10 587 0 552 0 c 2
 518 0 l 2
 480 0 474 13 474 44 c 2
 474 320 l 1
 203 320 l 1
 203 44 l 2
 203 10 194 0 159 0 c 2
 126 0 l 2
 90 0 81 10 81 45 c 2
EndSplineSet
EndChar

StartChar: I
Encoding: 73 73 80
Width: 283
Flags: HW
TeX: 694 0
HStem: 0 21<107 125 125 158> 674 20<125 158 158 177>
VStem: 80 122<45 649 649 650>
AnchorPoint: "ogonek" 141 0 basechar 0
AnchorPoint: "below" 141 0 basechar 0
AnchorPoint: "above" 141 713 basechar 0
LayerCount: 2
Fore
SplineSet
80 45 m 2
 80 649 l 2
 80 685 90 694 125 694 c 2
 158 694 l 2
 196 694 202 681 202 650 c 2
 202 44 l 2
 202 10 193 0 158 0 c 2
 125 0 l 2
 89 0 80 10 80 45 c 2
EndSplineSet
EndChar

StartChar: J
Encoding: 74 74 81
Width: 450
Flags: HW
TeX: 694 0
HStem: -19 79<175.5 212 165.5 252.5> 674 20<293 324 324 343>
VStem: 249 119<153 650>
AnchorPoint: "below" 204 0 basechar 0
AnchorPoint: "above" 308 713 basechar 0
LayerCount: 2
Fore
SplineSet
40 36 m 0
 40 41 50 96 52 104 c 0
 54 112 56 116 64 116 c 0
 69 116 71 114 77 106 c 0
 111 66 156 60 175 60 c 0
 249 60 249 135 249 153 c 2
 249 650 l 2
 249 684 258 694 293 694 c 2
 324 694 l 2
 362 694 368 681 368 650 c 2
 368 147 l 2
 368 42 302 -19 203 -19 c 0
 148 -19 103 -5 62 15 c 0
 45 24 40 26 40 36 c 0
EndSplineSet
EndChar

StartChar: K
Encoding: 75 75 82
Width: 662
Flags: HW
TeX: 694 0
HStem: 0 21<108 126 126 148 519 532 532 571> 674 20<126 148 148 167 530 567 567 574>
VStem: 81 111<45 223 361 649 649 650>
AnchorPoint: "below" 343 0 basechar 0
AnchorPoint: "above" 343 713 basechar 0
LayerCount: 2
Fore
SplineSet
81 45 m 2
 81 649 l 2
 81 685 91 694 126 694 c 2
 148 694 l 2
 186 694 192 681 192 650 c 2
 192 361 l 1
 478 673 l 2
 497 694 510 694 530 694 c 2
 567 694 l 2
 581 694 600 694 600 675 c 0
 600 668 597 665 588 655 c 2
 361 407 l 1
 605 27 l 1
 605 0 592 0 571 0 c 2
 532 0 l 2
 506 0 500 1 486 23 c 2
 289 329 l 1
 192 223 l 1
 192 44 l 2
 192 10 183 0 148 0 c 2
 126 0 l 2
 90 0 81 10 81 45 c 2
EndSplineSet
EndChar

StartChar: L
Encoding: 76 76 83
Width: 513
Flags: HW
TeX: 694 0
HStem: 0 91<405.5 429> 674 20<126 159 159 178>
VStem: 81 122<87 649 649 650 87 667>
AnchorPoint: "below" 277 0 basechar 0
AnchorPoint: "above" 277 713 basechar 0
LayerCount: 2
Fore
SplineSet
81 45 m 2
 81 649 l 2
 81 685 91 694 126 694 c 2
 159 694 l 2
 197 694 203 681 203 650 c 2
 203 87 l 1
 254 87 380 91 431 91 c 0
 473 91 473 68 473 45 c 0
 473 15 469 0 429 0 c 2
 126 0 l 2
 90 0 81 10 81 45 c 2
EndSplineSet
EndChar

StartChar: M
Encoding: 77 77 84
Width: 836
Flags: HW
TeX: 694 0
HStem: 0 21<108 126 126 141 675 694 694 710> 674 20<126 188 188 198 646 710 710 729>
VStem: 81 104<45 584> 650 104<44 584 575 584>
AnchorPoint: "below" 418 0 basechar 0
AnchorPoint: "above" 418 713 basechar 0
LayerCount: 2
Fore
SplineSet
81 45 m 2
 81 649 l 2
 81 685 91 694 126 694 c 2
 188 694 l 2
 208 694 234 694 247 655 c 2
 337 392 l 2
 352 347 363 312 381 256 c 0
 402 189 413 149 416 126 c 1
 417 126 l 1
 420 147 431 184 450 248 c 0
 465 296 477 333 490 371 c 2
 587 652 l 2
 595 676 601 694 646 694 c 2
 710 694 l 2
 748 694 754 681 754 650 c 2
 754 44 l 2
 754 10 745 0 710 0 c 2
 694 0 l 2
 656 0 650 13 650 44 c 2
 650 584 l 2
 650 566 579 349 575 339 c 2
 479 61 l 2
 467 25 455 19 416 19 c 0
 391 19 366 19 353 58 c 2
 263 322 l 2
 248 366 234 410 221 454 c 0
 210 491 190 553 186 584 c 1
 185 584 l 1
 185 44 l 2
 185 10 176 0 141 0 c 2
 126 0 l 2
 90 0 81 10 81 45 c 2
EndSplineSet
EndChar

StartChar: N
Encoding: 78 78 85
Width: 677
Flags: HW
TeX: 694 0
HStem: 0 21<108 126 126 141 461.5 479 479 552> 674 20<126 198 198 215.5 536 552 552 571>
VStem: 81 104<45 588> 492 104<106 650>
AnchorPoint: "below" 338 0 basechar 0
AnchorPoint: "above" 338 713 basechar 0
LayerCount: 2
Fore
SplineSet
81 45 m 2
 81 649 l 2
 81 685 91 694 126 694 c 2
 198 694 l 2
 233 694 247 687 261 654 c 2
 450 212 l 2
 471 162 479 145 491 106 c 1
 492 106 l 1
 492 650 l 2
 492 684 501 694 536 694 c 2
 552 694 l 2
 590 694 596 681 596 650 c 2
 596 44 l 2
 596 10 587 0 552 0 c 2
 479 0 l 2
 444 0 430 7 416 40 c 2
 227 482 l 2
 206 532 198 549 186 588 c 1
 185 588 l 1
 185 44 l 2
 185 10 176 0 141 0 c 2
 126 0 l 2
 90 0 81 10 81 45 c 2
EndSplineSet
EndChar

StartChar: O
Encoding: 79 79 86
Width: 697
Flags: HW
TeX: 694 0
HStem: -19 72<329 366.5 329 383> 643 70<327 363.5>
VStem: 53 122<318 382.5 318 408> 521 122<326.5 363.5 300 386.5>
AnchorPoint: "ogonek" 348 0 basechar 0
AnchorPoint: "below" 348 0 basechar 0
AnchorPoint: "above" 348 713 basechar 0
LayerCount: 2
Fore
SplineSet
53 342 m 0
 53 474 82 548 119 603 c 0
 168 674 253 713 348 713 c 0
 407 713 517 698 586 588 c 0
 641 500 643 385 643 342 c 0
 643 258 631 151 564 72 c 0
 505 2 418 -19 348 -19 c 0
 256 -19 180 16 135 68 c 0
 65 149 53 255 53 342 c 0
175 358 m 0
 175 278 180 216 205 157 c 0
 242 69 310 53 348 53 c 0
 385 53 453 68 491 156 c 0
 519 222 521 295 521 358 c 0
 521 415 520 492 487 556 c 0
 447 633 379 643 348 643 c 0
 306 643 248 626 212 561 c 0
 175 496 175 407 175 358 c 0
EndSplineSet
EndChar

StartChar: P
Encoding: 80 80 87
Width: 608
Flags: HW
TeX: 694 0
HStem: 0 21<108 126 126 159> 278 69<203 203 203 302 302 341> 619 75<200 200 200 302>
VStem: 81 122<45 278> 440 114<451 516.5>
AnchorPoint: "below" 296 0 basechar 0
AnchorPoint: "above" 296 713 basechar 0
LayerCount: 2
Fore
SplineSet
81 45 m 2
 81 649 l 2
 81 685 91 694 126 694 c 2
 332 694 l 2
 481 694 554 610 554 484 c 0
 554 323 437 278 341 278 c 2
 203 278 l 1
 203 44 l 2
 203 10 194 0 159 0 c 2
 126 0 l 2
 90 0 81 10 81 45 c 2
200 347 m 1
 302 347 l 2
 430 347 440 419 440 483 c 0
 440 550 428 619 302 619 c 2
 200 619 l 1
 200 347 l 1
EndSplineSet
EndChar

StartChar: Q
Encoding: 81 81 88
Width: 697
Flags: HW
TeX: 694 111
HStem: -111 21<489.5 505 505 565> -19 70<326.5 349 326.5 362> 643 70<320.5 376.5>
VStem: 53 119<311 379 311 408> 524 119<324.5 363.5 324.5 381>
AnchorPoint: "below" 348 -167 basechar 0
AnchorPoint: "above" 348 713 basechar 0
LayerCount: 2
Fore
SplineSet
53 342 m 0
 53 474 82 548 119 603 c 0
 168 674 253 713 348 713 c 0
 407 713 517 698 586 588 c 0
 641 500 643 385 643 342 c 0
 643 307 641 227 613 156 c 0
 589 95 555 55 520 32 c 1
 584 -62 l 2
 598 -84 598 -86 598 -90 c 0
 598 -111 579 -111 565 -111 c 2
 505 -111 l 2
 474 -111 474 -110 451 -74 c 0
 440 -56 426 -32 415 -13 c 1
 382 -19 376 -19 348 -19 c 0
 256 -19 180 16 135 68 c 0
 65 149 53 255 53 342 c 0
172 343 m 0
 172 279 175 209 203 149 c 0
 240 68 305 51 348 51 c 0
 350 51 372 51 372 55 c 0
 372 57 350 93 346 99 c 2
 322 138 l 2
 315 149 305 167 305 173 c 0
 305 194 325 194 339 194 c 2
 385 194 l 2
 405 194 408 194 417 182 c 0
 432 159 442 145 467 107 c 1
 524 173 524 289 524 343 c 0
 524 419 519 488 489 552 c 1
 460 611 405 643 348 643 c 0
 293 643 243 613 215 566 c 0
 175 497 172 415 172 343 c 0
EndSplineSet
EndChar

StartChar: R
Encoding: 82 82 89
Width: 613
Flags: HW
TeX: 694 0
HStem: 0 21<108 126 126 156 481.5 496 496 538> 315 64<200 305 200 310> 619 75<200 311 200 200>
VStem: 81 119<45 315 379 619> 446 114<468 531>
AnchorPoint: "below" 296 0 basechar 0
AnchorPoint: "above" 296 713 basechar 0
LayerCount: 2
Fore
SplineSet
81 45 m 2
 81 649 l 2
 81 685 91 694 126 694 c 2
 325 694 l 2
 487 694 560 610 560 500 c 0
 560 388 484 343 417 324 c 1
 567 37 l 2
 572 27 573 26 573 22 c 0
 573 0 551 0 538 0 c 2
 496 0 l 2
 467 0 464 3 453 24 c 2
 305 315 l 1
 200 315 l 1
 200 44 l 2
 200 10 191 0 156 0 c 2
 126 0 l 2
 90 0 81 10 81 45 c 2
200 379 m 1
 310 379 l 2
 429 379 446 437 446 499 c 0
 446 563 428 619 311 619 c 2
 200 619 l 1
 200 379 l 1
EndSplineSet
EndChar

StartChar: S
Encoding: 83 83 90
Width: 527
Flags: HW
TeX: 694 0
HStem: -19 93<246 306.5 246 336> 626 87<235 301>
VStem: 42 116 369 105<160 211 134 213>
AnchorPoint: "below" 263 0 basechar 0
AnchorPoint: "above" 265 713 basechar 0
LayerCount: 2
Fore
SplineSet
42 63 m 0
 42 73 52 124 55 137 c 0
 56 142 58 151 67 151 c 0
 70 151 72 151 83 141 c 0
 154 81 230 74 262 74 c 0
 351 74 369 136 369 184 c 0
 369 242 332 278 302 290 c 0
 294 293 258 302 237 308 c 0
 181 322 150 330 104 378 c 0
 99 383 53 432 53 512 c 0
 53 619 110 713 265 713 c 0
 341 713 384 693 418 673 c 0
 441 660 442 659 442 651 c 0
 442 641 432 590 429 577 c 0
 428 572 426 563 417 563 c 0
 412 563 411 564 405 570 c 0
 375 598 336 626 266 626 c 0
 204 626 158 598 158 527 c 0
 158 485 181 463 191 452 c 1
 208 436 221 432 282 416 c 0
 335 402 379 391 420 343 c 0
 470 284 474 227 474 195 c 0
 474 73 409 -19 263 -19 c 0
 204 -19 138 -5 71 36 c 0
 43 53 42 54 42 63 c 0
EndSplineSet
EndChar

StartChar: T
Encoding: 84 84 91
Width: 644
Flags: HW
TeX: 694 0
HStem: 0 21<288 306 306 339> 601 93
VStem: 261 122<45 601>
AnchorPoint: "below" 322 0 basechar 0
AnchorPoint: "above" 322 713 basechar 0
LayerCount: 2
Fore
SplineSet
34 643 m 0
 34 679 44 688 79 688 c 2
 565 688 l 2
 606 688 609 671 609 643 c 0
 609 605 598 598 563 598 c 0
 523 598 423 601 383 601 c 1
 383 44 l 2
 383 10 374 0 339 0 c 2
 306 0 l 2
 270 0 261 10 261 45 c 2
 261 601 l 1
 245 601 85 598 81 598 c 0
 46 598 34 604 34 643 c 0
EndSplineSet
EndChar

StartChar: U
Encoding: 85 85 92
Width: 656
Flags: HW
TeX: 694 0
HStem: -19 75<270.5 394 270.5 414.5> 674 20<126 159 159 178 508 531 531 550>
VStem: 81 122<228 649 649 650> 464 111<228 650>
AnchorPoint: "ogonek" 330 0 basechar 0
AnchorPoint: "below" 330 0 basechar 0
AnchorPoint: "above" 328 713 basechar 0
LayerCount: 2
Fore
SplineSet
81 228 m 2
 81 649 l 2
 81 685 91 694 126 694 c 2
 159 694 l 2
 197 694 203 681 203 650 c 2
 203 227 l 2
 203 170 210 56 331 56 c 0
 457 56 464 172 464 228 c 2
 464 650 l 2
 464 684 473 694 508 694 c 2
 531 694 l 2
 569 694 575 681 575 650 c 2
 575 228 l 2
 575 91 499 -19 330 -19 c 0
 162 -19 81 88 81 228 c 2
EndSplineSet
EndChar

StartChar: V
Encoding: 86 86 93
Width: 636
Flags: HW
TeX: 694 0
ItalicCorrection: 13
HStem: 0 21<276.5 287 287 348> 674 20<60 94 94 104 556 575 575 583>
VStem: 23 589<667.5 681.5>
AnchorPoint: "below" 318 0 basechar 0
AnchorPoint: "above" 317 713 basechar 0
LayerCount: 2
Fore
SplineSet
23 669 m 0
 23 694 44 694 60 694 c 2
 94 694 l 2
 114 694 139 694 152 655 c 2
 267 303 l 2
 275 280 288 235 298 200 c 1
 308 169 321 126 324 106 c 1
 325 106 l 1
 334 155 373 275 395 341 c 2
 498 654 l 2
 510 691 527 694 556 694 c 2
 575 694 l 2
 591 694 612 694 612 669 c 0
 612 666 612 664 607 650 c 2
 406 39 l 2
 393 0 367 0 348 0 c 2
 287 0 l 2
 266 0 242 0 229 40 c 2
 28 650 l 2
 23 664 23 666 23 669 c 0
EndSplineSet
EndChar

StartChar: W
Encoding: 87 87 94
Width: 900
Flags: HW
TeX: 694 0
ItalicCorrection: 13
HStem: 0 21<215 225 225 268 615 626 626 674> 674 20<59 80 80 89.5 432 475 475 484.5 824.5 845>
VStem: 20 859<667 681>
AnchorPoint: "below" 449 0 basechar 0
AnchorPoint: "above" 449 713 basechar 0
LayerCount: 2
Fore
SplineSet
20 668 m 0
 20 694 46 694 59 694 c 2
 80 694 l 2
 99 694 125 694 134 656 c 2
 217 304 l 2
 231 244 251 158 255 109 c 1
 256 109 l 1
 259 141 285 264 309 366 c 2
 377 654 l 2
 386 694 411 694 432 694 c 2
 475 694 l 2
 494 694 520 694 529 655 c 2
 608 322 l 2
 624 253 645 165 653 107 c 1
 654 107 l 1
 660 159 685 265 700 327 c 2
 778 656 l 2
 787 694 813 694 836 694 c 0
 854 694 879 694 879 668 c 0
 879 666 879 664 876 654 c 2
 728 39 l 2
 719 0 694 0 674 0 c 2
 626 0 l 2
 604 0 581 0 571 41 c 2
 494 365 l 2
 477 436 455 529 447 587 c 1
 446 587 l 1
 439 533 403 379 400 368 c 2
 323 43 l 2
 313 0 290 0 268 0 c 2
 225 0 l 2
 205 0 180 0 171 39 c 2
 23 654 l 2
 20 664 20 666 20 668 c 0
EndSplineSet
EndChar

StartChar: X
Encoding: 88 88 95
Width: 636
Flags: HW
TeX: 694 0
HStem: 0 21<57 65 65 113 501 514 514 570> 674 20<79 135 135 148 482 531 531 538>
VStem: 31 572<13.5 23>
AnchorPoint: "below" 317 0 basechar 0
AnchorPoint: "above" 317 713 basechar 0
LayerCount: 2
Fore
SplineSet
31 21 m 0
 31 25 31 28 39 40 c 2
 252 367 l 1
 54 654 l 2
 47 664 45 667 45 674 c 0
 45 694 64 694 79 694 c 2
 135 694 l 2
 161 694 167 692 179 673 c 2
 311 471 l 1
 439 676 l 2
 450 694 465 694 482 694 c 2
 531 694 l 2
 545 694 565 694 565 673 c 0
 565 668 563 666 557 656 c 2
 370 367 l 1
 603 27 l 1
 603 0 591 0 570 0 c 2
 514 0 l 2
 488 0 482 2 469 22 c 2
 311 274 l 1
 158 22 l 2
 145 0 135 0 113 0 c 2
 65 0 l 2
 49 0 31 0 31 21 c 0
EndSplineSet
EndChar

StartChar: Y
Encoding: 89 89 96
Width: 636
Flags: HW
TeX: 694 0
ItalicCorrection: 23
HStem: 0 21<284.5 302 302 333> 674 20<54 95 95 104 556 581 581 588.5>
VStem: 258 119<44 277>
AnchorPoint: "below" 317 0 basechar 0
AnchorPoint: "above" 317 713 basechar 0
LayerCount: 2
Fore
SplineSet
19 673 m 0
 19 694 40 694 54 694 c 2
 95 694 l 2
 113 694 143 694 165 658 c 2
 278 469 l 2
 304 425 314 408 326 380 c 1
 340 424 492 667 495 671 c 0
 515 694 540 694 556 694 c 2
 581 694 l 2
 596 694 616 694 616 673 c 0
 616 667 614 665 607 653 c 2
 377 277 l 1
 377 43 l 2
 377 5 363 0 333 0 c 2
 302 0 l 2
 267 0 258 10 258 44 c 2
 258 278 l 1
 25 657 l 2
 23 660 19 667 19 673 c 0
EndSplineSet
EndChar

StartChar: Z
Encoding: 90 90 97
Width: 580
Flags: HW
TeX: 694 0
HStem: 0 91<483 489> 610 84<111 158>
VStem: 53 480<30 54.5>
AnchorPoint: "below" 293 0 basechar 0
AnchorPoint: "above" 293 713 basechar 0
LayerCount: 2
Fore
SplineSet
53 45 m 0
 53 64 53 66 62 80 c 2
 386 613 l 1
 350 613 l 2
 274 613 196 610 120 610 c 0
 85 610 66 610 66 652 c 0
 66 693 88 694 111 694 c 2
 483 694 l 2
 513 694 527 688 527 651 c 0
 527 634 527 632 518 618 c 2
 195 87 l 1
 483 91 l 2
 518 91 533 89 533 45 c 0
 533 15 529 0 489 0 c 2
 97 0 l 2
 58 0 53 15 53 45 c 0
EndSplineSet
EndChar

StartChar: bracketleft
Encoding: 91 91 98
Width: 293
Flags: HW
TeX: 750 222
HStem: -222 64<185 268.051> 686 64<185 268.167>
LayerCount: 2
Fore
SplineSet
76 -177 m 2
 76 706 l 2
 76 739 88 750 119 750 c 2
 228 750 l 2
 263 750 270 730 270 718 c 0
 270 691 248 686 227 686 c 2
 185 686 l 1
 185 -158 l 1
 229 -158 l 2
 241 -158 270 -159 270 -190 c 0
 270 -200 265 -222 228 -222 c 2
 118 -222 l 2
 76 -222 76 -197 76 -177 c 2
EndSplineSet
EndChar

StartChar: backslash
Encoding: 92 92 99
Width: 475
Flags: HW
TeX: 750 222
DStem2: 120 713 60 689 0.317866 -0.948136<-25.6416 951.019>
LayerCount: 2
Fore
SplineSet
53 718 m 0
 53 737 69 749 84 749 c 0
 107 749 114 730 120 713 c 2
 400 -124 l 2
 407 -146 420 -179 420 -190 c 0
 420 -208 405 -221 389 -221 c 0
 363 -221 356 -194 351 -179 c 2
 60 689 l 2
 54 706 53 709 53 718 c 0
EndSplineSet
EndChar

StartChar: bracketright
Encoding: 93 93 100
Width: 293
Flags: HW
TeX: 750 222
HStem: -222 64<22.6472 106> 686 64<22.751 106>
LayerCount: 2
Fore
SplineSet
21 -190 m 0
 21 -162 45 -158 64 -158 c 2
 106 -158 l 1
 106 686 l 1
 64 686 l 2
 53 686 21 687 21 718 c 0
 21 729 26 750 63 750 c 2
 172 750 l 2
 214 750 215 724 215 705 c 2
 215 -178 l 2
 215 -202 211 -222 172 -222 c 2
 62 -222 l 2
 25 -222 21 -200 21 -190 c 0
EndSplineSet
EndChar

StartChar: asciicircum
Encoding: 94 94 101
Width: 581
Flags: HW
TeX: 694 0
HStem: 472 148
VStem: 144 291<473 492>
LayerCount: 2
Fore
SplineSet
144 484 m 0
 144 492 172 526 238 607 c 0
 249 620 256 620 267 620 c 2
 314 620 l 2
 326 620 331 619 343 605 c 0
 433 493 435 493 435 484 c 0
 435 473 421 472 409 472 c 2
 397 472 l 2
 376 472 380 473 290 554 c 1
 202 474 204 472 182 472 c 2
 166 472 l 2
 155 472 144 473 144 484 c 0
EndSplineSet
EndChar

StartChar: underscore
Encoding: 95 95 102
Width: 739
Flags: HW
TeX: 0 310
HStem: -310 70<82.7178 655.217>
LayerCount: 2
Fore
SplineSet
80 -275 m 0
 80 -266 84 -240 124 -240 c 2
 615 -240 l 2
 654 -240 658 -266 658 -276 c 0
 658 -289 651 -310 613 -310 c 2
 123 -310 l 2
 84 -310 80 -286 80 -275 c 0
EndSplineSet
EndChar

StartChar: quoteleft
Encoding: 8216 8216 103
Width: 264
Flags: HW
TeX: 694 0
HStem: 477 217
VStem: 78 106<477.018 582.943> 122 60<622.558 693.251>
LayerCount: 2
Fore
SplineSet
78 509 m 2xc0
 78 565 l 2xc0
 78 576 81 583 122 668 c 0
 135 693 136 694 158 694 c 2
 160 694 l 2
 173 694 182 692 182 683 c 0xa0
 182 671 169 625 156 583 c 1
 163 583 l 2
 175 583 184 582 184 560 c 2
 184 503 l 2
 184 487 184 477 161 477 c 2
 101 477 l 2
 78 477 78 483 78 509 c 2xc0
EndSplineSet
EndChar

StartChar: a
Encoding: 97 97 104
Width: 452
Flags: HW
TeX: 472 0
HStem: -10 64<178 193> 256 36 428 59<201 231>
VStem: 26 105<113 185 113 206> 287 111<155 256 256 256 310 330 330 331>
AnchorPoint: "ogonek" 344 0 basechar 0
AnchorPoint: "affricate-below" 452 -167 basechar 0
AnchorPoint: "affricate-above" 452 694 basechar 0
AnchorPoint: "below" 224 0 basechar 0
AnchorPoint: "above" 224 487 basechar 0
LayerCount: 2
Fore
SplineSet
26 132 m 0
 26 280 233 289 276 291 c 0
 286 292 287 293 287 310 c 2
 287 330 l 2
 287 428 242 428 220 428 c 0
 182 428 136 418 95 378 c 0
 85 369 84 368 79 368 c 0
 69 368 68 374 66 397 c 0
 65 405 63 426 63 433 c 0
 63 444 68 446 87 456 c 0
 128 476 168 487 224 487 c 0
 345 487 398 424 398 331 c 2
 398 44 l 2
 398 10 389 0 354 0 c 2
 334 0 l 2
 296 0 290 13 290 44 c 2
 290 69 l 1
 274 40 229 -10 157 -10 c 0
 79 -10 26 60 26 132 c 0
131 134 m 0
 131 92 158 54 198 54 c 0
 215 54 287 64 287 155 c 2
 287 256 l 1
 239 253 131 236 131 134 c 0
EndSplineSet
EndChar

StartChar: b
Encoding: 98 98 105
Width: 483
Flags: HW
TeX: 694 0
HStem: -10 64<237.5 287> 418 64<250.5 292> 674 20<101 120 120 139>
VStem: 56 111<94 361 94 649> 339 111<222.5 268.5>
AnchorPoint: "affricate-below" 483 -167 basechar 0
AnchorPoint: "affricate-above" 483 694 basechar 0
AnchorPoint: "below" 252 0 basechar 0
AnchorPoint: "above" 252 694 basechar 0
LayerCount: 2
Fore
SplineSet
56 45 m 2
 56 649 l 2
 56 685 66 694 101 694 c 2
 120 694 l 2
 158 694 164 681 164 650 c 2
 164 427 l 1
 180 446 220 482 281 482 c 0
 424 482 450 332 450 237 c 0
 450 208 450 128 410 68 c 0
 371 9 312 -10 262 -10 c 0
 213 -10 182 16 167 35 c 1
 166 0 141 0 123 0 c 2
 101 0 l 2
 65 0 56 10 56 45 c 2
167 94 m 1
 175 81 197 54 235 54 c 0
 339 54 339 175 339 238 c 0
 339 299 339 418 245 418 c 0
 231 418 211 414 193 403 c 1
 167 385 167 379 167 361 c 2
 167 94 l 1
EndSplineSet
EndChar

StartChar: c
Encoding: 99 99 106
Width: 422
Flags: HW
TeX: 472 0
HStem: -10 70<212 247> 417 70<195.5 270.5>
VStem: 32 111<221.5 274.5 212 316>
AnchorPoint: "affricate-below" 422 -167 basechar 0
AnchorPoint: "affricate-above" 422 694 basechar 0
AnchorPoint: "below" 238 0 basechar 0
AnchorPoint: "above" 242 487 basechar 0
LayerCount: 2
Fore
SplineSet
32 237 m 0
 32 395 104 487 242 487 c 0
 306 487 333 475 372 452 c 0
 386 444 389 443 389 434 c 0
 389 431 383 402 382 397 c 0
 378 374 377 369 368 369 c 0
 365 369 363 369 354 378 c 1
 322 403 298 417 243 417 c 0
 148 417 143 311 143 238 c 0
 143 186 143 60 240 60 c 0
 314 60 353 104 366 117 c 1
 372 125 374 126 379 126 c 0
 389 126 390 121 392 98 c 0
 393 90 395 69 395 62 c 0
 395 41 336 12 335 11 c 0
 295 -8 256 -10 238 -10 c 0
 186 -10 125 6 85 54 c 0
 32 119 32 206 32 237 c 0
EndSplineSet
EndChar

StartChar: d
Encoding: 100 100 107
Width: 483
Flags: HW
TeX: 694 0
HStem: -10 64<190 241.5> 418 64<201.5 240.5 201.5 268> 674 20<362 382 382 401>
VStem: 32 111<222.5 252> 315 111<28.5 44 101 384 384 384>
AnchorPoint: "affricate-below" 483 -167 basechar 0
AnchorPoint: "affricate-above" 483 694 basechar 0
AnchorPoint: "below" 229 0 basechar 0
AnchorPoint: "above" 229 694 basechar 0
LayerCount: 2
Fore
SplineSet
32 236 m 0
 32 268 32 349 75 412 c 0
 120 477 190 482 213 482 c 0
 268 482 303 451 318 433 c 1
 318 650 l 2
 318 684 327 694 362 694 c 2
 382 694 l 2
 420 694 426 681 426 650 c 2
 426 44 l 2
 426 10 417 0 382 0 c 2
 359 0 l 2
 321 0 315 13 315 44 c 1
 312 39 275 -10 208 -10 c 0
 172 -10 110 0 67 71 c 0
 32 130 32 209 32 236 c 0
143 235 m 0
 143 173 143 54 237 54 c 0
 273 54 299 76 315 101 c 1
 315 384 l 1
 313 386 289 418 247 418 c 0
 143 418 143 297 143 235 c 0
EndSplineSet
EndChar

StartChar: e
Encoding: 101 101 108
Width: 438
Flags: HW
TeX: 472 0
HStem: -10 64<194 257.5 188 261.5> 232 47<130 325 130 367 129 325> 423 64<197.5 275.5>
VStem: 26 103<217 232 217 338> 325 86<279 279>
AnchorPoint: "ogonek" 243 0 basechar 0
AnchorPoint: "affricate-below" 438 -167 basechar 0
AnchorPoint: "affricate-above" 438 694 basechar 0
AnchorPoint: "below" 243 0 basechar 0
AnchorPoint: "above" 230 487 basechar 0
LayerCount: 2
Fore
SplineSet
26 239 m 0
 26 437 143 487 231 487 c 0
 347 487 411 412 411 275 c 0
 411 239 399 232 367 232 c 2
 129 232 l 1
 129 202 129 54 247 54 c 0
 268 54 329 60 376 116 c 0
 381 122 384 125 389 125 c 0
 399 125 399 120 402 101 c 0
 403 92 405 73 405 65 c 0
 405 46 361 21 342 12 c 0
 311 -2 280 -10 243 -10 c 0
 145 -10 26 44 26 239 c 0
130 279 m 1
 325 279 l 1
 323 330 319 423 232 423 c 0
 163 423 134 351 130 279 c 1
EndSplineSet
EndChar

StartChar: f
Encoding: 102 102 109
Width: 290
Flags: HW
TeX: 694 0
ItalicCorrection: 65
HStem: 0 21<105 123 123 142> 408 64<66.5 78 66.5 78 186 227 186 186> 640 64<213.5 248.5 189 253>
VStem: 78 108<45 408>
AnchorPoint: "affricate-below" 290 -167 basechar 0
AnchorPoint: "affricate-above" 290 694 basechar 0
AnchorPoint: "above" 244 694 basechar 0
AnchorPoint: "below" 132 0 basechar 0
LayerCount: 2
Fore
SplineSet
25 440 m 0
 25 472 55 472 78 472 c 1
 78 549 l 2
 78 645 134 704 244 704 c 0
 253 704 274 704 300 699 c 0
 328 693 329 692 329 668 c 2
 329 640 l 2
 329 624 329 615 318 615 c 0
 314 615 312 616 305 621 c 0
 283 637 262 640 244 640 c 0
 183 640 183 598 183 574 c 2
 183 472 l 1
 227 472 l 2
 240 472 271 472 271 440 c 0
 271 408 240 408 227 408 c 2
 186 408 l 1
 186 44 l 2
 186 10 177 0 142 0 c 2
 123 0 l 2
 87 0 78 10 78 45 c 2
 78 408 l 1
 54 408 25 408 25 440 c 0
EndSplineSet
EndChar

StartChar: g
Encoding: 103 103 110
Width: 483
Flags: HW
TeX: 472 166
HStem: -187 64<216.5 262.5 198 305.5> 21 64<201.5 224> 418 64<204 238.5 200 268.5>
VStem: 32 111<225 261> 315 111<0 27 27 93 93 93 248 254>
AnchorPoint: "affricate-below" 483 -167 basechar 0
AnchorPoint: "affricate-above" 483 694 basechar 0
AnchorPoint: "below" 233 -167 basechar 0
AnchorPoint: "above" 229 487 basechar 0
LayerCount: 2
Fore
SplineSet
32 238 m 0
 32 284 37 353 76 409 c 0
 116 467 179 482 221 482 c 0
 256 482 290 469 318 424 c 1
 318 465 318 482 362 482 c 2
 382 482 l 2
 420 482 426 469 426 438 c 2
 426 27 l 2
 426 -82 378 -187 233 -187 c 0
 200 -187 143 -183 82 -154 c 0
 67 -146 66 -145 66 -124 c 2
 66 -101 l 2
 66 -86 66 -75 77 -75 c 0
 80 -75 82 -75 90 -82 c 1
 119 -100 165 -123 231 -123 c 0
 294 -123 315 -72 315 0 c 2
 315 93 l 1
 314 93 l 1
 286 22 234 21 214 21 c 0
 189 21 119 27 75 84 c 0
 33 139 32 207 32 238 c 0
143 238 m 0
 143 212 143 85 236 85 c 0
 286 85 314 134 315 248 c 0
 315 260 315 262 318 272 c 1
 318 335 l 2
 318 377 290 418 247 418 c 0
 161 418 143 313 143 238 c 0
EndSplineSet
EndChar

StartChar: h
Encoding: 104 104 111
Width: 483
Flags: HW
TeX: 694 0
HStem: 0 21<81 99 99 121 342 361 361 384> 418 64<260 284> 674 20<99 118 118 137>
VStem: 54 111<45 283> 317 111<44 338 338 342>
AnchorPoint: "affricate-below" 483 -167 basechar 0
AnchorPoint: "affricate-above" 483 694 basechar 0
AnchorPoint: "below" 241 0 basechar 0
AnchorPoint: "above" 241 694 basechar 0
LayerCount: 2
Fore
SplineSet
54 45 m 2
 54 649 l 2
 54 685 64 694 99 694 c 2
 118 694 l 2
 156 694 162 681 162 650 c 2
 162 387 l 1
 163 387 l 1
 180 424 220 482 300 482 c 0
 403 482 428 422 428 342 c 2
 428 44 l 2
 428 10 419 0 384 0 c 2
 361 0 l 2
 323 0 317 13 317 44 c 2
 317 338 l 2
 317 394 305 418 263 418 c 0
 216 418 165 374 165 283 c 2
 165 44 l 2
 165 10 156 0 121 0 c 2
 99 0 l 2
 63 0 54 10 54 45 c 2
EndSplineSet
EndChar

StartChar: i
Encoding: 105 105 112
Width: 219
Flags: HW
TeX: 694 0
HStem: 0 21<82 100 100 119> 452 20<100 119 119 138> 573 122<72.5 125 92 125>
VStem: 55 108<45 427 427 428>
AnchorPoint: "above" 109 675 basechar 0
AnchorPoint: "ogonek" 109 0 basechar 0
AnchorPoint: "affricate-below" 219 -167 basechar 0
AnchorPoint: "affricate-above" 219 694 basechar 0
AnchorPoint: "below" 109 0 basechar 0
LayerCount: 2
Fore
SplineSet
48 615 m 2
 48 653 l 2
 48 687 59 695 92 695 c 2
 125 695 l 2
 160 695 170 686 170 648 c 2
 170 620 l 2
 170 581 159 573 125 573 c 2
 92 573 l 2
 53 573 48 587 48 615 c 2
EndSplineSet
Refer: 32 305 S 1 0 0 1 0 0 3
EndChar

StartChar: j
Encoding: 106 106 113
Width: 245
Flags: HW
TeX: 694 166
HStem: -177 73<37 53.5 13 100.5> 452 20<126 146 146 165> 573 122<93 146 112 146>
VStem: 82 108<-41 -25 -25 428>
AnchorPoint: "affricate-below" 245 -167 basechar 0
AnchorPoint: "affricate-above" 245 694 basechar 0
AnchorPoint: "below" 93 -167 basechar 0
LayerCount: 2
Fore
SplineSet
-62 -136 m 0
 -62 -132 -57 -114 -55 -106 c 0
 -52 -91 -50 -84 -41 -84 c 0
 -39 -84 -38 -84 -27 -90 c 0
 -18 -96 1 -104 25 -104 c 0
 82 -104 82 -66 82 -41 c 2
 82 428 l 2
 82 462 91 472 126 472 c 2
 146 472 l 2
 184 472 190 459 190 428 c 2
 190 -25 l 2
 190 -127 139 -177 62 -177 c 0
 12 -177 -62 -154 -62 -136 c 0
68 617 m 2
 68 651 l 2
 68 685 77 695 112 695 c 2
 146 695 l 2
 184 695 190 682 190 651 c 2
 190 617 l 2
 190 583 181 573 146 573 c 2
 112 573 l 2
 74 573 68 586 68 617 c 2
EndSplineSet
EndChar

StartChar: k
Encoding: 107 107 114
Width: 456
Flags: HW
TeX: 694 0
HStem: 0 21<88 106 106 112 354 362 362 390> 674 20<106 115 115 134>
VStem: 61 98<305 649 649 650 305 667>
AnchorPoint: "affricate-below" 456 -167 basechar 0
AnchorPoint: "affricate-above" 456 694 basechar 0
AnchorPoint: "below" 242 0 basechar 0
AnchorPoint: "above" 242 694 basechar 0
LayerCount: 2
Fore
SplineSet
61 45 m 2
 61 649 l 2
 61 685 71 694 106 694 c 2
 115 694 l 2
 153 694 159 681 159 650 c 2
 159 305 l 1
 293 452 l 2
 311 472 323 472 344 472 c 2
 377 472 l 2
 391 472 410 472 410 453 c 0
 410 446 407 443 398 433 c 2
 262 285 l 1
 417 37 l 2
 424 27 424 25 424 21 c 0
 424 0 404 0 390 0 c 2
 362 0 l 2
 346 0 331 0 321 15 c 0
 279 81 238 146 198 213 c 1
 156 169 l 1
 156 44 l 2
 156 10 147 0 112 0 c 2
 106 0 l 2
 70 0 61 10 61 45 c 2
EndSplineSet
EndChar

StartChar: l
Encoding: 108 108 115
Width: 219
Flags: HW
TeX: 694 0
HStem: 0 21<82 100 100 119> 674 20<100 119 119 138>
VStem: 55 108<45 649 649 650>
AnchorPoint: "affricate-below" 219 -167 basechar 0
AnchorPoint: "affricate-above" 219 694 basechar 0
AnchorPoint: "below" 109 0 basechar 0
AnchorPoint: "above" 109 694 basechar 0
LayerCount: 2
Fore
SplineSet
55 45 m 2
 55 649 l 2
 55 685 65 694 100 694 c 2
 119 694 l 2
 157 694 163 681 163 650 c 2
 163 44 l 2
 163 10 154 0 119 0 c 2
 100 0 l 2
 64 0 55 10 55 45 c 2
EndSplineSet
EndChar

StartChar: m
Encoding: 109 109 116
Width: 747
Flags: HW
TeX: 472 0
HStem: 0 21<81 99 99 121 345 363 363 385 609 627 627 649> 418 60
VStem: 54 111<45 283> 318 111<45 283> 582 111<45 338 338 342>
CounterMasks: 1 38
AnchorPoint: "affricate-below" 747 -167 basechar 0
AnchorPoint: "affricate-above" 747 694 basechar 0
AnchorPoint: "below" 374 0 basechar 0
AnchorPoint: "above" 374 487 basechar 0
LayerCount: 2
Fore
SplineSet
54 45 m 2
 54 433 l 2
 54 469 64 478 99 478 c 2
 115 478 l 2
 153 478 159 465 159 434 c 2
 159 381 l 1
 160 380 l 1
 173 411 211 482 300 482 c 0
 345 482 413 473 426 385 c 1
 451 438 494 482 564 482 c 0
 663 482 693 429 693 342 c 2
 693 44 l 2
 693 10 684 0 649 0 c 2
 627 0 l 2
 591 0 582 10 582 45 c 2
 582 338 l 2
 582 393 570 418 528 418 c 0
 479 418 429 373 429 283 c 2
 429 44 l 2
 429 10 420 0 385 0 c 2
 363 0 l 2
 327 0 318 10 318 45 c 2
 318 338 l 2
 318 393 306 418 264 418 c 0
 215 418 165 373 165 283 c 2
 165 44 l 2
 165 10 156 0 121 0 c 2
 99 0 l 2
 63 0 54 10 54 45 c 2
EndSplineSet
EndChar

StartChar: n
Encoding: 110 110 117
Width: 483
Flags: HW
TeX: 472 0
HStem: 0 21<81 99 99 121 342 361 361 384> 418 64<263 284>
VStem: 54 111<45 283> 317 111<44 338 338 342>
AnchorPoint: "affricate-below" 483 -167 basechar 0
AnchorPoint: "affricate-above" 483 694 basechar 0
AnchorPoint: "below" 241 0 basechar 0
AnchorPoint: "above" 241 487 basechar 0
LayerCount: 2
Fore
SplineSet
54 45 m 2
 54 433 l 2
 54 469 64 478 99 478 c 2
 115 478 l 2
 153 478 159 465 159 434 c 2
 159 380 l 1
 160 380 l 1
 185 435 226 482 300 482 c 0
 403 482 428 422 428 342 c 2
 428 44 l 2
 428 10 419 0 384 0 c 2
 361 0 l 2
 323 0 317 13 317 44 c 2
 317 338 l 2
 317 394 305 418 263 418 c 0
 216 418 165 374 165 283 c 2
 165 44 l 2
 165 10 156 0 121 0 c 2
 99 0 l 2
 63 0 54 10 54 45 c 2
EndSplineSet
EndChar

StartChar: o
Encoding: 111 111 118
Width: 475
Flags: HW
TeX: 472 0
HStem: -10 70<201.5 259> 423 64<209.5 262.5 209.5 287>
VStem: 26 111<210.5 263> 337 111<212 255.5 212 277>
AnchorPoint: "ogonek" 237 0 basechar 0
AnchorPoint: "affricate-below" 475 -167 basechar 0
AnchorPoint: "affricate-above" 475 694 basechar 0
AnchorPoint: "below" 237 0 basechar 0
AnchorPoint: "above" 237 487 basechar 0
LayerCount: 2
Fore
SplineSet
26 232 m 0
 26 294 36 361 77 415 c 0
 117 469 182 487 237 487 c 0
 288 487 353 472 396 417 c 0
 443 358 448 279 448 232 c 0
 448 192 445 111 392 52 c 0
 347 1 281 -10 237 -10 c 0
 166 -10 110 17 79 54 c 0
 33 110 26 178 26 232 c 0
137 244 m 0
 137 177 137 60 237 60 c 0
 337 60 337 177 337 244 c 0
 337 310 337 423 237 423 c 0
 137 423 137 311 137 244 c 0
EndSplineSet
EndChar

StartChar: p
Encoding: 112 112 119
Width: 483
Flags: HW
TeX: 472 166
HStem: -167 21<83 101 101 123> -10 64<248.5 287 213.5 291.5> 412 70<262 291.5>
VStem: 56 111<-122 35 93 375> 339 111<222 251>
AnchorPoint: "affricate-below" 483 -167 basechar 0
AnchorPoint: "affricate-above" 483 694 basechar 0
AnchorPoint: "below" 252 -167 basechar 0
AnchorPoint: "above" 252 487 basechar 0
LayerCount: 2
Fore
SplineSet
56 -122 m 2
 56 427 l 2
 56 463 66 472 101 472 c 2
 120 472 l 2
 164 472 164 452 164 424 c 1
 194 457 236 482 288 482 c 0
 422 482 450 339 450 238 c 0
 450 184 445 123 409 66 c 0
 377 17 320 -10 263 -10 c 0
 234 -10 203 -4 167 35 c 1
 167 -123 l 2
 167 -157 158 -167 123 -167 c 2
 101 -167 l 2
 65 -167 56 -157 56 -122 c 2
167 93 m 1
 169 90 192 54 235 54 c 0
 339 54 339 208 339 236 c 0
 339 266 339 412 244 412 c 0
 214 412 186 397 167 375 c 1
 167 93 l 1
EndSplineSet
EndChar

StartChar: q
Encoding: 113 113 120
Width: 483
Flags: HW
TeX: 472 166
HStem: -167 21<340 359 359 382> -10 64<201.5 229.5> 412 70<204 234 204 268>
VStem: 32 111<188.5 248 188.5 259> 318 108<109 330 330 350.5 420 438>
AnchorPoint: "affricate-below" 483 -167 basechar 0
AnchorPoint: "affricate-above" 483 694 basechar 0
AnchorPoint: "below" 229 -167 basechar 0
AnchorPoint: "above" 229 487 basechar 0
LayerCount: 2
Fore
SplineSet
32 235 m 0
 32 283 36 344 69 400 c 0
 114 476 191 482 217 482 c 0
 251 482 289 470 318 420 c 1
 318 438 l 2
 318 472 327 482 362 482 c 2
 382 482 l 2
 420 482 426 469 426 438 c 2
 426 -123 l 2
 426 -157 417 -167 382 -167 c 2
 359 -167 l 2
 321 -167 315 -154 315 -123 c 2
 315 43 l 1
 285 4 248 -10 211 -10 c 0
 62 -10 32 136 32 235 c 0
143 234 m 0
 143 143 165 54 238 54 c 0
 278 54 305 83 318 109 c 1
 318 330 l 2
 318 371 290 412 246 412 c 0
 143 412 143 262 143 234 c 0
EndSplineSet
EndChar

StartChar: r
Encoding: 114 114 121
Width: 320
Flags: HW
TeX: 472 0
ItalicCorrection: 13
HStem: 0 21<83 101 101 120> 460 18
VStem: 56 108<45 246>
AnchorPoint: "affricate-below" 320 -167 basechar 0
AnchorPoint: "affricate-above" 320 694 basechar 0
AnchorPoint: "below" 110 0 basechar 0
AnchorPoint: "above" 186 487 basechar 0
LayerCount: 2
Fore
SplineSet
56 45 m 2
 56 433 l 2
 56 469 66 478 101 478 c 2
 115 478 l 2
 153 478 159 465 159 434 c 2
 159 368 l 1
 160 368 l 1
 189 452 247 482 291 482 c 0
 307 482 307 477 307 456 c 2
 307 427 l 2
 307 403 306 402 289 401 c 0
 220 395 164 338 164 246 c 2
 164 44 l 2
 164 10 155 0 120 0 c 2
 101 0 l 2
 65 0 56 10 56 45 c 2
EndSplineSet
EndChar

StartChar: s
Encoding: 115 115 122
Width: 364
Flags: HW
TeX: 472 0
HStem: -10 69<181.5 199.5 171 239.5> 425 62<162 212.5>
VStem: 26 92 256 86<93.5 152>
AnchorPoint: "affricate-below" 364 -167 basechar 0
AnchorPoint: "affricate-above" 364 694 basechar 0
AnchorPoint: "below" 188 0 basechar 0
AnchorPoint: "above" 187 487 basechar 0
LayerCount: 2
Fore
SplineSet
26 50 m 0
 26 54 35 103 37 109 c 0
 37 112 39 121 48 121 c 0
 52 121 54 121 64 111 c 0
 108 67 156 59 186 59 c 0
 213 59 256 63 256 124 c 0
 256 180 213 189 174 198 c 0
 140 205 32 229 32 346 c 0
 32 473 128 487 187 487 c 0
 242 487 274 476 305 460 c 0
 325 450 326 449 326 441 c 0
 326 437 321 410 319 404 c 0
 315 382 314 377 305 377 c 0
 301 377 299 378 294 382 c 0
 277 397 244 425 181 425 c 0
 143 425 118 411 118 366 c 0
 118 315 155 307 199 297 c 0
 238 289 270 282 305 243 c 0
 330 214 342 178 342 140 c 0
 342 42 291 -10 188 -10 c 0
 175 -10 138 -10 91 7 c 0
 75 13 26 31 26 50 c 0
EndSplineSet
EndChar

StartChar: t
Encoding: 116 116 123
Width: 345
Flags: HW
TeX: 607 0
HStem: -10 70<132 231.5> 408 64<55.5 82 63 79 184 258> 587 20<127 140 140 159>
VStem: 79 105<121 139 139 408>
AnchorPoint: "affricate-below" 345 -167 basechar 0
AnchorPoint: "affricate-above" 345 694 basechar 0
AnchorPoint: "below" 146 0 basechar 0
AnchorPoint: "above" 132 607 basechar 0
LayerCount: 2
Fore
SplineSet
18 440 m 0
 18 472 50 472 63 472 c 2
 82 472 l 1
 82 562 l 2
 82 598 92 607 127 607 c 2
 140 607 l 2
 178 607 184 594 184 563 c 2
 184 472 l 1
 258 472 l 2
 271 472 302 472 302 440 c 0
 302 408 271 408 258 408 c 2
 184 408 l 1
 184 139 l 2
 184 76 198 60 218 60 c 0
 245 60 270 75 281 88 c 1
 288 98 291 100 296 100 c 0
 304 100 306 96 311 79 c 0
 312 74 318 54 318 50 c 0
 318 36 248 -10 167 -10 c 0
 97 -10 79 54 79 121 c 2
 79 408 l 1
 62 408 l 2
 49 408 18 408 18 440 c 0
EndSplineSet
EndChar

StartChar: u
Encoding: 117 117 124
Width: 483
Flags: HW
TeX: 472 0
HStem: -10 53<199 210> 452 20<99 121 121 140 361 384 384 403>
VStem: 54 111<129 427 427 428> 317 111<181 428>
AnchorPoint: "ogonek" 374 0 basechar 0
AnchorPoint: "affricate-below" 483 -167 basechar 0
AnchorPoint: "affricate-above" 483 694 basechar 0
AnchorPoint: "below" 241 0 basechar 0
AnchorPoint: "above" 241 487 basechar 0
LayerCount: 2
Fore
SplineSet
54 129 m 2
 54 427 l 2
 54 463 64 472 99 472 c 2
 121 472 l 2
 159 472 165 459 165 428 c 2
 165 122 l 2
 165 62 173 43 225 43 c 0
 292 43 317 116 317 181 c 2
 317 428 l 2
 317 462 326 472 361 472 c 2
 384 472 l 2
 422 472 428 459 428 428 c 2
 428 44 l 2
 428 10 419 0 384 0 c 2
 364 0 l 2
 326 0 320 13 320 44 c 2
 320 75 l 1
 282 -10 220 -10 200 -10 c 0
 102 -10 54 27 54 129 c 2
EndSplineSet
EndChar

StartChar: v
Encoding: 118 118 125
Width: 430
Flags: HW
TeX: 472 0
ItalicCorrection: 13
HStem: 0 21<180.5 191 191 239> 452 20<59 71 71 90 362 371 371 377>
VStem: 21 388<447 447>
AnchorPoint: "affricate-below" 430 -167 basechar 0
AnchorPoint: "affricate-above" 430 694 basechar 0
AnchorPoint: "below" 215 0 basechar 0
AnchorPoint: "above" 214 487 basechar 0
LayerCount: 2
Fore
SplineSet
21 447 m 1
 25 472 42 472 59 472 c 2
 71 472 l 2
 109 472 118 459 126 432 c 2
 216 111 l 1
 306 431 l 2
 317 469 335 472 362 472 c 2
 371 472 l 2
 383 472 409 472 409 447 c 0
 409 441 407 436 406 432 c 2
 295 39 l 2
 284 0 260 0 239 0 c 2
 191 0 l 2
 170 0 146 0 135 39 c 2
 21 447 l 1
EndSplineSet
EndChar

StartChar: w
Encoding: 119 119 126
Width: 641
Flags: HW
TeX: 472 0
ItalicCorrection: 13
HStem: 0 21<160.5 170 170 189 414.5 423 423 471> 452 20<59 70 70 92 298 324.5 565.5 587>
VStem: 20 601<445 459>
AnchorPoint: "affricate-below" 641 -167 basechar 0
AnchorPoint: "affricate-above" 641 694 basechar 0
AnchorPoint: "below" 320 0 basechar 0
AnchorPoint: "above" 320 487 basechar 0
LayerCount: 2
Fore
SplineSet
20 446 m 0
 20 472 46 472 59 472 c 2
 70 472 l 2
 114 472 118 453 124 429 c 2
 182 183 l 2
 190 150 191 147 195 115 c 1
 196 115 l 1
 200 145 207 172 215 207 c 2
 267 427 l 2
 273 452 278 472 318 472 c 0
 331 472 359 472 368 433 c 2
 444 113 l 1
 520 433 l 2
 529 472 553 472 578 472 c 0
 596 472 621 472 621 446 c 0
 621 441 619 435 618 430 c 2
 525 39 l 2
 516 0 490 0 471 0 c 2
 423 0 l 2
 406 0 385 0 373 24 c 0
 370 31 311 272 305 354 c 1
 305 280 240 27 238 23 c 0
 226 0 206 0 189 0 c 2
 170 0 l 2
 151 0 125 0 116 39 c 2
 24 428 l 2
 21 441 20 444 20 446 c 0
EndSplineSet
EndChar

StartChar: x
Encoding: 120 120 127
Width: 430
Flags: HW
TeX: 472 0
HStem: 0 21<44.5 52 52 76 339 353 353 377> 452 20<58 82 82 97.5 338 362 362 369>
VStem: 19 392<10 21.5>
AnchorPoint: "affricate-below" 430 -167 basechar 0
AnchorPoint: "affricate-above" 430 694 basechar 0
AnchorPoint: "below" 215 0 basechar 0
AnchorPoint: "above" 215 487 basechar 0
LayerCount: 2
Fore
SplineSet
19 20 m 0
 19 23 19 29 27 40 c 2
 169 244 l 1
 33 433 l 2
 27 442 25 447 25 452 c 0
 25 472 44 472 58 472 c 2
 82 472 l 2
 113 472 116 467 127 451 c 2
 212 326 l 1
 293 450 l 2
 306 469 311 472 338 472 c 2
 362 472 l 2
 376 472 395 472 395 451 c 0
 395 445 392 440 387 433 c 2
 255 244 l 1
 403 38 l 2
 409 30 411 26 411 20 c 0
 411 0 391 0 377 0 c 2
 353 0 l 2
 325 0 320 4 308 22 c 0
 294 45 244 127 212 178 c 1
 121 23 l 2
 108 0 98 0 76 0 c 2
 52 0 l 2
 37 0 19 0 19 20 c 0
EndSplineSet
EndChar

StartChar: y
Encoding: 121 121 128
Width: 430
Flags: HW
TeX: 472 166
ItalicCorrection: 13
HStem: -177 71<104.5 124.5 104.5 146> 452 20<61 73 73 96 351.5 376>
AnchorPoint: "affricate-below" 430 -167 basechar 0
AnchorPoint: "affricate-above" 430 694 basechar 0
AnchorPoint: "below" 216 -167 basechar 0
AnchorPoint: "above" 224 487 basechar 0
LayerCount: 2
Fore
SplineSet
24 448 m 0
 24 472 46 472 61 472 c 2
 73 472 l 2
 119 472 123 461 146 399 c 0
 227 185 228 140 229 118 c 1
 231 142 239 196 270 303 c 2
 307 432 l 2
 318 472 337 472 366 472 c 0
 386 472 408 472 408 447 c 0
 408 445 408 443 403 428 c 2
 260 -51 l 2
 239 -120 185 -177 107 -177 c 0
 87 -177 48 -173 40 -167 c 0
 35 -163 31 -111 31 -103 c 0
 31 -93 36 -89 43 -89 c 0
 45 -89 45 -90 50 -92 c 0
 78 -105 101 -106 108 -106 c 0
 141 -106 160 -86 168 -72 c 0
 175 -61 192 -11 192 -1 c 0
 192 1 192 2 188 14 c 2
 29 430 l 2
 24 443 24 446 24 448 c 0
EndSplineSet
EndChar

StartChar: z
Encoding: 122 122 129
Width: 411
Flags: HW
TeX: 472 0
HStem: 0 67<305.5 337> 405 67<85 106.5>
AnchorPoint: "affricate-below" 411 -167 basechar 0
AnchorPoint: "affricate-above" 411 694 basechar 0
AnchorPoint: "below" 204 0 basechar 0
AnchorPoint: "above" 204 487 basechar 0
LayerCount: 2
Fore
SplineSet
26 38 m 0
 26 49 26 53 36 68 c 2
 260 407 l 1
 222 407 l 2
 193 407 121 405 92 405 c 0
 68 405 40 405 40 438 c 0
 40 472 70 472 85 472 c 2
 335 472 l 2
 353 472 379 472 379 434 c 0
 379 423 379 419 369 404 c 2
 145 65 l 1
 191 65 l 2
 236 65 283 67 328 67 c 0
 354 67 381 67 381 33 c 0
 381 0 351 0 337 0 c 2
 70 0 l 2
 52 0 26 0 26 38 c 0
EndSplineSet
EndChar

StartChar: braceleft
Encoding: 123 123 130
Width: 475
Flags: HW
TeX: 750 222
HStem: -222 64<316.212 426.895> 686 64<315.938 426.997>
VStem: 181 112<-136.191 187.221 342.875 664.445>
LayerCount: 2
Fore
SplineSet
46 260 m 2
 46 268 l 2
 46 309 60 288 105 304 c 0
 141 316 172 345 179 383 c 0
 181 392 181 400 181 409 c 2
 181 612 l 2
 181 638 179 697 267 732 c 0
 312 749 353 750 390 750 c 2
 406 750 l 2
 423 750 427 743 427 728 c 0
 427 723 427 718 427 713 c 0
 427 695 428 687 406 686 c 0
 293 680 293 643 293 611 c 2
 293 412 l 2
 293 384 296 305 176 264 c 1
 289 225 293 153 293 120 c 2
 293 -82 l 2
 293 -90 292 -100 294 -108 c 0
 306 -157 389 -156 411 -158 c 0
 426 -160 427 -169 427 -180 c 0
 427 -185 428 -189 428 -194 c 0
 428 -215 426 -222 405 -222 c 2
 373 -222 l 2
 290 -222 181 -195 181 -88 c 2
 181 117 l 2
 181 191 132 225 69 231 c 0
 49 233 46 236 46 260 c 2
EndSplineSet
EndChar

StartChar: bar
Encoding: 124 124 131
Width: 264
Flags: HW
TeX: 750 222
VStem: 96 70<-219.283 747.113>
LayerCount: 2
Fore
SplineSet
96 -175 m 2
 96 692 l 2
 96 717 96 722 99 728 c 0
 106 746 123 750 131 750 c 0
 145 750 166 743 166 703 c 2
 166 -177 l 2
 166 -215 145 -222 131 -222 c 0
 117 -222 96 -214 96 -175 c 2
EndSplineSet
EndChar

StartChar: braceright
Encoding: 125 125 132
Width: 475
Flags: HW
TeX: 750 222
HStem: -222 64<46.04 159.211> 686 64<46.0723 156.911>
VStem: 181 112<-136.398 186.98 342.755 660.499>
LayerCount: 2
Fore
SplineSet
46 -185 m 0
 46 -167 46 -159 68 -158 c 0
 177 -153 181 -118 181 -83 c 2
 181 121 l 2
 181 153 185 224 298 264 c 1
 185 303 181 374 181 407 c 2
 181 610 l 2
 181 619 181 628 179 636 c 0
 167 684 86 684 62 686 c 0
 47 688 46 696 46 708 c 2
 46 723 l 2
 46 743 48 750 68 750 c 2
 100 750 l 2
 183 750 293 723 293 616 c 2
 293 411 l 2
 293 389 294 375 304 356 c 0
 324 321 363 301 405 297 c 0
 425 295 427 292 427 268 c 2
 427 260 l 2
 427 219 417 240 369 224 c 0
 298 200 293 144 293 122 c 2
 293 -84 l 2
 293 -109 296 -170 207 -204 c 0
 162 -221 120 -222 83 -222 c 2
 68 -222 l 2
 52 -222 46 -218 46 -200 c 0
 46 -195 46 -190 46 -185 c 0
EndSplineSet
EndChar

StartChar: asciitilde
Encoding: 126 126 133
Width: 581
Flags: HW
TeX: 694 0
HStem: 574 65<315.459 425.606> 629 65<151.648 263.692>
VStem: 80 64<574.199 618.781> 435 65<650.112 693.804>
LayerCount: 2
Fore
SplineSet
80 592 m 0
 80 633 122 694 202 694 c 0x70
 286 694 328 639 379 639 c 0xb0
 410 639 430 658 435 677 c 0
 439 693 444 694 464 694 c 0x70
 468 694 472 695 476 695 c 0
 488 695 500 693 500 677 c 0
 500 636 458 574 377 574 c 0xb0
 295 574 249 629 200 629 c 0x70
 176 629 150 617 144 592 c 0
 140 578 138 574 115 574 c 0xb0
 111 574 106 574 102 574 c 0xb0
 89 574 80 576 80 592 c 0
EndSplineSet
EndChar

StartChar: Abreve
Encoding: 258 258 135
Width: 636
Flags: HW
TeX: 902 0
HStem: 0 21<55.5 117.5 505 573> 171 75<211 407> 674 20<270.5 370> 735 80<219.845 375.837>
VStem: 134 66<836.859 899.692> 393 69<834.15 898.444>
DStem2: 40 43 188 171 0.299704 0.954032<-17.9101 166.472 244.918 603.43> 596 40 407 246 0.298546 -0.954395<-535.16 -253.031 -174.584 9.76018>
AnchorPoint: "below" 318 0 basechar 0
AnchorPoint: "above" 318 901 basechar 0
LayerCount: 2
Fore
SplineSet
134 868 m 0
 134 886 147 902 166 902 c 0
 197 902 199 867 200 864 c 0
 207 833 250 815 298 815 c 0
 336 815 379 827 393 855 c 0
 398 866 397 902 430 902 c 0
 443 902 462 893 462 866 c 0
 462 805 400 735 298 735 c 0
 210 735 134 791 134 868 c 0
EndSplineSet
Refer: 72 65 S 1 0 0 1 -0 -0 3
AlternateSubs2: "Stilistic set 01 subtable" Abreve.vn
AlternateSubs2: "Latin alternatives subtable" Abreve.vn
Substitution2: "Latin Vietnamese substitutions subtable" Abreve.vn
EndChar

StartChar: Aogonek
Encoding: 260 260 136
Width: 636
Flags: HW
TeX: 694 166
HStem: -186 76<532.202 620.816> -0 21G<56 117> 171 75<211 407> 674 20G<264 368>
VStem: 445 84<-107.281 -24.1794>
DStem2: 39 41 188 171 0.299827 0.953994<-15.7919 168.693 247.139 605.65> 594 49 407 246 0.29991 -0.953968<-526.138 -244.015 -165.569 7.74836>
AnchorPoint: "above" 318 713 basechar 0
LayerCount: 2
Fore
SplineSet
36 25 m 0
 36 30 37 36 39 41 c 2
 226 636 l 2
 236 669 241 694 287 694 c 2
 349 694 l 2
 387 694 396 679 406 647 c 2
 594 49 l 2
 596 43 599 34 599 25 c 0
 599 -5 573 11 547 -23 c 0
 536 -39 529 -57 529 -74 c 0
 529 -94 539 -110 565 -110 c 0
 588 -110 605 -100 617 -100 c 0
 638 -100 641 -142 641 -143 c 0
 641 -175 552 -186 536 -186 c 0
 481 -186 445 -150 445 -97 c 0
 445 -53 468 -17 491 8 c 1
 482 16 477 9 430 171 c 1
 188 171 l 1
 139 14 142 0 92 -0 c 2
 70 -0 l 2
 42 0 36 15 36 25 c 0
211 246 m 1
 407 246 l 1
 325 519 313 556 309 591 c 1
 294 508 231 315 211 246 c 1
EndSplineSet
Ligature2: "Latin ligatures subtable" A uni0328
EndChar

StartChar: Cacute
Encoding: 262 262 137
Width: 606
Flags: HW
TeX: 866 0
HStem: -20 87<285.399 483.489> 627 87<282.141 471.509> 835 42<398.454 478.636>
VStem: 52 123<199.983 492.732>
AnchorPoint: "below" 373 0 basechar 0
AnchorPoint: "above" 371 857 basechar 0
LayerCount: 2
Fore
SplineSet
226 775 m 0
 226 785 245 796 255 804 c 0
 346 876 339 877 364 877 c 2
 457 877 l 2
 469 877 485 878 485 866 c 0
 485 855 463 846 440 835 c 0
 298 764 303 763 281 763 c 0
 278 763 276 764 273 764 c 0
 267 764 260 763 254 763 c 0
 236 763 226 766 226 775 c 0
EndSplineSet
Refer: 74 67 S 1 0 0 1 -0 0 3
EndChar

StartChar: Ccaron
Encoding: 268 268 138
Width: 606
Flags: HW
TeX: 902 0
HStem: -20 87<285.399 483.489> 627 87<282.141 471.509> 735 74<347.038 390.112>
VStem: 52 123<199.983 492.732>
AnchorPoint: "below" 373 0 basechar 0
AnchorPoint: "above" 371 883 basechar 0
LayerCount: 2
Fore
SplineSet
214 891 m 0
 214 902 227 903 237 903 c 2
 253 903 l 2
 274 903 271 902 368 809 c 1
 369 809 l 1
 467 903 460 903 486 903 c 2
 497 903 l 2
 509 903 523 903 523 891 c 0
 523 882 525 887 426 751 c 0
 415 736 412 735 397 735 c 2
 340 735 l 2
 322 735 321 737 301 765 c 0
 219 878 214 883 214 891 c 0
EndSplineSet
Refer: 74 67 S 1 0 0 1 -0 0 3
EndChar

StartChar: Dcaron
Encoding: 270 270 139
Width: 687
Flags: HW
TeX: 902 0
HStem: 0 76<200 412.417> 619 75<200 408.309> 735 74<264.038 306.763>
VStem: 80 120<76 619> 514 120<192.771 498.554>
AnchorPoint: "below" 336 0 basechar 0
AnchorPoint: "above" 336 902 basechar 0
LayerCount: 2
Fore
SplineSet
131 891 m 0
 131 902 145 903 155 903 c 0
 160 903 165 903 170 903 c 0
 191 903 188 902 285 809 c 1
 286 809 l 1
 382 901 380 903 400 903 c 2
 414 903 l 2
 426 903 440 903 440 891 c 0
 440 882 443 887 344 751 c 0
 333 736 329 735 314 735 c 2
 257 735 l 2
 239 735 238 737 218 765 c 0
 136 878 131 883 131 891 c 0
EndSplineSet
Refer: 75 68 S 1 0 0 1 0 0 3
EndChar

StartChar: Ecaron
Encoding: 282 282 140
Width: 566
Flags: HW
TeX: 902 0
HStem: 0 97<203 523.078> 318 81<203 484.174> 601 91<203 509.331> 735 74<263.038 305.763>
VStem: 80 123<93 318 399 604>
AnchorPoint: "below" 304 0 basechar 0
AnchorPoint: "above" 304 905 basechar 0
LayerCount: 2
Fore
SplineSet
130 891 m 0
 130 902 143 903 153 903 c 2
 169 903 l 2
 190 903 187 902 284 809 c 1
 285 809 l 1
 381 901 379 903 399 903 c 2
 413 903 l 2
 425 903 439 903 439 891 c 0
 439 882 441 887 342 751 c 0
 331 736 328 735 313 735 c 2
 256 735 l 2
 238 735 237 737 217 765 c 0
 135 878 130 883 130 891 c 0
EndSplineSet
Refer: 76 69 S 1 0 0 1 0 0 3
EndChar

StartChar: Eogonek
Encoding: 280 280 141
Width: 567
Flags: HW
TeX: 694 166
HStem: -186 76<382.767 473.109> -0 93<203 334 400.051 523.601> 318 81<203 484.171> 601 91<203 509.879>
VStem: 80 123<93 318 399 604> 296 85<-107.265 -24.4213>
AnchorPoint: "above" 296 713 basechar 0
LayerCount: 2
Fore
SplineSet
80 43 m 2
 80 648 l 2
 80 683 95 692 124 692 c 2
 470 692 l 2
 511 692 513 668 513 645 c 0
 513 610 499 601 471 601 c 0
 417 602 230 604 203 604 c 1
 203 399 l 1
 444 399 l 2
 478 399 487 383 487 358 c 0
 487 338 482 318 446 318 c 2
 203 318 l 1
 203 93 l 1
 217 94 487 97 487 97 c 2
 520 97 526 77 526 53 c 2
 526 43 l 2
 526 24 525 0 484 -0 c 2
 438 -0 l 2
 400 0 381 -52 381 -76 c 0
 381 -95 391 -110 417 -110 c 0
 441 -110 457 -100 469 -100 c 0
 489 -100 493 -139 493 -143 c 0
 493 -154 487 -161 471 -167 c 0
 448 -177 418 -186 388 -186 c 0
 332 -186 296 -149 296 -97 c 0
 296 -58 313 -28 334 -0 c 1
 124 -0 l 2
 104 0 80 1 80 43 c 2
EndSplineSet
EndChar

StartChar: Gbreve
Encoding: 286 286 142
Width: 633
Flags: HW
TeX: 902 0
HStem: -20 87<281.269 455.4> 256 81<368.066 457> 627 87<284.566 470.128> 735 80<289.061 448.065>
VStem: 52 123<196.946 494.228> 205 65<837.249 900.11> 457 112<73.1093 256> 464 68<834.15 898.444>
LayerCount: 2
Fore
SplineSet
205 868 m 0
 205 886 218 902 237 902 c 0
 268 902 269 867 270 864 c 0
 277 833 320 815 368 815 c 0
 406 815 450 827 464 855 c 0
 469 866 468 902 501 902 c 0
 514 902 532 893 532 866 c 0
 532 805 470 735 368 735 c 0xfd
 268 735 205 802 205 868 c 0
EndSplineSet
Refer: 78 71 S 1 0 0 1 0 -0 3
EndChar

StartChar: Lacute
Encoding: 313 313 143
Width: 513
Flags: HW
TeX: 866 0
HStem: 0 92<203 469.553> 674 20<109 182.5> 835 42<175.487 256.384>
VStem: 80 123<88 691.409>
LayerCount: 2
Fore
SplineSet
4 775 m 0
 4 785 23 797 33 805 c 0
 124 877 117 877 142 877 c 2
 234 877 l 2
 246 877 263 878 263 866 c 0
 263 855 240 846 217 835 c 0
 75 764 81 763 59 763 c 0
 56 763 54 764 51 764 c 0
 45 764 38 763 32 763 c 0
 14 763 4 766 4 775 c 0
EndSplineSet
Refer: 83 76 S 1 0 0 1 0 0 3
EndChar

StartChar: Lcaron
Encoding: 317 317 144
Width: 513
Flags: HW
TeX: 902 0
HStem: 0 92<203 469.553> 674 20<109 182.5>
VStem: 80 123<88 691.409> 258 106<662.856 768.985>
LayerCount: 2
Fore
SplineSet
258 686 m 2
 258 744 l 2
 258 768 267 769 281 769 c 2
 341 769 l 2
 357 769 365 764 365 746 c 0
 365 743 364 740 364 738 c 2
 364 687 l 2
 364 666 361 666 323 613 c 0
 305 588 304 588 287 588 c 2
 282 588 l 2
 267 588 260 592 260 600 c 0
 260 611 271 630 284 662 c 1
 267 662 258 662 258 686 c 2
EndSplineSet
Refer: 83 76 S 1 0 0 1 0 -0 3
EndChar

StartChar: Lslash
Encoding: 321 321 145
Width: 593
Flags: HW
TeX: 694 0
HStem: -0 92<281 549.222> 674 20G<180 260>
VStem: 159 122<88 248 339.006 382.345 473 691.157>
DStem2: 137 339 159 248 0.734693 0.6784<-106.283 -45.5711 201.399 344.378>
LayerCount: 2
Fore
SplineSet
65 258 m 0
 65 276 71 277 137 339 c 0
 158 358 159 361 159 376 c 2
 159 649 l 2
 159 669 160 694 200 694 c 2
 238 694 l 2
 282 694 281 669 281 649 c 2
 281 473 l 1
 375 560 379 567 396 567 c 0
 418 567 439 540 439 523 c 0
 439 507 425 496 419 490 c 0
 281 362 281 370 281 346 c 2
 281 88 l 1
 296 89 462 92 515 92 c 0
 552 92 552 61 552 49 c 2
 552 42 l 2
 552 24 550 0 510 -0 c 2
 199 -0 l 2
 158 0 159 30 159 46 c 2
 159 248 l 1
 138 228 123 214 107 214 c 0
 88 214 65 239 65 258 c 0
EndSplineSet
EndChar

StartChar: Ncaron
Encoding: 327 327 147
Width: 677
Flags: HW
TeX: 902 0
HStem: 0 21<102.5 164 469.5 574> 674 20<103.5 206.5 512 574> 735 74<317.038 359.763>
VStem: 80 104<3.22084 591> 492 104<103 691.205>
DStem2: 253 670 184 591 0.37424 -0.927332<47.4367 252.622>
LayerCount: 2
Fore
SplineSet
183 891 m 0
 183 902 197 903 207 903 c 2
 223 903 l 2
 244 903 241 902 338 809 c 1
 339 809 l 1
 435 901 433 903 453 903 c 2
 467 903 l 2
 479 903 493 903 493 891 c 0
 493 882 495 887 396 751 c 0
 385 736 382 735 367 735 c 2
 309 735 l 2
 291 735 290 737 270 765 c 0
 188 878 183 883 183 891 c 0
EndSplineSet
Refer: 85 78 S 1 0 0 1 0 0 3
EndChar

StartChar: Eng
Encoding: 330 330 148
Width: 714
Flags: HW
TeX: 694 0
HStem: -20 81<439.49 526.441> -0 21G<103.5 181> 626 111<284.144 448.16> 674 20G<108.5 169.5>
VStem: 80 123<3.21608 550.936> 537 123<70.8877 541.207>
LayerCount: 2
Fore
SplineSet
80 44 m 2
 80 649 l 2
 80 685 91 694 126 694 c 2x5c
 164 694 l 2x5c
 175 694 185 692 197 680 c 1
 198 680 l 1
 248 718 310 737 373 737 c 0
 516 737 660 633 660 457 c 2
 660 157 l 2
 660 123 659 -20 520 -20 c 0
 461 -20 384 13 384 37 c 0
 384 42 386 48 387 56 c 0
 393 93 394 114 407 114 c 0
 416 114 421 104 424 99 c 0
 440 76 467 61 490 61 c 0
 530 61 537 102 537 147 c 2
 537 451 l 2
 537 582 434 626 367 626 c 0xac
 283 626 203 560 203 485 c 2
 203 47 l 2
 203 23 202 0 160 -0 c 2
 122 -0 l 2
 85 0 80 21 80 44 c 2
EndSplineSet
EndChar

StartChar: Ohungarumlaut
Encoding: 336 336 149
Width: 697
Flags: HW
TeX: 866 0
HStem: -20 73<274.749 420.646> 643 71<269.308 424.888> 763 114<285.897 306.975 365 373 406 453.86> 845 32<556.37 608.633>
VStem: 52 123<182.253 503.812> 521 122<182.19 504.422>
AnchorPoint: "below" 348 0 basechar 0
AnchorPoint: "above" 348 857 basechar 0
LayerCount: 2
Fore
SplineSet
192 775 m 0
 192 785 195 785 300 867 c 0
 307 873 314 877 330 877 c 2xdc
 432 877 l 2xec
 449 877 451 871 454 864 c 1
 471 877 474 877 488 877 c 2
 592 877 l 2
 601 877 610 874 610 866 c 0
 610 858 602 853 585 845 c 0xdc
 422 763 428 763 406 763 c 0
 402 763 398 764 395 764 c 0
 389 764 384 763 378 763 c 2
 373 763 l 2
 365 763 351 765 351 775 c 0
 351 785 372 798 437 850 c 1
 264 763 270 764 248 764 c 2xec
 211 764 l 2
 204 764 192 765 192 775 c 0
EndSplineSet
Refer: 86 79 S 1 0 0 1 0 0 3
EndChar

StartChar: Rcaron
Encoding: 344 344 151
Width: 613
Flags: HW
TeX: 902 0
HStem: 0 21<100 178.5 480 545> 315 65<200 304> 619 75<200 404.25> 735 74<267.038 309.763>
VStem: 80 120<3.22922 315 380 619> 446 114<420.719 579.492>
AnchorPoint: "below" 296 0 basechar 0
AnchorPoint: "above" 296 902 basechar 0
LayerCount: 2
Fore
SplineSet
134 891 m 0
 134 902 147 903 157 903 c 2
 173 903 l 2
 194 903 191 902 288 809 c 1
 289 809 l 1
 385 901 383 903 403 903 c 2
 417 903 l 2
 429 903 443 903 443 891 c 0
 443 882 445 887 346 751 c 0
 335 736 332 735 317 735 c 2
 260 735 l 2
 242 735 241 737 221 765 c 0
 139 878 134 883 134 891 c 0
EndSplineSet
Refer: 89 82 S 1 0 0 1 0 0 3
EndChar

StartChar: Sacute
Encoding: 346 346 152
Width: 527
Flags: HW
TeX: 866 0
HStem: -20 94<156.56 332.478> 626 88<193.042 356.983> 835 42<305.521 386.384>
VStem: 53 105<466.193 591.619> 368 106<111.442 252.673>
AnchorPoint: "below" 263 0 basechar 0
AnchorPoint: "above" 265 857 basechar 0
LayerCount: 2
Fore
SplineSet
134 775 m 0
 134 785 153 797 163 805 c 0
 254 877 247 877 272 877 c 2
 365 877 l 2
 377 877 393 878 393 866 c 0
 393 855 370 846 347 835 c 0
 205 764 212 763 190 763 c 0
 187 763 184 764 181 764 c 0
 175 764 168 763 162 763 c 0
 144 763 134 766 134 775 c 0
EndSplineSet
Refer: 90 83 S 1 0 0 1 -0 0 3
EndChar

StartChar: Scaron
Encoding: 352 352 153
Width: 527
Flags: HW
TeX: 902 0
HStem: -20 94<156.56 332.478> 626 88<193.042 356.983> 735 74<242.038 285.112>
VStem: 53 105<466.193 591.619> 368 106<111.442 252.673>
AnchorPoint: "below" 263 0 basechar 0
AnchorPoint: "above" 265 883 basechar 0
LayerCount: 2
Fore
SplineSet
109 891 m 0
 109 902 122 903 132 903 c 2
 148 903 l 2
 169 903 166 902 263 809 c 1
 264 809 l 1
 362 903 355 903 381 903 c 2
 392 903 l 2
 404 903 418 903 418 891 c 0
 418 882 420 887 321 751 c 0
 310 736 307 735 292 735 c 2
 234 735 l 2
 216 735 215 737 195 765 c 0
 113 878 109 883 109 891 c 0
EndSplineSet
Refer: 90 83 S 1 0 0 1 0 0 3
EndChar

StartChar: Scedilla
Encoding: 350 350 154
Width: 528
Flags: HW
TeX: 694 145
HStem: -40 20G<251.5 280.5> -20 94<156.56 332.478> 626 88<193.042 355.887>
VStem: 53 105<466.193 591.619> 368 106<111.442 252.673>
LayerCount: 2
Fore
SplineSet
43 65 m 1
 43 65 51 150 66 150 c 0
 87 150 137 74 261 74 c 0
 347 74 368 133 368 184 c 0
 368 241 333 271 319 280 c 0
 269 314 178 297 105 377 c 0
 68 417 53 465 53 513 c 0
 53 601 95 714 266 714 c 0
 326 714 372 701 418 675 c 0
 435 665 440 663 440 650 c 1
 440 650 432 572 421 566 c 0
 420 565 418 565 417 565 c 0
 398 565 367 626 264 626 c 0
 179 626 158 571 158 528 c 0
 158 472 200 443 222 434 c 0
 267 415 331 416 389 372 c 0
 434 338 474 277 474 195 c 0
 474 102 431 -20 262 -20 c 0
 205 -20 122 -3 56 45 c 0
 50 50 43 54 43 65 c 1
156 -153 m 0
 156 -144 166 -131 224 -39 c 0
 236 -21 240 -20 263 -20 c 2
 272 -20 l 2
 289 -20 294 -25 294 -32 c 0
 294 -38 290 -47 287 -54 c 0
 240 -159 244 -165 219 -165 c 2
 179 -165 l 2
 169 -165 156 -165 156 -153 c 0
EndSplineSet
EndChar

StartChar: Tcaron
Encoding: 356 356 155
Width: 644
Flags: HW
TeX: 902 0
HStem: 0 21<283.5 363.5> 601 88<36.92 261 383 607.422>
VStem: 261 122<2.93331 601>
AnchorPoint: "below" 322 0 basechar 0
AnchorPoint: "above" 322 908 basechar 0
LayerCount: 2
Fore
SplineSet
167 891 m 0
 167 902 181 903 191 903 c 0
 196 903 201 903 206 903 c 0
 227 903 225 902 322 809 c 1
 418 901 416 903 436 903 c 0
 441 903 446 903 451 903 c 0
 463 903 477 903 477 891 c 0
 477 882 479 887 380 751 c 0
 369 736 365 735 350 735 c 2
 293 735 l 2
 275 735 274 737 254 765 c 0
 172 878 167 883 167 891 c 0
EndSplineSet
Refer: 91 84 S 1 0 0 1 0 0 3
EndChar

StartChar: Tcommaaccent
Encoding: 354 354 156
Width: 644
Flags: HW
TeX: 694 145
HStem: -40 20G<303 337> 0 21<283.5 363.5> 601 88<36.92 261 383 607.422>
VStem: 214 101<-161.609 -115.598> 261 122<2.93331 601>
LayerCount: 2
Fore
SplineSet
214 -153 m 0
 214 -145 222 -136 283 -39 c 0
 291 -26 294 -20 312 -20 c 2
 331 -20 l 2
 343 -20 352 -22 352 -33 c 0
 352 -41 346 -52 315 -122 c 0
 302 -152 301 -164 280 -165 c 1xf0
 238 -165 l 2
 228 -165 214 -165 214 -153 c 0
EndSplineSet
Refer: 91 84 S 1 0 0 1 0 0 3
EndChar

StartChar: Uhungarumlaut
Encoding: 368 368 157
Width: 656
Flags: HW
TeX: 866 0
HStem: -20 76<256.461 407.871> 674 20<106.5 167.5 493.5 552> 763 114<266.897 286.73 345 353 386 433.861> 845 32<536.37 588.633>
VStem: 80 123<119.335 690.999> 464 112<120.326 690.936>
AnchorPoint: "below" 330 0 basechar 0
AnchorPoint: "above" 328 876 basechar 0
LayerCount: 2
Fore
SplineSet
173 775 m 0
 173 785 176 785 281 867 c 0
 289 873 295 877 311 877 c 2xdc
 413 877 l 2xec
 430 877 431 871 434 864 c 1
 450 877 454 877 468 877 c 2
 572 877 l 2
 581 877 590 874 590 866 c 0
 590 858 582 853 565 845 c 0xdc
 402 763 408 763 386 763 c 0
 382 763 378 764 375 764 c 0
 369 764 364 763 358 763 c 2
 353 763 l 2
 345 763 331 765 331 775 c 0
 331 785 346 795 416 850 c 1
 244 764 250 764 228 764 c 0xec
 216 764 204 764 192 764 c 0
 185 764 173 765 173 775 c 0
EndSplineSet
Refer: 92 85 S 1 0 0 1 0 0 3
EndChar

StartChar: Uring
Encoding: 366 366 158
Width: 656
Flags: HW
TeX: 902 0
HStem: -20 76<256.461 407.871> 670 65<282.793 377.944> 674 20<106.5 167.5 493.5 552> 838 65<283.083 377.72>
VStem: 80 123<119.335 690.999> 225 53<740.729 832.427> 383 53<741.097 832.222> 464 112<120.326 690.936>
LayerCount: 2
Fore
SplineSet
225 786 m 0
 225 880 283 903 331 903 c 0
 376 903 436 879 436 787 c 0
 436 694 378 670 330 670 c 0
 284 670 225 694 225 786 c 0
278 787 m 0
 278 763 280 735 330 735 c 0xdf
 372 735 383 752 383 787 c 0
 383 816 376 838 331 838 c 0
 296 838 278 828 278 787 c 0
EndSplineSet
Refer: 92 85 S 1 0 0 1 0 -0 3
EndChar

StartChar: Ydieresis
Encoding: 376 376 159
Width: 636
Flags: HW
TeX: 902 0
ItalicCorrection: 23
HStem: 0 21<277 354> 674 20<45 121 536.5 597.5> 738 123<167.285 283.875 352.229 467.949>
VStem: 164 123<740.902 857.99> 258 120<3.45164 308.312> 349 122<741.11 858.152>
AnchorPoint: "below" 317 0 basechar 0
AnchorPoint: "above" 317 860 basechar 0
LayerCount: 2
Fore
SplineSet
164 782 m 2xf0
 164 817 l 2
 164 851 177 861 208 861 c 0
 219 861 230 861 241 861 c 0
 261 861 287 860 287 819 c 0
 287 806 287 793 287 780 c 0
 287 753 278 738 244 738 c 2
 210 738 l 2
 189 738 164 739 164 782 c 2xf0
349 780 m 2xe4
 349 814 l 2
 349 838 349 861 392 861 c 2
 426 861 l 2
 448 861 471 859 471 817 c 2
 471 782 l 2
 471 749 459 738 429 738 c 2
 395 738 l 2
 376 738 349 739 349 780 c 2xe4
EndSplineSet
Refer: 96 89 S 1 0 0 1 -0 -0 3
EndChar

StartChar: Zcaron
Encoding: 381 381 161
Width: 580
Flags: HW
TeX: 902 0
HStem: 0 88<195 529.352> 609 85<68.2659 384> 735 74<272.038 314.763>
DStem2: 72 100 195 88 0.520844 0.853652<53.82 599.573>
AnchorPoint: "below" 293 0 basechar 0
AnchorPoint: "above" 293 902 basechar 0
LayerCount: 2
Fore
SplineSet
139 891 m 0
 139 902 153 903 163 903 c 0
 168 903 173 903 178 903 c 0
 199 903 196 902 293 809 c 1
 294 809 l 1
 390 901 388 903 408 903 c 2
 422 903 l 2
 434 903 448 903 448 891 c 0
 448 882 451 887 352 751 c 0
 341 736 337 735 322 735 c 2
 265 735 l 2
 247 735 246 737 226 765 c 0
 144 878 139 883 139 891 c 0
EndSplineSet
Refer: 97 90 S 1 0 0 1 0 0 3
EndChar

StartChar: IJ
Encoding: 306 306 163
Width: 706
Flags: HW
TeX: 694 0
HStem: -20 81<359 482.819> 0 21<79.5 154.5> 674 20G<74 141 526 601.5>
VStem: 53 123<3.10008 691.083> 504 120<85.79 690.827>
LayerCount: 2
Fore
SplineSet
296 38 m 1
 296 38 301 114 318 114 c 0
 333 114 358 61 429 61 c 0
 474 61 504 87 504 156 c 2
 504 648 l 2
 504 670 505 694 547 694 c 2xb8
 579 694 l 2
 624 694 624 670 624 648 c 2
 624 153 l 2
 624 15 530 -20 458 -20 c 0
 387 -20 310 11 299 27 c 0
 297 30 296 34 296 38 c 1
EndSplineSet
Refer: 80 73 S 1 0 0 1 -27 0 2
Ligature2: "Latin Dutch ligatures subtable" I J
EndChar

StartChar: Idotaccent
Encoding: 304 304 164
Width: 283
Flags: HW
TeX: 866 0
HStem: 0 21<106.5 181.5> 674 20<101 168> 774 122<83.2225 200.202>
VStem: 80 123<3.10008 691.083 776.742 893.521>
LayerCount: 2
Fore
SplineSet
80 816 m 2
 80 854 l 2
 80 888 95 897 124 897 c 0
 128 897 132 896 136 896 c 2
 157 896 l 2
 179 896 203 895 203 854 c 2
 203 816 l 2
 203 788 194 774 160 774 c 2
 120 774 l 2
 105 774 80 776 80 816 c 2
EndSplineSet
Refer: 80 73 S 1 0 0 1 0 0 3
EndChar

StartChar: dcroat
Encoding: 273 273 165
Width: 483
Flags: HW
TeX: 694 0
HStem: -10 65<182.307 280.116> -0 21G<336 406> 417 65<186.462 285.76> 548 65<137.739 318 427 533.971> 674 20G<340.5 406.5>
VStem: 31 112<100.147 366.951> 315 112<2.83467 44 76.2809 403.303 433 548 613 689.901>
LayerCount: 2
Fore
SplineSet
31 236 m 0
 31 441 140 482 212 482 c 0
 233 482 274 480 318 433 c 1
 318 548 l 1
 179 548 l 2
 142 548 136 567 136 580 c 0
 136 593 142 613 179 613 c 2
 318 613 l 1
 318 650 l 2
 318 671 320 694 361 694 c 2
 386 694 l 2
 427 694 427 666 427 650 c 2
 427 613 l 1
 494 613 l 2
 531 613 536 590 536 580 c 0
 536 571 531 548 494 548 c 2
 427 548 l 1
 427 42 l 2
 427 24 425 0 387 -0 c 2
 358 -0 l 2x7e
 314 0 316 25 315 44 c 1
 290 13 256 -10 207 -10 c 0
 137 -10 31 33 31 236 c 0
143 235 m 2
 143 177 145 123 171 88 c 0
 187 67 211 55 237 55 c 0
 272 55 316 82 316 118 c 0
 316 121 315 123 315 125 c 2
 315 368 l 2xbe
 315 401 274 417 246 417 c 0
 205 417 150 395 144 285 c 0
 143 268 143 257 143 245 c 2
 143 235 l 2
EndSplineSet
AlternateSubs2: "Stilistic set 01 subtable" dcroat.vn
AlternateSubs2: "Latin alternatives subtable" dcroat.vn
Substitution2: "Latin Vietnamese substitutions subtable" dcroat.vn
EndChar

StartChar: section
Encoding: 167 167 166
Width: 454
Flags: HW
TeX: 694 166
HStem: -176 64<137.226 274.036> 639 65<178.19 305.864>
VStem: 66 83<222.55 336.481 494.835 609.549> 304 84<-81.0951 32.8214 191.436 305.832>
LayerCount: 2
Fore
SplineSet
43 -92 m 1
 43 -92 47 -24 64 -24 c 0
 83 -24 107 -112 223 -112 c 0
 283 -112 304 -51 304 -16 c 0
 304 39 241 61 208 76 c 0
 117 118 66 192 66 269 c 0
 66 289 68 352 130 400 c 1
 93 438 66 482 66 541 c 0
 66 627 132 704 231 704 c 0
 310 704 384 658 384 634 c 1
 384 634 379 565 363 565 c 0
 345 565 325 639 231 639 c 0
 168 639 149 577 149 543 c 0
 149 488 214 465 245 451 c 0
 334 410 388 336 388 259 c 0
 388 207 365 160 323 128 c 1
 357 93 388 49 388 -14 c 0
 388 -93 328 -176 223 -176 c 0
 160 -176 103 -158 54 -112 c 0
 46 -105 43 -100 43 -92 c 1
149 272 m 0
 149 212 221 191 263 171 c 1
 298 200 305 234 305 254 c 0
 305 314 243 332 190 357 c 1
 168 339 149 312 149 272 c 0
EndSplineSet
EndChar

StartChar: aogonek
Encoding: 261 261 168
Width: 453
Flags: HW
TeX: 472 166
HStem: -186 75<319.278 413.846> -10 65<152.994 234.412> 256 36<206.376 287> 428 59<135.407 267.183>
VStem: 26 106<76.2425 201.29> 235 82<-108.145 -35.6206> 287 111<9.60575 68 86.1455 256 292 411.243>
AnchorPoint: "above" 224 487 basechar 0
LayerCount: 2
Fore
SplineSet
26 133 m 0
 26 142 26 188 68 228 c 0
 127 284 243 290 287 292 c 1
 287 333 l 2
 287 425 242 428 219 428 c 0
 129 428 98 369 79 369 c 0
 70 369 64 384 64 429 c 0
 64 443 69 447 86 455 c 0
 110 467 154 487 222 487 c 2
 225 487 l 2
 389 487 399 375 399 323 c 0
 399 314 398 303 398 294 c 2
 398 41 l 2xfa
 398 6 381 6 358 -10 c 0
 332 -28 317 -55 317 -77 c 0xfc
 317 -96 329 -111 356 -111 c 0
 381 -111 398 -102 409 -102 c 0
 427 -102 431 -145 431 -148 c 0
 431 -159 422 -163 413 -167 c 0
 390 -177 360 -186 330 -186 c 0
 273 -186 235 -151 235 -101 c 0xfc
 235 -57 264 -17 299 9 c 1
 290 22 289 30 289 42 c 2
 289 68 l 1
 261 19 210 -10 157 -10 c 0
 76 -10 26 62 26 133 c 0
132 135 m 0
 132 92 159 55 199 55 c 0xfa
 216 55 287 63 287 160 c 2
 287 256 l 1
 159 247 132 183 132 135 c 0
EndSplineSet
EndChar

StartChar: dcaron
Encoding: 271 271 171
Width: 624
Flags: HW
TeX: 694 0
HStem: -10 65<182.317 280.492> -0 21G<337 405> 417 65<184.007 287.066> 696 20G<351.5 404.5 464 539>
VStem: 31 112<99.3076 366.521> 316 111<3.14175 44 100.376 402.486 433 691.049> 448 107<609.856 715.966>
LayerCount: 2
Fore
SplineSet
31 236 m 0
 31 440 140 482 213 482 c 0
 255 482 287 466 319 433 c 1
 319 650 l 2
 319 694 340 694 363 694 c 2
 386 694 l 2
 423 694 427 675 427 651 c 2
 427 52 l 2
 427 49 428 46 428 43 c 0
 428 24 425 0 385 -0 c 2
 359 -0 l 2x7e
 315 0 316 27 316 44 c 1
 305 31 272 -10 207 -10 c 0
 137 -10 31 31 31 236 c 0
143 235 m 2
 143 177 145 124 170 89 c 0
 186 68 211 55 237 55 c 0xbe
 282 55 308 90 313 100 c 0
 317 108 316 117 316 125 c 2
 316 363 l 2
 316 380 315 387 298 400 c 0
 283 411 265 417 246 417 c 0
 143 417 143 297 143 242 c 2
 143 235 l 2
448 633 m 2
 448 691 l 2
 448 715 457 716 471 716 c 2
 531 716 l 2
 547 716 555 711 555 693 c 2x3e
 555 634 l 2
 555 613 552 613 514 560 c 0
 496 535 494 535 477 535 c 2
 472 535 l 2
 457 535 450 539 450 547 c 0
 450 558 461 577 474 609 c 1
 457 609 448 609 448 633 c 2
EndSplineSet
EndChar

StartChar: eogonek
Encoding: 281 281 173
Width: 438
Flags: HW
TeX: 472 166
HStem: -186 75<263.341 356.756> 232 48<130 325> 422 65<176.741 289.157>
VStem: 26 103<118.405 232 280 363.812> 179 83<-108.509 -35.2943> 325 86<280 381.515>
AnchorPoint: "above" 232 487 basechar 0
LayerCount: 2
Fore
SplineSet
26 239 m 0
 26 443 149 487 232 487 c 0
 294 487 411 463 411 274 c 0
 411 234 387 232 367 232 c 2
 129 232 l 1
 130 184 136 55 247 55 c 0
 305 55 346 83 376 114 c 0
 382 120 386 123 390 123 c 0
 401 123 405 101 405 73 c 0
 405 66 404 60 404 59 c 0
 390 18 262 0 262 -80 c 0
 262 -99 275 -111 299 -111 c 0
 326 -111 341 -101 352 -101 c 0
 371 -101 375 -148 375 -148 c 1
 375 -173 294 -186 274 -186 c 0
 217 -186 179 -151 179 -101 c 0
 179 -63 199 -34 222 -9 c 1
 88 7 26 97 26 239 c 0
130 280 m 1
 325 280 l 1
 324 323 320 422 233 422 c 0
 159 422 137 348 130 280 c 1
EndSplineSet
EndChar

StartChar: gbreve
Encoding: 287 287 174
Width: 483
Flags: HW
TeX: 694 166
HStem: -187 65<128.036 285.852> 21 65<182.126 278.62> 417 65<190.988 286.057> 556 80<156.14 347.487> 674 20G<115 135 377 392.5>
VStem: 31 112<130.436 357.729> 88 69<642.803 689.88> 315 112<-83.7868 96 123.351 397.058 424 478.529> 355 61<646.008 691.829>
LayerCount: 2
Fore
SplineSet
88 659 m 0
 88 687 110 694 120 694 c 0
 150 694 151 661 157 654 c 0
 166 642 189 636 255 636 c 0
 362 636 346 658 355 676 c 0
 360 686 371 694 383 694 c 0
 402 694 416 678 416 658 c 0xfa80
 416 617 379 556 251 556 c 0
 125 556 88 618 88 659 c 0
EndSplineSet
Refer: 110 103 S 1 0 0 1 -0 -0 3
EndChar

StartChar: lacute
Encoding: 314 314 175
Width: 219
Flags: HW
TeX: 866 0
ItalicCorrection: 102
HStem: -0 21G<76 132> 674 20G<88 142> 835 42<204.487 285.384>
VStem: 55 108<2.92493 691.083>
LayerCount: 2
Fore
SplineSet
33 775 m 0
 33 785 52 797 62 805 c 0
 153 877 146 877 171 877 c 2
 263 877 l 2
 275 877 292 878 292 866 c 0
 292 855 269 846 246 835 c 0
 104 764 110 763 88 763 c 0
 85 763 83 764 80 764 c 0
 74 764 67 763 61 763 c 0
 43 763 33 766 33 775 c 0
55 43 m 2
 55 656 l 1
 56 691 78 694 98 694 c 0
 106 694 113 694 121 694 c 0
 163 694 163 668 163 652 c 2
 163 38 l 1
 162 5 143 0 121 -0 c 0
 113 0 105 0 97 -0 c 0
 55 0 55 26 55 43 c 2
EndSplineSet
EndChar

StartChar: lcaron
Encoding: 318 318 176
Width: 360
Flags: HW
TeX: 694 0
HStem: -0 21<77 132> 674 20<86.5 143> 696 20G<201 276>
VStem: 55 109<3.36606 690.828> 184 107<609.856 715.983>
LayerCount: 2
Fore
SplineSet
184 633 m 2
 184 691 l 2
 184 715 194 716 208 716 c 0
 228 716 248 716 268 716 c 0
 284 716 291 711 291 693 c 2
 291 634 l 2
 291 613 288 613 250 560 c 0
 232 535 230 535 213 535 c 2
 208 535 l 2
 193 535 187 539 187 547 c 0
 187 558 198 577 211 609 c 1
 194 609 184 609 184 633 c 2
EndSplineSet
Refer: 115 108 S 1 0 0 1 0 -0 2
EndChar

StartChar: lslash
Encoding: 322 322 177
Width: 328
Flags: HW
TeX: 694 0
ItalicCorrection: 20
HStem: -0 21G<139 186.5> 674 20G<128.5 195>
VStem: 108 109<3.00287 298 366.715 416.832 488 690.571>
AnchorPoint: "above" 162 694 basechar 0
LayerCount: 2
Fore
SplineSet
18 288 m 0
 18 313 51 331 97 377 c 0
 105 385 108 391 108 403 c 2
 108 645 l 2
 108 668 108 694 149 694 c 0
 157 694 165 694 173 694 c 0
 217 694 217 668 217 650 c 2
 217 488 l 1
 270 538 275 543 290 543 c 0
 305 543 321 530 321 511 c 0
 321 491 308 485 229 410 c 0
 218 399 217 393 217 384 c 2
 217 42 l 2
 217 7 198 0 175 -0 c 2
 150 -0 l 2
 128 0 108 5 108 40 c 2
 108 298 l 1
 83 275 67 257 49 257 c 0
 33 257 18 271 18 288 c 0
EndSplineSet
EndChar

StartChar: nacute
Encoding: 324 324 178
Width: 483
Flags: HW
TeX: 680 0
HStem: -0 21<89 142 337.5 407> 417 65<225.216 306.279> 672 20G<260 342>
VStem: 53 112<3.061 369.539 380 472.501> 317 111<2.94169 406.021>
LayerCount: 2
Fore
SplineSet
158 554 m 0
 158 563 170 577 230 661 c 0
 250 689 251 692 269 692 c 0
 292 692 315 692 338 692 c 0
 346 692 356 690 356 680 c 0
 356 670 356 673 228 555 c 0
 214 542 209 542 197 542 c 2
 180 542 l 2
 169 542 158 544 158 554 c 0
EndSplineSet
Refer: 117 110 S 1 0 0 1 -0 -0 3
EndChar

StartChar: eng
Encoding: 331 331 180
Width: 483
Flags: HW
TeX: 472 166
HStem: -176 73<171.867 298.427> -0 21G<87.5 133.5> 417 65<224.026 306.143>
VStem: 53 112<2.74219 369.1 380 473.238> 317 111<-84.8742 407.586>
AnchorPoint: "affricate-below" 483 -167 basechar 0
AnchorPoint: "affricate-above" 483 694 basechar 0
AnchorPoint: "below" 240 -167 basechar 0
AnchorPoint: "above" 240 487 basechar 0
LayerCount: 2
Fore
SplineSet
53 42 m 2
 53 435 l 2
 53 461 60 478 94 478 c 2
 116 478 l 2
 157 478 159 459 159 431 c 2
 159 411 l 2
 159 401 160 388 160 380 c 1
 176 419 216 482 300 482 c 0
 422 482 428 396 428 332 c 2
 428 49 l 2
 428 -114 370 -176 282 -176 c 0
 244 -176 145 -159 145 -134 c 0
 145 -126 160 -85 174 -85 c 0
 187 -85 205 -103 248 -103 c 0
 313 -103 318 -45 318 -4 c 0
 318 31 317 27 317 40 c 2
 317 340 l 1
 316 371 316 417 263 417 c 0
 224 417 165 383 165 282 c 2
 165 48 l 2
 165 2 145 0 122 -0 c 2
 97 -0 l 2
 78 0 53 2 53 42 c 2
EndSplineSet
EndChar

StartChar: sacute
Encoding: 347 347 184
Width: 364
Flags: HW
TeX: 680 0
HStem: -10 70<105.642 244.303> 424 63<128.425 265.448> 672 20G<206 288>
VStem: 31 87<319.529 413.161> 256 86<72.5283 173.052>
AnchorPoint: "below" 188 0 basechar 0
AnchorPoint: "above" 187 672 basechar 0
LayerCount: 2
Fore
SplineSet
27 53 m 2
 27 53 32 121 48 121 c 0
 64 121 97 60 189 60 c 0
 224 60 256 72 256 123 c 0
 256 186 189 194 188 194 c 0
 140 205 102 212 67 251 c 0
 47 273 31 304 31 346 c 0
 31 459 102 487 186 487 c 0
 252 487 325 462 325 441 c 1
 325 441 322 378 306 378 c 0
 289 378 263 424 183 424 c 0
 149 424 118 415 118 366 c 0
 118 331 144 314 157 308 c 0
 188 296 234 300 279 267 c 0
 296 255 342 216 342 140 c 0
 342 20 270 -10 189 -10 c 0
 109 -10 38 29 29 44 c 0
 27 47 27 50 27 53 c 2
104 554 m 0
 104 563 116 577 176 661 c 0
 196 689 197 692 215 692 c 0
 238 692 261 692 284 692 c 0
 292 692 303 690 303 680 c 0
 303 670 302 673 174 555 c 0
 160 542 155 542 143 542 c 2
 126 542 l 2
 115 542 104 544 104 554 c 0
EndSplineSet
EndChar

StartChar: scaron
Encoding: 353 353 185
Width: 364
Flags: HW
TeX: 680 0
HStem: -10 70<105.642 243.844> 424 63<126.858 265.448> 604 42<119.085 236.878>
VStem: 29 299<661 673> 31 87<319.119 413.703> 256 86<72.7666 173.429>
AnchorPoint: "below" 188 0 basechar 0
AnchorPoint: "above" 187 661 basechar 0
LayerCount: 2
Fore
SplineSet
27 53 m 2
 27 53 32 121 48 121 c 0
 64 121 97 60 189 60 c 0
 224 60 256 73 256 124 c 0
 256 160 232 177 222 183 c 0
 189 202 120 193 68 251 c 0
 48 273 31 304 31 347 c 0
 31 459 103 487 186 487 c 0
 252 487 325 462 325 441 c 1
 325 441 322 378 306 378 c 0xec
 289 378 263 424 183 424 c 0
 157 424 118 420 118 368 c 0
 118 312 170 304 183 301 c 0
 223 292 247 289 279 266 c 0
 294 255 342 216 342 140 c 0xec
 342 20 270 -10 189 -10 c 0
 109 -10 38 29 29 44 c 0xf0
 27 47 27 50 27 53 c 2
EndSplineSet
Refer: 15 711 S 1 0 0 1 -59 0 2
EndChar

StartChar: scedilla
Encoding: 351 351 186
Width: 364
Flags: HW
TeX: 472 145
HStem: -40 20G<174.5 203.5> -10 70<104.569 244.303> 424 63<128.317 265.436>
VStem: 31 87<319.55 413.527> 256 86<72.5283 173.052>
LayerCount: 2
Fore
SplineSet
27 53 m 1
 27 53 32 121 48 121 c 0
 64 121 97 60 189 60 c 0
 224 60 256 72 256 123 c 0
 256 186 189 194 188 194 c 0
 140 205 102 212 67 251 c 0
 47 273 31 304 31 346 c 0
 31 459 102 487 186 487 c 0
 252 487 325 462 325 441 c 1
 325 441 321 378 306 378 c 0
 290 378 262 424 183 424 c 0
 148 424 118 415 118 366 c 0
 118 331 143 315 156 309 c 0
 187 296 234 300 279 267 c 0
 296 255 342 216 342 140 c 0
 342 20 270 -10 189 -10 c 0
 126 -10 27 22 27 53 c 1
79 -153 m 0
 79 -144 90 -131 148 -39 c 0
 160 -21 163 -20 186 -20 c 2
 195 -20 l 2
 212 -20 217 -25 217 -32 c 0
 217 -38 213 -47 210 -54 c 0
 164 -158 167 -164 145 -165 c 1
 103 -165 l 2
 93 -165 79 -165 79 -153 c 0
EndSplineSet
EndChar

StartChar: tcaron
Encoding: 357 357 187
Width: 346
Flags: HW
TeX: 694 0
HStem: -10 71<128 265.945> 408 64<19.4016 78 184 300.184>
VStem: 78 106<64.3272 408 472 603.883> 217 107<575.856 681.985>
LayerCount: 2
Fore
SplineSet
18 440 m 0
 18 449 21 472 58 472 c 2
 81 472 l 1
 81 567 l 1
 82 600 98 608 123 608 c 0
 129 608 135 608 141 608 c 0
 163 608 184 602 184 567 c 2
 184 472 l 1
 250 472 l 2
 254 472 257 473 261 473 c 0
 298 473 302 449 302 440 c 0
 302 431 297 408 261 408 c 2
 184 408 l 1
 184 152 l 2
 184 87 192 61 220 61 c 0
 263 61 283 99 296 99 c 0
 311 99 316 51 316 51 c 1
 316 32 244 -10 166 -10 c 0
 90 -10 78 56 78 128 c 2
 78 408 l 1
 58 408 l 2
 21 408 18 431 18 440 c 0
217 599 m 2
 217 657 l 2
 217 681 226 682 240 682 c 2
 301 682 l 2
 317 682 324 677 324 659 c 2
 324 600 l 2
 324 579 321 579 283 526 c 0
 265 501 263 501 246 501 c 2
 241 501 l 2
 226 501 220 505 220 513 c 0
 220 524 230 543 243 575 c 1
 226 575 217 575 217 599 c 2
EndSplineSet
EndChar

StartChar: tcommaaccent
Encoding: 355 355 188
Width: 346
Flags: HW
TeX: 607 145
HStem: -40 20G<192.5 230.5> -10 71<128.5 266.129> 408 64<19.5721 78 184 300.184>
VStem: 78 106<64.3272 408 472 603.221>
LayerCount: 2
Fore
SplineSet
18 440 m 0
 18 449 21 472 58 472 c 2
 81 472 l 1
 81 567 l 2
 81 589 87 607 122 607 c 2
 142 607 l 2
 164 607 184 602 184 567 c 2
 184 472 l 1
 250 472 l 2
 254 472 257 473 261 473 c 0
 298 473 302 449 302 440 c 0
 302 431 297 408 261 408 c 2
 184 408 l 1
 184 152 l 2
 184 87 192 61 220 61 c 0
 263 61 283 99 296 99 c 0
 311 99 316 52 316 52 c 1
 316 29 238 -10 166 -10 c 0
 91 -10 78 56 78 128 c 2
 78 408 l 1
 58 408 l 2
 22 408 18 429 18 440 c 0
106 -154 m 0
 106 -147 112 -137 118 -128 c 0
 186 -20 180 -20 205 -20 c 2
 222 -20 l 2
 239 -20 244 -25 244 -32 c 0
 244 -42 195 -149 195 -149 c 2
 189 -162 183 -164 171 -165 c 1
 130 -165 l 2
 112 -165 106 -161 106 -154 c 0
EndSplineSet
EndChar

StartChar: uhungarumlaut
Encoding: 369 369 189
Width: 483
Flags: HW
TeX: 680 0
ItalicCorrection: 6
HStem: -10 54<174.612 271.67> -0 21<341 395> 452 20<74 142.5 339 391.5> 672 20G<208 289 364.5 447>
VStem: 53 112<52.4664 468.784> 319 109<3.25391 74 90.0449 469.318>
AnchorPoint: "below" 241 0 basechar 0
AnchorPoint: "above" 241 687 basechar 0
LayerCount: 2
Fore
SplineSet
105 554 m 0
 105 563 118 577 178 661 c 0
 198 689 199 692 217 692 c 2
 285 692 l 2
 293 692 304 690 304 680 c 0
 304 670 304 673 176 555 c 0
 162 542 156 542 144 542 c 2
 127 542 l 2
 116 542 105 544 105 554 c 0
263 553 m 0
 263 563 275 578 283 588 c 0
 357 691 354 692 375 692 c 2
 443 692 l 2
 451 692 462 690 462 680 c 0
 462 670 462 673 334 555 c 0
 320 542 315 542 303 542 c 2x3c
 286 542 l 2
 269 542 263 546 263 553 c 0
EndSplineSet
Refer: 124 117 S 1 0 0 1 -0 -0 3
EndChar

StartChar: ydieresis
Encoding: 255 255 191
Width: 430
Flags: HW
TeX: 694 166
ItalicCorrection: 13
HStem: -176 72<40.488 158.175> 453 20<40 54.5 344 359.5 376.5 391> 572 122<64.0009 181.129 248.585 365.949>
VStem: 61 123<574.867 691.176> 246 123<574.165 691.308> 307 101<399.6 467.234>
AnchorPoint: "below" 216 -167 basechar 0
AnchorPoint: "above" 224 689 basechar 0
LayerCount: 2
Fore
SplineSet
61 615 m 2
 61 650 l 2
 61 685 75 694 105 694 c 2
 139 694 l 2
 159 694 184 693 184 652 c 0
 184 641 184 630 184 619 c 0
 184 601 186 571 142 571 c 0
 138 571 133 572 129 572 c 2
 107 572 l 2
 87 572 61 572 61 615 c 2
246 613 m 0xf8
 246 626 246 639 246 652 c 0
 246 687 262 694 290 694 c 2
 324 694 l 2
 346 694 369 693 369 651 c 0
 369 639 369 627 369 615 c 0
 369 586 360 571 326 571 c 0
 322 571 318 572 314 572 c 2
 292 572 l 2
 272 572 246 571 246 613 c 0xf8
EndSplineSet
Refer: 128 121 S 1 0 0 1 -0 0 3
EndChar

StartChar: ij
Encoding: 307 307 195
Width: 510
Flags: HW
TeX: 694 166
HStem: -176 73<235.706 341.865> -0 21<85.5 149> 453 20G<82 106 125 144 374 396.5 416 439.5> 572 123<57.2225 173.715 341.223 457.827>
VStem: 54 123<575.263 691.879> 61 109<2.82629 470.075> 338 123<575.061 692.202> 351 109<-94.4265 469.949>
LayerCount: 2
Fore
SplineSet
54 614 m 0
 54 625 54 636 54 647 c 0
 54 668 53 695 98 695 c 0
 109 695 120 695 131 695 c 0
 152 695 177 693 177 652 c 2xf8
 177 620 l 2
 177 601 178 572 134 572 c 2
 94 572 l 2
 79 572 54 574 54 614 c 0
216 -133 m 0xf1
 216 -131 219 -85 235 -85 c 0
 247 -85 265 -103 298 -103 c 0
 349 -103 351 -64 351 -42 c 2
 351 428 l 2
 351 450 353 473 395 473 c 0
 398 473 402 472 405 472 c 0
 409 472 414 473 418 473 c 0
 461 473 460 446 460 428 c 2
 460 -7 l 2
 460 -52 460 -176 335 -176 c 0
 306 -176 216 -161 216 -133 c 0xf1
EndSplineSet
Refer: 18 729 S 1 0 0 1 255 -0 2
Refer: 32 305 S 1 0 0 1 6 -0 2
Ligature2: "Latin Dutch ligatures subtable" i j
EndChar

StartChar: exclamdown
Encoding: 161 161 196
Width: 306
Flags: HW
TeX: 527 166
HStem: -167 21G<115 194> 421 107<102.124 202.251>
VStem: 99 106<-166.947 169 424.478 524.737> 109 86<-7.7 344.774>
LayerCount: 2
Fore
SplineSet
99 -146 m 2xe0
 109 315 l 2
 110 344 114 345 137 345 c 0xd0
 145 345 153 345 161 345 c 0
 196 345 194 343 195 304 c 2xd0
 205 -146 l 2
 205 -157 203 -166 185 -167 c 1
 122 -167 l 2
 108 -167 99 -165 99 -146 c 2xe0
99 469 m 2
 99 487 l 1
 100 521 116 528 143 528 c 2
 162 528 l 2
 207 528 205 499 205 480 c 2
 205 464 l 2xe0
 205 448 205 421 164 421 c 2
 142 421 l 2
 98 421 99 450 99 469 c 2
EndSplineSet
EndChar

StartChar: questiondown
Encoding: 191 191 197
Width: 449
Flags: HW
TeX: 527 166
HStem: -176 64<172.913 300.086> 421 107<160.124 260.218>
VStem: 52 111<-104.148 57.965> 157 106<424.478 524.737> 168 84<173.262 344.864>
LayerCount: 2
Fore
SplineSet
52 -24 m 0
 52 96 110 75 149 178 c 0
 162 214 168 249 168 294 c 2
 168 300 l 2xe8
 168 307 167 313 167 319 c 0
 167 335 169 345 188 345 c 2
 223 345 l 2
 250 345 252 342 252 314 c 2
 252 305 l 2
 252 301 253 297 253 291 c 0
 253 253 247 173 186 61 c 0
 168 28 163 23 163 -34 c 0
 163 -91 174 -112 214 -112 c 0
 304 -112 348 -51 363 -51 c 0
 379 -51 392 -112 392 -112 c 1
 392 -122 384 -128 364 -138 c 0
 322 -160 270 -176 208 -176 c 0
 127 -176 52 -146 52 -24 c 0
157 469 m 2
 157 487 l 1
 158 521 174 528 201 528 c 2
 220 528 l 2
 265 528 263 499 263 480 c 2
 263 464 l 2
 263 448 262 421 221 421 c 0xd0
 214 421 207 421 200 421 c 0
 156 421 157 450 157 469 c 2
EndSplineSet
EndChar

StartChar: sterling
Encoding: 163 163 198
Width: 607
Flags: HW
TeX: 694 0
HStem: -10 149<91.5362 205.531> -10 81<357.516 464.826> 315 65<146.066 207 319 405.742> 478 21G<501.5 515.5> 660 65<344.998 427.033>
VStem: 207 112<136.836 315 380 626.797> 467 112<72.0415 149.856>
LayerCount: 2
Fore
SplineSet
52 54 m 0
 52 105 106 139 175 139 c 0xbe
 185 139 196 137 206 136 c 1
 207 212 l 1
 207 315 l 1
 169 315 l 2
 155 315 146 316 146 339 c 2
 146 352 l 2
 146 374 147 380 172 380 c 2
 207 380 l 1
 207 511 l 2
 207 682 305 725 391 725 c 0
 510 725 553 599 553 526 c 0
 553 485 522 478 509 478 c 0
 494 478 475 485 467 510 c 1
 463 510 l 2
 452 510 443 511 442 526 c 0
 439 567 448 660 392 660 c 0
 368 660 349 646 340 634 c 0
 321 609 319 568 319 525 c 2
 319 380 l 1
 383 380 l 2
 396 380 406 378 406 355 c 2
 406 345 l 2
 406 317 399 315 385 315 c 2
 319 315 l 1
 319 184 l 2
 319 148 316 131 310 108 c 1
 388 83 397 75 462 71 c 1
 466 87 467 103 467 120 c 0
 467 145 466 150 496 150 c 2x7e
 553 150 l 2
 569 150 579 148 579 131 c 0
 579 85 536 -10 427 -10 c 0x7e
 357 -10 282 29 265 29 c 0
 251 29 222 -10 135 -10 c 0
 72 -10 52 28 52 54 c 0
EndSplineSet
EndChar

StartChar: Agrave
Encoding: 192 192 199
Width: 636
Flags: HW
TeX: 866 0
HStem: 0 21<55.5 117.5 505 573> 171 75<211 407> 674 20<270.5 370> 847 30<174.698 223.025>
DStem2: 40 43 188 171 0.299704 0.954032<-17.9101 166.472 244.918 603.43> 596 40 407 246 0.298546 -0.954395<-535.16 -253.031 -174.584 9.76018>
AnchorPoint: "below" 318 0 basechar 0
AnchorPoint: "above" 318 876 basechar 0
LayerCount: 2
Fore
SplineSet
174 866 m 0
 174 875 184 877 195 877 c 2
 298 877 l 2
 318 877 319 872 404 805 c 0
 430 784 433 781 433 775 c 0
 433 770 431 764 414 764 c 2
 378 764 l 2
 376 764 374 763 372 763 c 0
 357 763 354 767 195 847 c 0
 180 854 174 858 174 866 c 0
EndSplineSet
Refer: 72 65 S 1 0 0 1 0 0 3
AlternateSubs2: "Stilistic set 01 subtable" Agrave.vn
AlternateSubs2: "Latin alternatives subtable" Agrave.vn
Substitution2: "Latin Vietnamese substitutions subtable" Agrave.vn
EndChar

StartChar: Acircumflex
Encoding: 194 194 201
Width: 636
Flags: HW
TeX: 902 0
HStem: 0 21<55.5 117.5 505 573> 171 75<211 407> 674 20<270.5 370> 836 76<278.171 318.43>
DStem2: 40 43 188 171 0.299704 0.954032<-17.9101 166.472 244.918 603.43> 596 40 407 246 0.298546 -0.954395<-535.16 -253.031 -174.584 9.76018>
AnchorPoint: "below" 318 0 basechar 0
AnchorPoint: "above" 318 912 basechar 0
LayerCount: 2
Fore
SplineSet
149 746 m 0
 149 754 153 758 236 882 c 0
 255 910 257 913 274 913 c 0
 277 913 280 912 283 912 c 2
 361 912 l 2
 383 912 382 907 397 872 c 0
 443 761 447 752 447 747 c 0
 447 736 437 735 427 735 c 2
 408 735 l 2
 385 735 389 736 299 836 c 1
 298 836 l 1
 206 735 212 735 189 735 c 2
 173 735 l 2
 163 735 149 734 149 746 c 0
EndSplineSet
Refer: 72 65 S 1 0 0 1 0 0 3
AlternateSubs2: "Stilistic set 01 subtable" Acircumflex.vn
AlternateSubs2: "Latin alternatives subtable" Acircumflex.vn
Substitution2: "Latin Vietnamese substitutions subtable" Acircumflex.vn
EndChar

StartChar: Atilde
Encoding: 195 195 202
Width: 636
Flags: HW
TeX: 902 0
HStem: 0 21<55.5 117.5 505 573> 171 75<211 407> 674 20<270.5 370> 735 65<347.194 403.702> 837 65<230.477 288.087>
VStem: 160 64<735.021 835.052> 411 65<802.928 902.977>
DStem2: 40 43 188 171 0.299704 0.954032<-17.9101 166.472 244.918 603.43> 596 40 407 246 0.298546 -0.954395<-535.16 -253.031 -174.584 9.76018>
AnchorPoint: "below" 318 0 basechar 0
AnchorPoint: "above" 318 902 basechar 0
LayerCount: 2
Fore
SplineSet
160 755 m 0
 160 804 178 902 253 902 c 0
 326 902 335 800 380 800 c 0
 414 800 410 861 411 880 c 0
 411 895 413 903 434 903 c 2
 454 903 l 2
 475 903 476 893 476 881 c 0
 476 836 457 735 383 735 c 0
 309 735 300 837 255 837 c 0
 230 837 224 803 224 760 c 0
 224 747 225 735 201 735 c 2
 181 735 l 2
 162 735 160 742 160 755 c 0
EndSplineSet
Refer: 72 65 S 1 0 0 1 0 0 3
AlternateSubs2: "Stilistic set 01 subtable" Atilde.vn
AlternateSubs2: "Latin alternatives subtable" Atilde.vn
Substitution2: "Latin Vietnamese substitutions subtable" Atilde.vn
EndChar

StartChar: Adieresis
Encoding: 196 196 203
Width: 636
Flags: HW
TeX: 902 0
HStem: 0 21<55.5 117.5 505 573> 171 75<211 407> 674 20<270.5 370> 738 123<167.285 283.875 352.229 467.949>
VStem: 164 123<740.902 857.99> 349 122<741.11 858.152>
DStem2: 40 43 188 171 0.299704 0.954032<-17.9101 166.472 244.918 603.43> 596 40 407 246 0.298546 -0.954395<-535.16 -253.031 -174.584 9.76018>
AnchorPoint: "below" 318 0 basechar 0
AnchorPoint: "above" 318 860 basechar 0
LayerCount: 2
Fore
SplineSet
164 782 m 2
 164 817 l 2
 164 851 177 861 208 861 c 0
 219 861 230 861 241 861 c 0
 261 861 287 860 287 819 c 0
 287 806 287 793 287 780 c 0
 287 753 278 738 244 738 c 2
 210 738 l 2
 189 738 164 739 164 782 c 2
349 780 m 2
 349 814 l 2
 349 838 349 861 392 861 c 2
 426 861 l 2
 448 861 471 859 471 817 c 2
 471 782 l 2
 471 749 459 738 429 738 c 2
 395 738 l 2
 376 738 349 739 349 780 c 2
EndSplineSet
Refer: 72 65 S 1 0 0 1 -0 -0 3
EndChar

StartChar: Aring
Encoding: 197 197 204
Width: 636
Flags: HW
TeX: 861 0
HStem: 0 21G<66 116.5 505 574> 171 75<211 407> 838 65<254.706 341.635>
VStem: 193 53<702.135 828.861> 351 53<702.312 828.461>
DStem2: 41 46 188 171 0.298723 0.95434<-20.4276 163.205 241.651 600.173> 596 41 407 246 0.299256 -0.954173<-534.291 -252.165 -173.719 10.642>
LayerCount: 2
Fore
SplineSet
36 25 m 0
 36 32 39 39 41 46 c 2
 214 599 l 2
 220 617 225 635 231 653 c 1
 208 676 193 705 193 766 c 0
 193 881 256 903 298 903 c 0
 340 903 404 880 404 766 c 0
 404 733 401 714 388 683 c 1
 398 672 399 667 405 650 c 2
 596 41 l 2
 598 36 599 30 599 25 c 0
 599 5 584 0 564 0 c 2
 529 0 l 2
 481 0 477 6 430 171 c 1
 188 171 l 1
 139 16 142 0 91 0 c 2
 72 0 l 2
 60 0 36 0 36 25 c 0
211 246 m 1
 407 246 l 1
 325 519 313 556 309 591 c 1
 294 508 231 316 211 246 c 1
246 759 m 1
 247 725 253 694 298 694 c 0
 345 694 351 729 351 763 c 2
 351 773 l 2
 351 806 343 838 298 838 c 0
 251 838 246 805 246 770 c 2
 246 759 l 1
EndSplineSet
EndChar

StartChar: AE
Encoding: 198 198 205
Width: 819
Flags: HW
TeX: 694 0
HStem: -0 97<520 775.826> 202 76<239 399> 319 81<520 736.256> 608 86<362 399 520 762.545>
VStem: 399 121<93 202 278 319 400 607>
DStem2: 56 81 152 45 0.349481 0.936943<-54.0568 167.54 248.533 600.71>
AnchorPoint: "below" 408 0 basechar 0
AnchorPoint: "above" 460 713 basechar 0
LayerCount: 2
Fore
SplineSet
37 24 m 0
 37 35 46 53 56 81 c 2
 264 642 l 2
 275 671 282 694 327 694 c 2
 724 694 l 2
 766 694 765 666 765 649 c 0
 765 632 765 604 726 604 c 2
 520 607 l 1
 520 400 l 1
 698 400 l 2
 715 400 739 397 739 359 c 0
 739 322 715 319 694 319 c 2
 520 319 l 1
 520 93 l 1
 564 93 717 97 739 97 c 0
 774 97 779 75 779 54 c 2
 779 48 l 1
 780 6 761 0 736 -0 c 2
 444 -0 l 2
 419 0 399 2 399 44 c 2
 399 202 l 1
 211 202 l 1
 206 186 199 171 152 45 c 0
 140 13 129 0 93 0 c 2
 72 0 l 2
 53 0 37 4 37 24 c 0
239 278 m 1
 399 278 l 1
 399 608 l 1
 362 608 l 1
 239 278 l 1
EndSplineSet
EndChar

StartChar: Ccedilla
Encoding: 199 199 206
Width: 607
Flags: HW
TeX: 694 145
HStem: -20 87<286.706 369 377 398.996> 627 87<282.141 471.509>
VStem: 52 123<199.529 492.672>
AnchorPoint: "above" 371 713 basechar 0
LayerCount: 2
Fore
SplineSet
52 346 m 0
 52 625 207 714 372 714 c 0
 434 714 486 702 530 683 c 0
 542 678 546 672 546 663 c 0
 546 656 544 646 541 631 c 0
 535 598 534 578 522 578 c 0
 503 578 472 627 372 627 c 0
 293 627 175 587 175 347 c 0
 175 106 294 67 374 67 c 0
 494 67 517 120 541 120 c 0
 555 120 557 79 557 53 c 0
 557 41 554 37 533 24 c 0
 481 -9 443 -19 377 -20 c 1
 394 -20 399 -25 399 -32 c 0
 399 -38 395 -47 392 -54 c 0
 343 -166 348 -165 324 -165 c 2
 284 -165 l 2
 266 -165 260 -161 260 -154 c 0
 260 -146 269 -134 329 -39 c 0
 340 -22 345 -20 360 -20 c 2
 369 -20 l 2
 244 -20 52 37 52 346 c 0
EndSplineSet
EndChar

StartChar: Egrave
Encoding: 200 200 207
Width: 566
Flags: HW
TeX: 866 0
HStem: -0 97<203 523.078> 318 81<203 484.174> 601 91<203 509.331> 847 30<127.653 176.025>
VStem: 80 123<93 318 399 604>
AnchorPoint: "below" 304 0 basechar 0
AnchorPoint: "above" 304 879 basechar 0
LayerCount: 2
Fore
SplineSet
127 866 m 0
 127 875 136 877 147 877 c 2
 250 877 l 2
 270 877 271 872 356 805 c 0
 382 784 386 781 386 775 c 0
 386 770 383 764 366 764 c 2
 330 764 l 2
 328 764 327 763 325 763 c 0
 310 763 307 767 148 847 c 0
 133 854 127 858 127 866 c 0
EndSplineSet
Refer: 76 69 S 1 0 0 1 0 -0 3
AlternateSubs2: "Stilistic set 01 subtable" Egrave.vn
AlternateSubs2: "Latin alternatives subtable" Egrave.vn
Substitution2: "Latin Vietnamese substitutions subtable" Egrave.vn
EndChar

StartChar: Ecircumflex
Encoding: 202 202 209
Width: 566
Flags: HW
TeX: 902 0
HStem: 0 97<203 523.078> 318 81<203 484.174> 601 91<203 509.331> 836 76<250.17 290.629>
VStem: 80 123<93 318 399 604>
AnchorPoint: "below" 304 0 basechar 0
AnchorPoint: "above" 304 914 basechar 0
LayerCount: 2
Fore
SplineSet
122 746 m 0
 122 755 148 792 217 895 c 0
 225 906 228 912 246 912 c 2
 294 912 l 2
 305 912 311 911 321 898 c 1
 418 753 419 754 419 746 c 0
 419 734 405 735 395 735 c 2
 379 735 l 2
 357 735 362 736 271 836 c 1
 270 836 l 1
 178 735 184 735 159 735 c 2
 148 735 l 2
 136 735 122 734 122 746 c 0
EndSplineSet
Refer: 76 69 S 1 0 0 1 -0 0 3
AlternateSubs2: "Stilistic set 01 subtable" Ecircumflex.vn
AlternateSubs2: "Latin alternatives subtable" Ecircumflex.vn
Substitution2: "Latin Vietnamese substitutions subtable" Ecircumflex.vn
EndChar

StartChar: Edieresis
Encoding: 203 203 210
Width: 566
Flags: HW
TeX: 902 0
HStem: -0 97<203 523.078> 318 81<203 484.174> 601 91<203 509.331> 738 123<119.367 236.129 303.95 420.875>
VStem: 80 123<93 318 399 604> 116 123<740.902 858.176> 301 123<740.797 857.816>
AnchorPoint: "below" 304 0 basechar 0
AnchorPoint: "above" 304 863 basechar 0
LayerCount: 2
Fore
SplineSet
116 782 m 2xf6
 116 817 l 2
 116 852 130 861 160 861 c 2
 194 861 l 2
 214 861 239 860 239 819 c 2
 239 785 l 2
 239 767 241 738 197 738 c 2
 162 738 l 2
 141 738 116 739 116 782 c 2xf6
301 780 m 2
 301 814 l 2
 301 837 301 861 345 861 c 2
 379 861 l 2
 401 861 424 859 424 817 c 2
 424 782 l 2
 424 753 415 738 381 738 c 2xf2
 347 738 l 2
 327 738 301 739 301 780 c 2
EndSplineSet
Refer: 76 69 S 1 0 0 1 -0 -0 3
EndChar

StartChar: Igrave
Encoding: 204 204 211
Width: 283
Flags: HW
TeX: 866 0
HStem: -0 21<107.5 182.5> 674 20<102 169> 847 30<-13.3474 35.0142>
VStem: -14 258 81 123<3.10008 691.083>
AnchorPoint: "below" 141 0 basechar 0
AnchorPoint: "above" 141 876 basechar 0
LayerCount: 2
Fore
SplineSet
-14 866 m 0
 -14 875 -5 877 6 877 c 2
 109 877 l 2
 129 877 130 872 215 805 c 0
 241 784 244 781 244 775 c 0
 244 770 242 764 225 764 c 2xf0
 189 764 l 2
 187 764 185 763 183 763 c 0
 168 763 166 767 7 847 c 0
 -8 854 -14 858 -14 866 c 0
EndSplineSet
Refer: 80 73 S 1 0 0 1 1 -0 2
AlternateSubs2: "Stilistic set 01 subtable" Igrave.vn
AlternateSubs2: "Latin alternatives subtable" Igrave.vn
Substitution2: "Latin Vietnamese substitutions subtable" Igrave.vn
EndChar

StartChar: Iacute
Encoding: 205 205 212
Width: 283
Flags: HW
TeX: 866 0
ItalicCorrection: 68
HStem: 0 21<106.5 181.5> 674 20<101 168> 835 42<236.487 317.384>
VStem: 65 259 80 123<3.10008 691.083>
AnchorPoint: "below" 141 0 basechar 0
AnchorPoint: "above" 141 876 basechar 0
LayerCount: 2
Fore
SplineSet
65 775 m 0xf0
 65 785 84 797 94 805 c 0
 185 877 178 877 203 877 c 2xe8
 295 877 l 2
 307 877 324 878 324 866 c 0
 324 855 301 846 278 835 c 0
 136 764 142 763 120 763 c 0
 117 763 115 764 112 764 c 0
 106 764 99 763 93 763 c 0xf0
 75 763 65 766 65 775 c 0xf0
EndSplineSet
Refer: 80 73 S 1 0 0 1 -0 0 3
AlternateSubs2: "Stilistic set 01 subtable" Iacute.vn
AlternateSubs2: "Latin alternatives subtable" Iacute.vn
Substitution2: "Latin Vietnamese substitutions subtable" Iacute.vn
EndChar

StartChar: Icircumflex
Encoding: 206 206 213
Width: 283
Flags: HW
TeX: 902 0
HStem: 0 21<106.5 181.5> 674 20<101 168>
VStem: -7 297<735 754> 80 123<3.10008 691.083>
AnchorPoint: "below" 141 0 basechar 0
AnchorPoint: "above" 141 911 basechar 0
LayerCount: 2
Fore
SplineSet
-7 746 m 0
 -7 754 -7 751 88 894 c 0
 97 907 99 912 117 912 c 2
 165 912 l 2
 182 912 185 910 193 898 c 0
 290 753 290 755 290 747 c 0
 290 735 276 735 266 735 c 0xe0
 261 735 256 735 251 735 c 0
 232 735 231 738 204 767 c 2
 142 836 l 1
 141 836 l 1
 126 818 118 810 63 750 c 0
 49 735 47 735 31 735 c 2
 20 735 l 2
 8 735 -7 734 -7 746 c 0
EndSplineSet
Refer: 80 73 S 1 0 0 1 0 0 3
EndChar

StartChar: Idieresis
Encoding: 207 207 214
Width: 283
Flags: HW
TeX: 902 0
HStem: 0 21<106.5 181.5> 674 20<101 168> 738 123<-9.0625 107.722 175.001 292.05>
VStem: -12 123<741.462 857.997> 80 123<3.10008 691.083> 172 123<741.229 858.176>
AnchorPoint: "below" 141 0 basechar 0
AnchorPoint: "above" 141 860 basechar 0
LayerCount: 2
Fore
SplineSet
-12 780 m 0
 -12 793 -12 806 -12 819 c 0
 -12 854 4 861 32 861 c 0
 43 861 54 861 65 861 c 0
 87 861 111 859 111 817 c 0xf0
 111 807 111 797 111 787 c 0
 111 768 112 738 68 738 c 2
 33 738 l 2
 13 738 -12 739 -12 780 c 0
172 781 m 0xe4
 172 793 172 805 172 817 c 0
 172 852 186 861 216 861 c 0
 227 861 238 861 249 861 c 0
 269 861 295 860 295 819 c 2
 295 785 l 2
 295 766 296 738 252 738 c 2
 218 738 l 2
 198 738 172 738 172 781 c 0xe4
EndSplineSet
Refer: 80 73 S 1 0 0 1 0 0 3
EndChar

StartChar: Eth
Encoding: 208 208 215
Width: 687
Flags: HW
TeX: 694 0
HStem: 0 76<201 412.49> 309 64<-27.2098 81 201 374.243> 619 75<201 410.825>
VStem: 81 120<76 309 373 619> 515 120<188.77 502.166>
LayerCount: 2
Fore
SplineSet
-29 341 m 0
 -29 351 -24 373 13 373 c 2
 81 373 l 1
 81 648 l 2
 81 670 83 694 123 694 c 2
 329 694 l 2
 574 694 635 520 635 341 c 0
 635 168 574 0 329 0 c 2
 122 0 l 2
 80 0 81 29 81 46 c 2
 81 309 l 1
 11 309 l 2
 -25 309 -29 332 -29 341 c 0
201 76 m 1
 284 76 l 2
 291 76 296 75 303 75 c 0
 480 75 515 190 515 334 c 2
 515 340 l 2
 515 483 492 619 304 619 c 2
 201 619 l 1
 201 373 l 1
 332 373 l 2
 370 373 376 354 376 341 c 0
 376 324 362 309 343 309 c 2
 201 309 l 1
 201 76 l 1
EndSplineSet
EndChar

StartChar: Ntilde
Encoding: 209 209 216
Width: 677
Flags: HW
TeX: 902 0
HStem: 0 21<102.5 164 469.5 574> 674 20<103.5 206.5 512 574> 735 65<367.532 423.872> 837 65<251.412 309.028>
VStem: 80 104<3.22084 591> 180 65<735.009 832.757> 432 64<802.098 902.941> 492 104<103 691.205>
DStem2: 253 670 184 591 0.37424 -0.927332<47.4367 252.622>
LayerCount: 2
Fore
SplineSet
180 756 m 0
 180 805 199 902 274 902 c 0
 347 902 355 800 400 800 c 0
 419 800 432 818 432 876 c 2
 432 881 l 2
 432 892 434 903 456 903 c 0xf6
 462 903 468 903 474 903 c 0
 495 903 496 894 496 881 c 0
 496 834 478 735 403 735 c 0
 330 735 321 837 276 837 c 0
 257 837 245 819 245 761 c 0
 245 748 247 735 222 735 c 2
 202 735 l 2
 180 735 180 748 180 756 c 0
EndSplineSet
Refer: 85 78 S 1 0 0 1 0 0 3
EndChar

StartChar: Oacute
Encoding: 211 211 218
Width: 697
Flags: HW
TeX: 866 0
HStem: -20 73<274.749 420.646> 643 71<269.308 424.888> 835 42<403.487 484.384>
VStem: 52 123<182.253 503.812> 521 122<182.19 504.422>
AnchorPoint: "below" 348 0 basechar 0
AnchorPoint: "above" 348 857 basechar 0
LayerCount: 2
Fore
SplineSet
232 775 m 0
 232 785 250 796 260 804 c 0
 351 876 345 877 370 877 c 2
 463 877 l 2
 475 877 491 878 491 866 c 0
 491 855 468 846 445 835 c 0
 303 764 309 763 287 763 c 0
 284 763 282 764 279 764 c 0
 273 764 266 763 260 763 c 0
 242 763 232 766 232 775 c 0
EndSplineSet
Refer: 86 79 S 1 0 0 1 -0 0 3
AlternateSubs2: "Stilistic set 01 subtable" Oacute.vn
AlternateSubs2: "Latin alternatives subtable" Oacute.vn
Substitution2: "Latin Vietnamese substitutions subtable" Oacute.vn
EndChar

StartChar: Ocircumflex
Encoding: 212 212 219
Width: 697
Flags: HW
TeX: 902 0
HStem: -20 73<274.749 420.646> 643 71<269.308 424.888> 836 76<327.17 367.646>
VStem: 52 123<182.253 503.812> 521 122<182.19 504.422>
AnchorPoint: "below" 348 0 basechar 0
AnchorPoint: "above" 348 892 basechar 0
LayerCount: 2
Fore
SplineSet
199 746 m 0
 199 754 198 752 294 895 c 0
 303 908 306 912 323 912 c 2
 371 912 l 2
 388 912 390 911 411 880 c 0
 496 752 496 753 496 746 c 0
 496 734 482 735 472 735 c 2
 456 735 l 2
 435 735 439 736 348 836 c 1
 347 836 l 1
 255 735 261 735 236 735 c 2
 225 735 l 2
 213 735 199 734 199 746 c 0
EndSplineSet
Refer: 86 79 S 1 0 0 1 0 0 3
AlternateSubs2: "Stilistic set 01 subtable" Ocircumflex.vn
AlternateSubs2: "Latin alternatives subtable" Ocircumflex.vn
Substitution2: "Latin Vietnamese substitutions subtable" Ocircumflex.vn
EndChar

StartChar: Otilde
Encoding: 213 213 220
Width: 697
Flags: HW
TeX: 902 0
HStem: -20 73<274.749 420.646> 643 71<269.308 424.888> 735 65<377.017 433.46> 837 65<260.429 318.264>
VStem: 52 123<182.253 503.812> 190 64<735.009 835.298> 441 65<803.166 902.941> 521 122<182.19 504.422>
AnchorPoint: "below" 348 0 basechar 0
AnchorPoint: "above" 348 883 basechar 0
LayerCount: 2
Fore
SplineSet
190 756 m 0
 190 804 208 902 283 902 c 0
 356 902 364 800 410 800 c 0
 429 800 441 818 441 875 c 2
 441 881 l 2
 441 892 443 903 465 903 c 2
 484 903 l 2
 505 903 506 894 506 880 c 0
 506 837 487 735 413 735 c 0
 339 735 331 837 285 837 c 0
 266 837 254 819 254 762 c 0
 254 746 256 735 231 735 c 2
 211 735 l 2
 189 735 190 747 190 756 c 0
EndSplineSet
Refer: 86 79 S 1 0 0 1 -0 0 3
AlternateSubs2: "Stilistic set 01 subtable" Otilde.vn
AlternateSubs2: "Latin alternatives subtable" Otilde.vn
Substitution2: "Latin Vietnamese substitutions subtable" Otilde.vn
EndChar

StartChar: Odieresis
Encoding: 214 214 221
Width: 697
Flags: HW
TeX: 902 0
HStem: -20 73<274.749 420.646> 643 71<269.308 424.888> 738 123<197.001 313.464 381.982 497.766>
VStem: 52 123<182.253 503.812> 194 122<740.883 858.176> 379 122<741.11 858.152> 521 122<182.19 504.422>
AnchorPoint: "below" 348 0 basechar 0
AnchorPoint: "above" 348 841 basechar 0
LayerCount: 2
Fore
SplineSet
194 781 m 0
 194 793 194 805 194 817 c 0
 194 852 208 861 238 861 c 2
 271 861 l 2
 291 861 317 860 317 819 c 0
 317 816 316 813 316 810 c 2
 316 785 l 2
 316 767 318 738 274 738 c 2
 240 738 l 2
 219 738 194 738 194 781 c 0
379 780 m 0
 379 793 379 806 379 819 c 0
 379 853 393 861 422 861 c 2
 456 861 l 2
 478 861 501 859 501 817 c 0
 501 807 501 797 501 787 c 0
 501 768 503 738 459 738 c 2
 424 738 l 2
 404 738 379 739 379 780 c 0
EndSplineSet
Refer: 86 79 S 1 0 0 1 0 0 3
EndChar

StartChar: OE
Encoding: 338 338 222
Width: 925
Flags: HW
TeX: 694 0
HStem: -20 65<261.119 419.4> -0 93<570 882.537> 319 81<570 842.554> 604 90<570 869.08> 649 65<259.773 420.922>
VStem: 28 120<196.527 503.057> 450 120<94.3594 319 400 604.349>
AnchorPoint: "above" 510 713 basechar 0
LayerCount: 2
Fore
SplineSet
28 342 m 0
 28 658 224 714 342 714 c 0xae
 409 714 438 694 529 694 c 2
 829 694 l 2
 873 694 872 666 872 647 c 0
 872 612 857 604 829 604 c 1
 803 605 596 607 570 607 c 1
 570 400 l 1
 802 400 l 2
 830 400 845 392 845 359 c 0
 845 343 843 319 804 319 c 2
 570 319 l 1
 570 93 l 1x76
 573 93 843 97 843 97 c 2
 868 97 885 89 885 55 c 0
 885 21 886 0 839 -0 c 2
 512 -0 l 2x76
 451 0 404 -20 343 -20 c 0
 219 -20 28 37 28 342 c 0
148 361 m 0xae
 148 91 267 45 346 45 c 0
 437 45 450 85 450 229 c 2
 450 463 l 2
 450 614 436 649 346 649 c 0
 267 649 148 606 148 361 c 0xae
EndSplineSet
EndChar

StartChar: Oslash
Encoding: 216 216 223
Width: 739
Flags: HW
TeX: 736 41
HStem: -20 65<273.015 460.297> 649 65<277.506 460.867>
VStem: 52 112<188.41 497.427> 573 111<187.772 504.01>
DStem2: 173 39 235 4 0.450507 0.892773<-85.8311 -0.379 88.9998 636.204 725.712 812.312>
LayerCount: 2
Fore
SplineSet
52 340 m 0
 53 671 259 714 368 714 c 0
 421 714 464 704 501 689 c 1
 535 763 544 768 562 768 c 0
 580 768 598 755 598 735 c 0
 598 723 580 688 562 654 c 1
 644 594 684 483 684 344 c 0
 684 69 531 -20 369 -20 c 0
 302 -20 260 -5 235 4 c 1
 206 -58 197 -74 175 -74 c 0
 157 -74 138 -60 138 -40 c 0
 138 -29 146 -14 173 39 c 1
 84 103 52 220 52 340 c 0
164 337 m 2
 164 285 166 180 214 118 c 1
 468 624 l 1
 439 639 409 649 368 649 c 0
 301 649 242 619 209 567 c 0
 168 502 164 422 164 349 c 2
 164 337 l 2
268 69 m 1
 297 55 329 45 369 45 c 0
 420 45 470 62 506 98 c 0
 568 160 573 266 573 341 c 0
 573 429 571 499 523 575 c 1
 268 69 l 1
EndSplineSet
EndChar

StartChar: Uacute
Encoding: 218 218 225
Width: 656
Flags: HW
TeX: 866 0
HStem: -20 76<256.461 407.871> 674 20<106.5 167.5 493.5 552> 835 42<423.487 504.384>
VStem: 80 123<119.335 690.999> 464 112<120.326 690.936>
AnchorPoint: "below" 330 0 basechar 0
AnchorPoint: "above" 328 876 basechar 0
LayerCount: 2
Fore
SplineSet
252 775 m 0
 252 785 270 796 280 804 c 0
 371 876 365 877 390 877 c 2
 483 877 l 2
 495 877 511 878 511 866 c 0
 511 855 488 846 465 835 c 0
 323 764 329 763 307 763 c 0
 304 763 302 764 299 764 c 0
 293 764 286 763 280 763 c 0
 262 763 252 766 252 775 c 0
EndSplineSet
Refer: 92 85 S 1 0 0 1 -0 0 3
AlternateSubs2: "Stilistic set 01 subtable" Uacute.vn
AlternateSubs2: "Latin alternatives subtable" Uacute.vn
Substitution2: "Latin Vietnamese substitutions subtable" Uacute.vn
EndChar

StartChar: Ucircumflex
Encoding: 219 219 226
Width: 656
Flags: HW
TeX: 902 0
HStem: -20 76<256.461 407.871> 674 20<106.5 167.5 493.5 552> 836 76<310.188 350.646>
VStem: 80 123<119.335 690.999> 464 112<120.326 690.936>
AnchorPoint: "below" 330 0 basechar 0
AnchorPoint: "above" 328 911 basechar 0
LayerCount: 2
Fore
SplineSet
182 746 m 0
 182 754 182 751 278 895 c 0
 285 906 288 912 306 912 c 2
 348 912 l 2
 364 912 367 910 377 897 c 0
 479 752 479 753 479 746 c 0
 479 735 465 735 455 735 c 2
 440 735 l 2
 418 735 422 736 331 836 c 1
 330 836 l 1
 238 735 245 735 220 735 c 2
 208 735 l 2
 196 735 182 734 182 746 c 0
EndSplineSet
Refer: 92 85 S 1 0 0 1 -0 0 3
EndChar

StartChar: Udieresis
Encoding: 220 220 227
Width: 656
Flags: HW
TeX: 902 0
HStem: -20 76<256.461 407.871> 674 20<106.5 167.5 493.5 552> 738 123<177.537 293.949 362.163 477.949>
VStem: 80 123<119.335 690.999> 174 123<741.144 858.202> 359 122<740.802 858.205> 464 112<120.326 690.936>
AnchorPoint: "below" 330 0 basechar 0
AnchorPoint: "above" 328 860 basechar 0
LayerCount: 2
Fore
SplineSet
174 781 m 2
 174 818 l 2
 174 852 189 861 218 861 c 2
 252 861 l 2
 274 861 297 859 297 818 c 2xe8
 297 786 l 2
 297 771 299 738 258 738 c 2
 215 738 l 2
 200 738 174 741 174 781 c 2
359 781 m 2xe4
 359 818 l 2
 359 853 374 861 403 861 c 2
 436 861 l 2
 458 861 481 859 481 818 c 2
 481 786 l 2
 481 767 483 738 439 738 c 2
 404 738 l 2
 383 738 359 740 359 781 c 2xe4
EndSplineSet
Refer: 92 85 S 1 0 0 1 -0 0 3
EndChar

StartChar: Thorn
Encoding: 222 222 229
Width: 556
Flags: HW
TeX: 694 0
HStem: -0 21G<99.5 175.5> 180 76<197 345.799> 509 76<197 343.696> 674 20G<102 162.5>
VStem: 80 117<2.91655 180 256 509 585 691.218> 387 115<298.005 464.578>
LayerCount: 2
Fore
SplineSet
80 44 m 2
 80 652 l 2
 80 672 83 694 121 694 c 2
 155 694 l 2
 170 694 197 693 197 652 c 2
 197 585 l 1
 294 585 l 1
 335 583 502 590 502 382 c 0
 502 281 461 180 296 180 c 2
 197 180 l 1
 197 42 l 2
 197 26 197 0 154 -0 c 0
 143 0 132 0 121 -0 c 0
 78 0 80 30 80 44 c 2
197 256 m 1
 271 256 l 2
 341 256 387 290 387 382 c 0
 387 484 327 509 257 509 c 2
 197 509 l 1
 197 256 l 1
EndSplineSet
EndChar

StartChar: Germandbls
Encoding: 61699 61699 230
Width: 1056
Flags: HW
TeX: 694 0
HStem: -20 94<158.756 333.445 686.747 860.478> 626 88<193.373 357.417 721.01 884.917>
VStem: 53 105<466.195 591.619> 369 105<111.226 252.426> 580 106<466.195 593.937> 896 106<111.629 252.848>
LayerCount: 2
Fore
SplineSet
43 65 m 0
 43 73 54 134 57 141 c 0
 60 148 63 150 67 150 c 0
 83 150 143 74 262 74 c 0
 348 74 369 134 369 184 c 0
 369 242 333 271 319 280 c 0
 269 314 177 298 105 377 c 0
 68 417 53 465 53 513 c 0
 53 601 95 714 266 714 c 0
 318 714 365 705 418 675 c 0
 435 665 441 663 441 650 c 1
 441 650 434 565 417 565 c 0
 398 565 370 626 265 626 c 0
 180 626 158 571 158 528 c 0
 158 472 200 443 222 434 c 0
 267 415 331 416 389 372 c 0
 434 338 474 276 474 194 c 0
 474 101 432 -20 263 -20 c 0
 182 -20 106 8 56 45 c 0
 50 50 43 54 43 65 c 0
571 63 m 0
 571 82 584 140 584 141 c 0
 587 148 591 150 595 150 c 0
 611 150 670 74 789 74 c 0
 875 74 896 134 896 184 c 0
 896 242 861 271 847 280 c 0
 797 314 705 298 633 377 c 0
 596 417 580 465 580 513 c 0
 580 601 623 714 794 714 c 0
 846 714 893 705 946 675 c 0
 963 665 968 663 968 650 c 1
 968 650 961 565 944 565 c 0
 925 565 897 626 792 626 c 0
 707 626 686 572 686 528 c 0
 686 472 727 443 749 434 c 0
 794 415 859 416 917 372 c 0
 962 338 1002 277 1002 195 c 0
 1002 102 959 -20 790 -20 c 0
 692 -20 571 36 571 63 c 0
EndSplineSet
EndChar

StartChar: acircumflex
Encoding: 226 226 233
Width: 452
Flags: HW
TeX: 680 0
HStem: -10 65<152.994 234.412> 0 21<308 368> 256 36<206.376 287> 428 59<135.846 267.223> 624 66<202.88 250.625>
VStem: 26 106<76.2425 201.29> 287 111<3.9642 68 86.1455 256 292 407.865>
AnchorPoint: "below" 224 0 basechar 0
AnchorPoint: "above" 224 670 basechar 0
LayerCount: 2
Fore
SplineSet
78 554 m 0
 78 562 93 578 164 664 c 0
 185 689 187 690 202 690 c 2
 271 690 l 2
 285 690 290 689 300 675 c 0
 373 565 375 562 375 554 c 0
 375 545 367 542 358 542 c 0
 351 542 344 542 337 542 c 0
 319 542 319 543 290 568 c 0
 269 587 248 604 227 624 c 1
 226 624 l 1
 211 609 203 603 147 554 c 0
 135 544 130 542 114 542 c 2x3e
 100 542 l 2
 90 542 78 543 78 554 c 0
EndSplineSet
Refer: 104 97 S 1 0 0 1 0 0 3
AlternateSubs2: "Stilistic set 01 subtable" acircumflex.vn
AlternateSubs2: "Latin alternatives subtable" acircumflex.vn
Substitution2: "Latin Vietnamese substitutions subtable" acircumflex.vn
EndChar

StartChar: atilde
Encoding: 227 227 234
Width: 452
Flags: HW
TeX: 680 0
HStem: -10 65<152.994 234.412> -0 21<308 368> 256 36<206.376 287> 428 59<135.846 267.223> 564 65<253.476 326.149> 615 65<148.077 220.906>
VStem: 26 106<76.2425 201.29> 79 61<564.214 609.638> 287 111<3.9642 68 86.1455 256 292 407.865> 334 61<632.711 680.786>
AnchorPoint: "below" 224 0 basechar 0
AnchorPoint: "above" 224 661 basechar 0
LayerCount: 2
Fore
SplineSet
79 582 m 0
 79 621 113 680 175 680 c 0x3540
 238 680 266 629 299 629 c 0
 328 629 329 667 334 674 c 0
 339 681 348 681 360 681 c 0
 387 681 395 680 395 662 c 0
 395 624 361 564 299 564 c 0x3940
 236 564 209 615 176 615 c 0x3540
 147 615 145 578 140 571 c 0
 135 564 127 564 114 564 c 0x3940
 87 564 79 565 79 582 c 0
EndSplineSet
Refer: 104 97 S 1 0 0 1 -0 -0 3
AlternateSubs2: "Stilistic set 01 subtable" atilde.vn
AlternateSubs2: "Latin alternatives subtable" atilde.vn
Substitution2: "Latin Vietnamese substitutions subtable" atilde.vn
EndChar

StartChar: adieresis
Encoding: 228 228 235
Width: 452
Flags: HW
TeX: 694 0
HStem: -10 65<152.994 234.412> 0 21<308 368> 256 36<206.376 287> 428 59<135.846 267.223> 572 122<86.0009 203.129 270.585 387.949>
VStem: 26 106<76.2425 201.29> 83 123<574.867 691.176> 268 123<574.271 691.308> 287 111<3.9642 68 86.1455 256 292 407.865>
AnchorPoint: "below" 224 0 basechar 0
AnchorPoint: "above" 224 674 basechar 0
LayerCount: 2
Fore
SplineSet
83 615 m 2x3a
 83 650 l 2
 83 685 97 694 127 694 c 2
 161 694 l 2
 181 694 206 693 206 652 c 0
 206 641 206 630 206 619 c 0
 206 601 208 571 164 571 c 0
 160 571 155 572 151 572 c 2
 129 572 l 2
 109 572 83 572 83 615 c 2x3a
268 613 m 0
 268 626 268 639 268 652 c 0
 268 687 284 694 312 694 c 2
 346 694 l 2
 368 694 391 693 391 651 c 2x39
 391 620 l 2
 391 600 392 571 348 571 c 0
 344 571 340 572 336 572 c 2
 314 572 l 2
 294 572 268 571 268 613 c 0
EndSplineSet
Refer: 104 97 S 1 0 0 1 -0 0 3
EndChar

StartChar: ae
Encoding: 230 230 237
Width: 686
Flags: HW
TeX: 472 0
HStem: -10 65<150.762 264.448 447.772 581.7> 232 48<400 570> 428 59<134.191 268.251 447.853 534.702>
VStem: 26 107<73.7462 175.677> 287 113<280 372.277> 299 99<115.763 215.271> 570 89<280 389.318>
AnchorPoint: "below" 342 0 basechar 0
AnchorPoint: "above" 344 487 basechar 0
LayerCount: 2
Fore
SplineSet
26 124 m 0
 26 238 179 265 287 266 c 1
 287 337 l 1xfa
 286 383 274 428 221 428 c 0
 129 428 96 370 78 370 c 0
 77 370 75 370 74 371 c 0
 64 377 64 425 64 429 c 0
 64 442 68 446 87 456 c 0
 112 468 156 487 225 487 c 0
 279 487 322 477 359 441 c 1
 361 441 l 1
 400 475 452 487 491 487 c 0
 558 487 659 456 659 274 c 0
 659 233 633 232 614 232 c 2
 398 232 l 1
 399 167 411 55 509 55 c 0
 547 55 589 74 617 105 c 0
 625 114 632 124 639 124 c 0
 647 124 653 115 653 68 c 0
 653 54 648 49 631 35 c 0
 600 9 556 -10 503 -10 c 0
 448 -10 387 9 346 54 c 1
 292 4 211 -10 155 -10 c 0
 64 -10 26 69 26 124 c 0
133 125 m 0
 133 90 158 55 200 55 c 0
 255 55 299 98 299 134 c 0xf6
 299 151 290 159 287 218 c 1
 250 215 133 207 133 125 c 0
400 280 m 1
 570 280 l 1
 568 344 560 422 492 422 c 0xfa
 455 422 407 394 400 280 c 1
EndSplineSet
EndChar

StartChar: ccedilla
Encoding: 231 231 238
Width: 422
Flags: HW
TeX: 472 145
HStem: -40 20G<224 253.5> -10 71<183.825 320.88> 417 70<184.798 328.253>
VStem: 31 112<108.547 364.656>
AnchorPoint: "above" 242 487 basechar 0
LayerCount: 2
Fore
SplineSet
31 230 m 0
 31 454 157 487 242 487 c 0
 294 487 325 478 357 461 c 0
 381 448 388 444 388 431 c 1
 388 431 384 370 369 370 c 0
 348 370 333 417 242 417 c 0
 145 417 143 301 143 240 c 2
 143 228 l 2
 143 169 150 61 240 61 c 0
 333 61 362 126 379 126 c 0
 388 126 394 111 394 66 c 0
 394 36 316 -10 237 -10 c 0
 155 -10 31 31 31 230 c 0
129 -154 m 0
 129 -144 140 -129 198 -38 c 0
 209 -20 213 -20 235 -20 c 2
 245 -20 l 2
 262 -20 267 -25 267 -32 c 0
 267 -38 263 -47 260 -54 c 0
 210 -166 216 -164 195 -165 c 1
 151 -165 l 2
 135 -165 129 -161 129 -154 c 0
EndSplineSet
EndChar

StartChar: ecircumflex
Encoding: 234 234 241
Width: 438
Flags: HW
TeX: 680 0
HStem: -10 65<183.006 328.17> 232 48<130 325> 422 65<176.712 289.157> 624 66<194.017 219>
VStem: 26 103<122.807 232 280 363.812> 325 86<280 381.515>
AnchorPoint: "below" 243 0 basechar 0
AnchorPoint: "above" 230 670 basechar 0
LayerCount: 2
Fore
SplineSet
70 553 m 0
 70 562 70 560 165 675 c 0
 177 689 183 690 195 690 c 2
 242 690 l 2
 263 690 265 684 283 662 c 0
 357 573 368 561 368 553 c 0
 368 542 356 542 345 542 c 2
 331 542 l 2
 311 542 308 546 286 565 c 2
 219 624 l 1
 218 624 l 1
 202 609 194 603 138 553 c 0
 125 542 119 542 104 542 c 2
 96 542 l 2
 85 542 70 542 70 553 c 0
EndSplineSet
Refer: 108 101 S 1 0 0 1 0 0 3
AlternateSubs2: "Stilistic set 01 subtable" ecircumflex.vn
AlternateSubs2: "Latin alternatives subtable" ecircumflex.vn
Substitution2: "Latin Vietnamese substitutions subtable" ecircumflex.vn
EndChar

StartChar: edieresis
Encoding: 235 235 242
Width: 438
Flags: HW
TeX: 694 0
HStem: -10 65<183.006 328.17> 232 48<130 325> 422 65<176.712 289.157> 572 122<68.2225 184.766 253.094 369.129>
VStem: 26 103<122.807 232 280 363.812> 65 123<574.468 691.202> 250 122<574.263 691.218> 325 86<280 381.515>
AnchorPoint: "below" 243 0 basechar 0
AnchorPoint: "above" 230 674 basechar 0
LayerCount: 2
Fore
SplineSet
65 614 m 2xf4
 65 651 l 2
 65 685 80 694 109 694 c 0
 120 694 131 694 142 694 c 0
 164 694 188 692 188 651 c 2
 188 620 l 2
 188 602 190 571 146 571 c 0
 142 571 137 572 133 572 c 0
 124 572 114 572 105 572 c 0
 90 572 65 574 65 614 c 2xf4
249 614 m 0
 249 617 250 620 250 623 c 2xf2
 250 651 l 2
 250 687 266 694 294 694 c 2
 327 694 l 2
 348 694 372 693 372 652 c 0
 372 641 372 630 372 619 c 0
 372 600 374 571 330 571 c 0
 326 571 321 572 317 572 c 2
 295 572 l 2
 273 572 249 573 249 614 c 0
EndSplineSet
Refer: 108 101 S 1 0 0 1 0 0 3
EndChar

StartChar: igrave
Encoding: 236 236 243
Width: 219
Flags: HW
TeX: 680 0
HStem: -0 21<79.5 143> 453 20<76 100 119 138> 672 20G<-19 63.5>
VStem: -33 199 55 109<2.82629 470.075>
AnchorPoint: "below" 109 0 basechar 0
AnchorPoint: "above" 109 687 basechar 0
LayerCount: 2
Fore
SplineSet
-33 681 m 0
 -33 690 -23 692 -15 692 c 2
 53 692 l 2
 74 692 75 686 91 664 c 0
 153 577 166 562 166 553 c 0
 166 546 161 542 146 542 c 2xf0
 124 542 l 2
 113 542 110 542 93 558 c 0
 -31 672 -33 671 -33 681 c 0
EndSplineSet
Refer: 32 305 S 1 0 0 1 0 -0 3
AlternateSubs2: "Stilistic set 01 subtable" igrave.vn
AlternateSubs2: "Latin alternatives subtable" igrave.vn
Substitution2: "Latin Vietnamese substitutions subtable" igrave.vn
Ligature2: "Latin ligatures excepting Turkic subtable" i gravecomb
EndChar

StartChar: iacute
Encoding: 237 237 244
Width: 219
Flags: HW
TeX: 680 0
ItalicCorrection: 37
HStem: 0 21<79.5 143> 453 20<76 100 119 138> 672 20G<129 210>
VStem: 26 199 55 109<2.82629 470.075>
AnchorPoint: "below" 109 0 basechar 0
AnchorPoint: "above" 109 687 basechar 0
LayerCount: 2
Fore
SplineSet
26 554 m 0
 26 563 39 577 99 661 c 0
 119 689 120 692 138 692 c 2
 206 692 l 2
 214 692 225 690 225 680 c 0
 225 670 225 673 97 555 c 0
 83 542 78 542 66 542 c 2xf0
 49 542 l 2
 38 542 26 544 26 554 c 0
EndSplineSet
Refer: 32 305 S 1 0 0 1 -0 0 3
AlternateSubs2: "Stilistic set 01 subtable" iacute.vn
AlternateSubs2: "Latin alternatives subtable" iacute.vn
Substitution2: "Latin Vietnamese substitutions subtable" iacute.vn
Ligature2: "Cyrillic ligatures subtable" afii10103 acutecomb
Ligature2: "Latin ligatures excepting Turkic subtable" i acutecomb
EndChar

StartChar: icircumflex
Encoding: 238 238 245
Width: 219
Flags: HW
TeX: 680 0
HStem: 0 21<80.5 144> 453 20<77 101 120 139> 624 66<86.0168 134.97>
VStem: -38 297<542 561> 56 109<2.82629 470.075>
AnchorPoint: "below" 109 0 basechar 0
AnchorPoint: "above" 109 685 basechar 0
LayerCount: 2
Fore
SplineSet
-38 553 m 0
 -38 562 -21 580 57 675 c 0
 69 689 75 690 87 690 c 2
 134 690 l 2
 155 690 156 684 174 662 c 0
 248 573 259 561 259 553 c 0
 259 542 248 542 237 542 c 2xf0
 223 542 l 2
 203 542 200 546 178 565 c 0
 156 585 133 603 111 624 c 1
 110 624 l 1
 94 609 86 603 30 553 c 0
 18 543 14 542 -10 542 c 2
 -12 542 l 2
 -23 542 -38 542 -38 553 c 0
EndSplineSet
Refer: 32 305 S 1 0 0 1 1 0 2
Ligature2: "Latin ligatures excepting Turkic subtable" i uni0302
EndChar

StartChar: idieresis
Encoding: 239 239 246
Width: 272
Flags: HW
TeX: 694 0
HStem: 0 21<106.5 170> 453 20<103 127 146 165> 572 122<-13.7775 102.827 170.285 287.129>
VStem: -17 123<574.764 690.939> 82 109<2.82629 470.075> 167 123<574.782 690.469>
AnchorPoint: "above" 136 674 basechar 0
LayerCount: 2
Fore
SplineSet
-17 614 m 2
 -17 651 l 2
 -17 685 -2 694 27 694 c 0
 38 694 49 694 60 694 c 0
 82 694 106 692 106 652 c 2xf0
 106 620 l 2
 106 605 108 571 67 571 c 2
 64 571 l 2
 60 571 55 572 51 572 c 0
 42 572 32 572 23 572 c 0
 8 572 -17 574 -17 614 c 2
167 614 m 2
 167 646 l 2
 167 667 167 694 212 694 c 2
 245 694 l 2
 266 694 290 693 290 652 c 0xe4
 290 641 290 630 290 619 c 0
 290 600 292 571 248 571 c 0
 244 571 239 572 235 572 c 2
 213 572 l 2
 192 572 167 573 167 614 c 2
EndSplineSet
Refer: 32 305 S 1 0 0 1 27 0 2
Ligature2: "Latin ligatures excepting Turkic subtable" i uni0308
EndChar

StartChar: eth
Encoding: 240 240 247
Width: 475
Flags: HW
TeX: 694 0
HStem: -10 71<178.441 293.411> 422 65<178.836 254.338> 546 146<121.714 181.07>
VStem: 26 112<111.922 362.125> 337 111<113.254 367.218>
LayerCount: 2
Fore
SplineSet
26 231 m 0
 26 447 154 487 239 487 c 2
 255 487 l 1
 227 524 208 541 182 565 c 1
 162 552 152 546 144 546 c 0
 129 546 100 603 100 612 c 0
 100 614 101 617 102 620 c 1
 82 629 73 634 73 641 c 0
 73 651 122 692 134 692 c 0
 145 692 178 676 188 670 c 1
 202 678 224 692 232 692 c 0
 247 692 275 633 275 628 c 0
 275 624 274 620 269 615 c 1
 357 540 448 413 448 238 c 0
 448 19 312 -10 236 -10 c 0
 143 -10 26 38 26 231 c 0
138 233 m 2
 138 185 137 61 237 61 c 0
 330 61 337 171 337 228 c 2
 337 237 l 2
 337 295 324 360 309 383 c 0
 293 408 266 422 237 422 c 0
 158 422 139 347 138 264 c 1
 138 233 l 2
EndSplineSet
EndChar

StartChar: ntilde
Encoding: 241 241 248
Width: 483
Flags: HW
TeX: 680 0
HStem: 0 21<89 142 337.5 407> 417 65<225.216 306.279> 564 65<256.879 328.367> 615 65<151.55 224.121>
VStem: 53 112<3.061 369.539 380 472.501> 83 61<564.183 610.038> 317 111<2.94169 406.021> 337 61<632.711 680.786>
LayerCount: 2
Fore
SplineSet
83 582 m 0
 83 622 117 680 178 680 c 0xd5
 241 680 269 629 302 629 c 0
 331 629 332 667 337 674 c 0
 342 681 351 681 363 681 c 0
 390 681 398 680 398 662 c 0
 398 624 365 564 303 564 c 0xe5
 240 564 212 615 179 615 c 0xd5
 150 615 149 578 144 571 c 0
 139 564 130 564 117 564 c 0xe5
 90 564 83 565 83 582 c 0
EndSplineSet
Refer: 117 110 S 1 0 0 1 -0 0 3
EndChar

StartChar: ocircumflex
Encoding: 244 244 251
Width: 475
Flags: HW
TeX: 680 0
HStem: -10 71<177.448 296.698> 422 65<177.608 297.543> 624 66<213.88 261.994>
VStem: 26 112<106.077 361.703> 337 111<110.805 361.101>
AnchorPoint: "below" 237 0 basechar 0
AnchorPoint: "above" 237 670 basechar 0
LayerCount: 2
Fore
SplineSet
88 553 m 0
 88 561 103 577 173 662 c 0
 191 683 193 690 214 690 c 2
 261 690 l 2
 273 690 279 689 291 675 c 0
 385 562 386 562 386 553 c 0
 386 542 371 542 360 542 c 2
 358 542 l 2
 326 542 327 545 303 566 c 0
 281 586 259 604 238 624 c 1
 237 624 l 1
 222 609 214 603 158 554 c 0
 146 544 141 542 125 542 c 2
 111 542 l 2
 101 542 88 542 88 553 c 0
EndSplineSet
Refer: 118 111 S 1 0 0 1 0 0 3
AlternateSubs2: "Stilistic set 01 subtable" ocircumflex.vn
AlternateSubs2: "Latin alternatives subtable" ocircumflex.vn
Substitution2: "Latin Vietnamese substitutions subtable" ocircumflex.vn
EndChar

StartChar: otilde
Encoding: 245 245 252
Width: 475
Flags: HW
TeX: 680 0
HStem: -10 71<177.448 296.698> 422 65<177.608 297.543> 564 65<253.476 326.149> 615 65<148.077 220.906>
VStem: 26 112<106.077 361.703> 79 61<564.214 609.638> 334 61<632.711 680.786> 337 111<110.805 361.101>
AnchorPoint: "below" 237 0 basechar 0
AnchorPoint: "above" 237 661 basechar 0
LayerCount: 2
Fore
SplineSet
79 582 m 0
 79 621 113 680 175 680 c 0xd6
 238 680 266 629 299 629 c 0
 328 629 329 667 334 674 c 0
 339 681 348 681 360 681 c 0
 387 681 395 680 395 662 c 0
 395 624 361 564 299 564 c 0xe6
 236 564 209 615 176 615 c 0xd6
 147 615 145 578 140 571 c 0
 135 564 127 564 114 564 c 0xe6
 87 564 79 565 79 582 c 0
EndSplineSet
Refer: 118 111 S 1 0 0 1 -0 -0 3
AlternateSubs2: "Stilistic set 01 subtable" otilde.vn
AlternateSubs2: "Latin alternatives subtable" otilde.vn
Substitution2: "Latin Vietnamese substitutions subtable" otilde.vn
EndChar

StartChar: odieresis
Encoding: 246 246 253
Width: 475
Flags: HW
TeX: 694 0
HStem: -10 71<177.448 296.698> 422 65<177.608 297.543> 572 122<86.0009 203.129 270.585 387.949>
VStem: 26 112<106.077 361.703> 83 123<574.867 691.176> 268 123<574.271 691.308> 337 111<110.805 361.101>
AnchorPoint: "below" 237 0 basechar 0
AnchorPoint: "above" 237 674 basechar 0
LayerCount: 2
Fore
SplineSet
83 615 m 2xe8
 83 650 l 2
 83 685 97 694 127 694 c 2
 161 694 l 2
 181 694 206 693 206 652 c 0
 206 641 206 630 206 619 c 0
 206 601 208 571 164 571 c 0
 160 571 155 572 151 572 c 2
 129 572 l 2
 109 572 83 572 83 615 c 2xe8
268 613 m 0
 268 626 268 639 268 652 c 0
 268 687 284 694 312 694 c 2
 346 694 l 2
 368 694 391 693 391 651 c 2xe4
 391 620 l 2
 391 600 392 571 348 571 c 0
 344 571 340 572 336 572 c 2
 314 572 l 2
 294 572 268 571 268 613 c 0
EndSplineSet
Refer: 118 111 S 1 0 0 1 -0 0 3
EndChar

StartChar: oe
Encoding: 339 339 254
Width: 739
Flags: HW
TeX: 472 0
HStem: -10 65<177.64 295.475 499.747 633.905> 232 48<452 622> 422 65<175.364 299.342 494.044 594.163>
VStem: 26 106<110.656 364.77> 339 112<114.625 232 280 369.432> 622 90<280 388.922>
AnchorPoint: "below" 369 0 basechar 0
AnchorPoint: "above" 384 487 basechar 0
LayerCount: 2
Fore
SplineSet
26 237 m 0
 26 450 158 487 237 487 c 0
 332 487 377 441 395 423 c 1
 433 467 487 487 543 487 c 0
 610 487 712 456 712 273 c 0
 712 232 684 232 668 232 c 2
 451 232 l 1
 453 155 469 55 560 55 c 0
 607 55 644 78 668 104 c 0
 672 109 682 123 691 123 c 0
 702 123 705 98 705 73 c 0
 705 66 705 61 704 59 c 0
 697 39 637 -10 556 -10 c 0
 460 -10 413 39 396 56 c 1
 356 9 297 -10 237 -10 c 0
 156 -10 26 29 26 237 c 0
132 231 m 1
 133 172 139 119 167 86 c 0
 184 66 211 55 237 55 c 0
 277 55 330 79 338 185 c 0
 339 200 339 216 339 231 c 2
 339 262 l 1
 338 338 325 422 237 422 c 0
 153 422 133 346 132 261 c 1
 132 231 l 1
452 280 m 1
 622 280 l 1
 620 344 613 422 545 422 c 0
 508 422 459 394 452 280 c 1
EndSplineSet
EndChar

StartChar: oslash
Encoding: 248 248 255
Width: 475
Flags: HW
TeX: 555 83
HStem: -10 65<188.795 301.963> 422 65<175.927 287.115>
VStem: 26 102<119.644 361.703> 346 102<106.507 350.9>
DStem2: 100 35 156 3 0.449665 0.893197<-130.522 0.42601 93.0213 388.359 485.582 612.608>
LayerCount: 2
Fore
SplineSet
26 231 m 0
 26 446 153 487 237 487 c 0
 270 487 296 480 320 472 c 1
 373 586 380 587 397 587 c 0
 413 587 429 575 429 556 c 0
 429 541 385 457 375 439 c 1
 426 393 448 325 448 231 c 0
 448 39 333 -10 238 -10 c 0
 197 -10 172 -2 156 3 c 1
 102 -115 94 -115 77 -115 c 0
 62 -115 45 -103 45 -84 c 0
 45 -72 49 -67 100 35 c 1
 72 59 26 109 26 231 c 0
128 230 m 2
 128 192 128 153 142 118 c 1
 288 410 l 1
 273 417 258 422 237 422 c 0
 201 422 164 405 145 360 c 0
 129 321 128 279 128 237 c 2
 128 230 l 2
188 66 m 1
 203 60 217 55 237 55 c 0
 279 55 316 75 334 123 c 0
 346 156 346 191 346 225 c 2
 346 234 l 2
 346 276 347 308 333 353 c 1
 332 353 l 1
 188 66 l 1
EndSplineSet
EndChar

StartChar: ugrave
Encoding: 249 249 256
Width: 483
Flags: HW
TeX: 680 0
HStem: -10 54<174.612 271.67> -0 21<341 395> 452 20<74 142.5 339 391.5> 672 20G<152 233.5>
VStem: 53 112<52.4664 468.784> 319 109<3.25391 74 90.0449 469.318>
AnchorPoint: "below" 241 0 basechar 0
AnchorPoint: "above" 241 687 basechar 0
LayerCount: 2
Fore
SplineSet
138 681 m 0
 138 690 148 692 156 692 c 2
 223 692 l 2
 244 692 246 686 262 664 c 0
 324 577 336 562 336 553 c 0
 336 546 332 542 317 542 c 2x3c
 294 542 l 2
 283 542 280 542 263 558 c 0
 139 672 138 671 138 681 c 0
EndSplineSet
Refer: 124 117 S 1 0 0 1 0 -0 3
AlternateSubs2: "Stilistic set 01 subtable" ugrave.vn
AlternateSubs2: "Latin alternatives subtable" ugrave.vn
Substitution2: "Latin Vietnamese substitutions subtable" ugrave.vn
EndChar

StartChar: uacute
Encoding: 250 250 257
Width: 483
Flags: HW
TeX: 680 0
HStem: -10 54<174.612 271.67> -0 21<341 395> 452 20<74 142.5 339 391.5> 672 20G<234 315>
VStem: 53 112<52.4664 468.784> 319 109<3.25391 74 90.0449 469.318>
AnchorPoint: "below" 241 0 basechar 0
AnchorPoint: "above" 241 687 basechar 0
LayerCount: 2
Fore
SplineSet
131 554 m 0
 131 563 144 577 204 661 c 0
 224 689 225 692 243 692 c 2
 311 692 l 2
 319 692 330 690 330 680 c 0
 330 670 330 673 202 555 c 0
 188 542 183 542 171 542 c 2x3c
 154 542 l 2
 143 542 131 544 131 554 c 0
EndSplineSet
Refer: 124 117 S 1 0 0 1 -0 -0 3
AlternateSubs2: "Stilistic set 01 subtable" uacute.vn
AlternateSubs2: "Latin alternatives subtable" uacute.vn
Substitution2: "Latin Vietnamese substitutions subtable" uacute.vn
EndChar

StartChar: ucircumflex
Encoding: 251 251 258
Width: 483
Flags: HW
TeX: 680 0
HStem: -10 54<174.612 271.67> 0 21<341 395> 452 20<74 142.5 339 391.5> 624 66<216.017 265.013>
VStem: 53 112<52.4664 468.784> 319 109<3.25391 74 90.0449 469.318>
AnchorPoint: "below" 241 0 basechar 0
AnchorPoint: "above" 241 685 basechar 0
LayerCount: 2
Fore
SplineSet
92 553 m 0
 92 562 109 580 187 675 c 0
 199 689 205 690 217 690 c 2
 264 690 l 2
 286 690 283 689 350 607 c 0
 367 587 389 562 389 553 c 0
 389 542 378 542 367 542 c 2x3c
 353 542 l 2
 333 542 330 546 308 565 c 0
 286 585 263 603 241 624 c 1
 240 624 l 1
 224 609 216 603 160 553 c 0
 148 543 144 542 120 542 c 2
 117 542 l 2
 106 542 92 542 92 553 c 0
EndSplineSet
Refer: 124 117 S 1 0 0 1 0 0 3
EndChar

StartChar: udieresis
Encoding: 252 252 259
Width: 483
Flags: HW
TeX: 694 0
HStem: -10 54<174.612 271.67> -0 21<341 395> 452 20<74 142.5 339 391.5> 572 122<89.8514 206.715 274.641 390.856>
VStem: 53 112<52.4664 468.784> 87 122<574.702 690.99> 272 122<574.444 691.152> 319 109<3.25391 74 90.0449 469.318>
AnchorPoint: "below" 241 0 basechar 0
AnchorPoint: "above" 241 689 basechar 0
LayerCount: 2
Fore
SplineSet
87 615 m 2x34
 87 650 l 2
 87 684 100 694 131 694 c 0
 142 694 153 694 164 694 c 0
 185 694 210 693 210 653 c 0
 210 650 209 647 209 644 c 2
 209 613 l 2
 209 585 200 571 167 571 c 0
 163 571 158 572 154 572 c 2
 133 572 l 2
 112 572 87 572 87 615 c 2x34
272 613 m 0x32
 272 626 272 639 272 652 c 0
 272 686 286 694 315 694 c 2
 349 694 l 2
 371 694 394 692 394 650 c 2
 394 616 l 2
 394 583 383 571 352 571 c 0
 348 571 343 572 339 572 c 2
 317 572 l 2
 298 572 272 572 272 613 c 0x32
EndSplineSet
Refer: 124 117 S 1 0 0 1 0 -0 3
EndChar

StartChar: thorn
Encoding: 254 254 261
Width: 483
Flags: HW
TeX: 694 166
HStem: -167 21G<89.5 147.5> -10 65<193.602 290.167> 412 70<207.808 297.249> 674 20G<81.5 141.5>
VStem: 55 112<-163.879 36 70.7901 393.529 425 690.246> 339 112<112.041 358.635>
LayerCount: 2
Fore
SplineSet
55 -124 m 2
 55 650 l 2
 55 680 64 694 99 694 c 2
 121 694 l 2
 162 694 164 673 164 648 c 2
 164 425 l 1
 194 458 235 482 288 482 c 0
 353 482 451 444 451 236 c 0
 451 34 339 -10 264 -10 c 0
 206 -10 177 25 167 36 c 1
 167 -123 l 2
 167 -135 170 -167 125 -167 c 0
 116 -167 108 -167 99 -167 c 0
 80 -167 55 -165 55 -124 c 2
166 358 m 0
 166 355 167 353 167 350 c 2
 167 111 l 2
 167 76 206 55 235 55 c 0
 277 55 339 83 339 237 c 0
 339 365 296 412 245 412 c 0
 217 412 166 393 166 358 c 0
EndSplineSet
EndChar

StartChar: germandbls
Encoding: 223 223 262
Width: 468
Flags: HW
TeX: 694 0
HStem: -10 70<270.927 342.355> -0 21G<75.5 142.5> 639 65<173.984 291.069>
VStem: 55 109<3.04871 628.428> 217 84<299.86 422.747> 305 110<486.464 624.733> 350 86<64.5245 187.523>
LayerCount: 2
Fore
SplineSet
55 46 m 2
 55 565 l 2
 55 691 155 704 237 704 c 0
 334 704 415 677 415 568 c 0x7c
 415 465 375 427 310 424 c 1
 302 398 301 324 301 324 c 1
 301 291 327 305 364 285 c 0
 410 260 436 205 436 140 c 0
 436 10 365 -10 318 -10 c 0
 260 -10 218 31 218 51 c 1
 218 51 222 121 239 121 c 0
 254 121 263 60 314 60 c 0
 337 60 350 81 350 125 c 0xba
 350 223 298 174 251 229 c 0
 222 264 217 312 217 348 c 0
 217 423 239 477 301 486 c 1
 304 496 305 500 305 508 c 0
 305 517 304 530 303 562 c 1
 303 598 305 639 235 639 c 0
 167 639 164 607 164 562 c 2
 164 42 l 2
 164 26 163 0 122 -0 c 0x7c
 114 0 106 0 98 -0 c 0
 53 0 55 27 55 46 c 2
EndSplineSet
EndChar

StartChar: grave.uc
Encoding: 65542 -1 263
Width: 475
Flags: HW
TeX: 643 0
HStem: 625 30<54.6981 103.707>
VStem: 54 259
LayerCount: 2
Fore
SplineSet
54 644 m 0
 54 653 64 655 75 655 c 2
 178 655 l 2
 198 655 199 650 284 583 c 0
 310 562 313 559 313 553 c 0
 313 548 311 542 294 542 c 0
 281 542 268 542 255 542 c 0
 239 542 238 543 75 625 c 0
 60 632 54 636 54 644 c 0
EndSplineSet
EndChar

StartChar: acute.uc
Encoding: 65543 -1 264
Width: 475
Flags: HW
TeX: 643 0
HStem: 613 42<333.454 413.636>
VStem: 161 259
LayerCount: 2
Fore
SplineSet
161 553 m 0
 161 563 180 575 190 583 c 0
 281 655 274 655 299 655 c 2
 392 655 l 2
 404 655 420 656 420 644 c 0
 420 633 398 624 375 613 c 0
 233 542 238 542 216 542 c 0
 207 542 198 542 189 542 c 0
 171 542 161 544 161 553 c 0
EndSplineSet
EndChar

StartChar: tilde.uc
Encoding: 65544 -1 265
Width: 475
Flags: HW
TeX: 680 0
HStem: 513 65<266.439 324.238> 615 65<150.412 207.842>
VStem: 79 65<513.009 610.527> 331 64<580.335 679.906>
LayerCount: 2
Fore
SplineSet
79 535 m 0
 79 582 98 680 173 680 c 0
 245 680 254 578 299 578 c 0
 318 578 331 596 331 654 c 0
 331 668 330 681 355 681 c 0
 358 681 360 680 363 680 c 2
 366 680 l 2
 368 680 370 681 373 681 c 0
 394 681 395 670 395 658 c 0
 395 613 376 513 302 513 c 0
 229 513 220 615 175 615 c 0
 156 615 144 597 144 539 c 0
 144 525 145 513 121 513 c 0
 114 513 108 513 101 513 c 0
 79 513 79 525 79 535 c 0
EndSplineSet
EndChar

StartChar: hungarumlaut.uc
Encoding: 65545 -1 267
Width: 475
Flags: HW
TeX: 643 0
ItalicCorrection: 52
HStem: 542 113<175.897 196.975 255 263 295 343.86> 624 31<446.359 498.841>
LayerCount: 2
Fore
SplineSet
82 553 m 0
 82 563 85 563 190 645 c 0
 197 651 203 655 219 655 c 2x40
 322 655 l 2x80
 339 655 341 649 344 642 c 1
 361 655 364 655 378 655 c 2
 482 655 l 2
 491 655 500 652 500 644 c 0
 500 636 492 632 475 624 c 0x40
 312 542 317 542 295 542 c 2
 263 542 l 2
 255 542 240 543 240 553 c 0
 240 563 262 576 327 628 c 1
 154 541 160 542 138 542 c 2x80
 101 542 l 2x80
 94 542 82 543 82 553 c 0
EndSplineSet
EndChar

StartChar: ring.uc
Encoding: 65546 -1 268
Width: 657
Flags: HW
TeX: 680 0
HStem: 449 64<279.952 373.795> 616 65<281.194 375.221>
VStem: 222 53<518.537 610.094> 380 53<518.806 610.405>
LayerCount: 2
Fore
SplineSet
222 564 m 0
 222 657 280 681 328 681 c 0
 374 681 433 657 433 565 c 0
 433 472 375 449 327 449 c 0
 281 449 222 472 222 564 c 0
275 564 m 0
 275 523 291 513 328 513 c 0
 359 513 380 521 380 565 c 0
 380 593 375 616 328 616 c 0
 293 616 275 605 275 564 c 0
EndSplineSet
EndChar

StartChar: twelveudash
Encoding: 61700 61700 269
Width: 633
Flags: HW
TeX: 472 0
ItalicCorrection: 26
HStem: 260 64<2.56437 629.913>
LayerCount: 2
Fore
SplineSet
1 292 m 0
 1 301 4 324 42 324 c 2
 593 324 l 2
 628 324 632 299 632 291 c 0
 632 281 628 259 590 259 c 0
 585 259 580 260 576 260 c 2
 43 260 l 2
 6 260 1 279 1 292 c 0
EndSplineSet
EndChar

StartChar: threequartersemdash
Encoding: 63198 63198 270
Width: 712
Flags: HW
TeX: 472 0
ItalicCorrection: 26
HStem: 260 64<2.48438 709.359>
LayerCount: 2
Fore
SplineSet
1 292 m 0
 1 301 4 324 42 324 c 2
 670 324 l 2
 707 324 711 302 711 291 c 0
 711 278 704 260 669 260 c 2
 42 260 l 2
 7 260 1 279 1 292 c 0
EndSplineSet
EndChar

StartChar: arrowleft
Encoding: 8592 8592 271
Width: 950
Flags: HW
TeX: 411 -115
HStem: -18 21G<278.5 304.5> 229 70<214.468 891.913>
VStem: 258 71<-15.0485 85.3059 445.387 541.746>
LayerCount: 2
Fore
SplineSet
53 264 m 0
 53 292 84 296 110 310 c 0
 181 347 237 417 257 503 c 0
 260 517 265 545 295 545 c 0
 314 545 329 532 329 513 c 0
 329 483 302 380 214 299 c 1
 847 299 l 2
 854 299 860 299 866 298 c 0
 882 295 895 280 895 264 c 0
 895 244 879 231 863 229 c 1
 243 229 l 2
 233 229 224 229 214 228 c 1
 304 150 329 37 329 15 c 0
 329 -5 314 -18 295 -18 c 0
 262 -18 260 13 258 23 c 0
 237 116 173 192 85 229 c 0
 75 233 53 241 53 264 c 0
EndSplineSet
EndChar

StartChar: arrowright
Encoding: 8594 8594 272
Width: 950
Flags: HW
TeX: 411 -115
HStem: -18 21G<644.5 668> 229 70<55.9635 733.531>
VStem: 618 72<-14.8862 84.813 441.757 541.375>
LayerCount: 2
Fore
SplineSet
53 264 m 0
 53 284 70 296 85 298 c 0
 91 299 98 299 104 299 c 2
 668 299 l 2
 680 299 692 298 704 298 c 0
 714 298 724 298 734 299 c 1
 643 377 618 490 618 512 c 0
 618 532 633 545 652 545 c 0
 684 545 688 514 690 504 c 0
 727 340 869 297 879 291 c 0
 893 282 895 269 895 264 c 0
 895 236 867 233 838 217 c 0
 767 180 710 110 690 24 c 0
 687 10 683 -18 653 -18 c 0
 636 -18 618 -6 618 15 c 0
 618 45 646 148 734 229 c 1
 100 229 l 2
 93 229 87 229 81 230 c 0
 65 233 53 248 53 264 c 0
EndSplineSet
EndChar

StartChar: uni0361.alt
Encoding: 61701 61701 273
Width: 219
Flags: HW
TeX: 694 0
ItalicCorrection: 293
HStem: 596 74<168.75 389.167>
LayerCount: 2
Fore
SplineSet
54 576 m 0
 54 613 97 670 283 670 c 2
 287 670 l 2
 461 670 506 613 506 576 c 0
 506 562 496 560 483 560 c 2
 417 560 l 1
 376 561 425 596 283 596 c 2
 276 596 l 2
 138 596 180 560 145 560 c 2
 76 560 l 2
 64 560 54 561 54 576 c 0
EndSplineSet
EndChar

StartChar: uni0361
Encoding: 865 865 274
Width: 0
Flags: HW
TeX: 916 0
ItalicCorrection: 319
HStem: 607 74<-73.4606 132.112>
VStem: -230 112<502 567.859> 157 128<506.328 583.215>
AnchorPoint: "affricate-above" 28 487 mark 0
LayerCount: 2
Fore
SplineSet
-230 520 m 0
 -230 541 -220 575 -200 602 c 0
 -151 666 -57 681 29 681 c 0
 150 681 205 649 234 624 c 0
 266 596 285 551 285 520 c 0
 285 505 278 502 261 502 c 2
 196 502 l 2
 160 502 185 526 157 563 c 0
 129 600 78 607 25 607 c 0
 -47 607 -109 586 -118 521 c 0
 -120 508 -122 502 -140 502 c 2
 -208 502 l 2
 -220 502 -230 503 -230 520 c 0
EndSplineSet
EndChar

StartChar: uni2040.alt
Encoding: 61702 61702 275
Width: 431
Flags: HW
TeX: 694 0
ItalicCorrection: 293
HStem: 596 74<163.794 266.214>
VStem: 52 326<563 625.404>
LayerCount: 2
Fore
SplineSet
52 577 m 0
 52 606 76 638 115 654 c 0
 153 669 197 670 218 670 c 0
 362 670 378 598 378 577 c 0
 378 563 371 560 355 560 c 2
 289 560 l 1
 251 561 285 596 216 596 c 0
 157 596 169 572 155 563 c 0
 149 560 140 560 131 560 c 2
 74 560 l 2
 60 560 52 563 52 577 c 0
EndSplineSet
EndChar

StartChar: uni2040
Encoding: 8256 8256 276
Width: 431
Flags: HW
TeX: 694 0
ItalicCorrection: 319
HStem: 607 74<141.943 287.925>
VStem: -1 113<502.029 577.404> 320 112<502.046 576.067>
LayerCount: 2
Fore
SplineSet
-1 521 m 0
 -1 559 19 681 216 681 c 0
 405 681 432 569 432 521 c 0
 432 506 426 502 408 502 c 2
 344 502 l 2
 322 502 322 509 320 526 c 0
 314 581 275 607 216 607 c 0
 175 607 120 595 112 527 c 0
 110 512 110 502 89 502 c 2
 21 502 l 2
 9 502 -1 503 -1 521 c 0
EndSplineSet
EndChar

StartChar: uni2422
Encoding: 9250 9250 277
Width: 483
Flags: HW
TeX: 694 0
HStem: -10 65<193.644 297.911> -0 21G<76.5 132.5> 417 65<204.535 302.537> 674 20G<90 130.5>
VStem: 56 109<73.5098 397.963 428 431 523.133 551.984 643 691.218> 340 112<106.56 373.288>
DStem2: 45 532 56 431 0.731641 0.68169<-122.911 -60.8026 163.465 312.515>
LayerCount: 2
Fore
SplineSet
-39 439 m 0
 -39 462 -4 483 45 532 c 0
 57 544 56 549 56 560 c 2
 56 652 l 2
 56 693 80 694 100 694 c 2
 123 694 l 2
 138 694 165 693 165 652 c 2
 165 643 l 1
 260 731 264 738 281 738 c 0
 301 738 324 712 324 695 c 0
 324 680 311 669 305 663 c 0
 193 559 180 545 165 533 c 1
 165 428 l 1
 194 459 230 482 283 482 c 0
 351 482 452 443 452 235 c 0
 452 34 339 -10 264 -10 c 0xbc
 206 -10 178 25 168 36 c 1
 166 1 141 0 124 -0 c 2x7c
 98 -0 l 2x7c
 55 0 56 29 56 45 c 2
 56 431 l 1
 22 400 18 395 4 395 c 0
 -18 395 -39 421 -39 439 c 0
167 111 m 0
 167 78 204 55 237 55 c 0
 338 55 340 169 340 231 c 2
 340 239 l 2
 340 297 338 351 312 385 c 0
 296 406 272 417 246 417 c 0xbc
 216 417 167 399 167 363 c 0
 167 360 168 357 168 354 c 2
 168 120 l 2
 168 117 167 114 167 111 c 0
EndSplineSet
EndChar

StartChar: quotesingle
Encoding: 39 39 278
Width: 264
Flags: HW
TeX: 694 0
HStem: 389 305<98.658 164.396>
VStem: 77 110<588.136 694>
LayerCount: 2
Fore
SplineSet
77 677 m 0
 77 687 80 694 96 694 c 2
 165 694 l 2
 178 694 187 692 187 677 c 0
 187 674 186 671 186 668 c 2
 165 417 l 2
 163 391 162 389 128 389 c 0
 100 389 100 393 98 418 c 0
 80 629 77 664 77 677 c 0
EndSplineSet
EndChar

StartChar: fraction
Encoding: 8260 8260 281
Width: 475
Flags: HW
TeX: 750 222
DStem2: 60 -156 414 689 0.314906 0.949123<-31.1369 939.651>
LayerCount: 2
Fore
SplineSet
53 -187 m 0
 53 -176 57 -165 60 -156 c 2
 346 704 l 2
 353 724 359 750 386 750 c 0
 404 750 420 735 420 715 c 0
 420 706 417 697 414 689 c 2
 128 -173 l 2
 122 -190 116 -222 87 -222 c 0
 69 -222 53 -208 53 -187 c 0
EndSplineSet
EndChar

StartChar: zerooldstyle
Encoding: 63280 63280 282
Width: 475
Flags: HW
TeX: 472 0
HStem: -19 64<183.051 291.438> 427 65<181.07 294.06>
VStem: 36 112<85.6651 385.716> 325 112<82.6786 385.236>
LayerCount: 2
Fore
SplineSet
36 232 m 0
 36 360 58 492 236 492 c 0
 429 492 437 336 437 227 c 0
 437 109 416 -19 236 -19 c 0
 67 -19 36 91 36 232 c 0
148 221 m 1
 149 133 157 95 173 75 c 0
 188 56 213 45 237 45 c 0
 262 45 286 55 301 76 c 0
 317 97 325 139 325 224 c 2
 325 261 l 2
 325 358 318 427 237 427 c 0
 148 427 149 343 148 258 c 1
 148 221 l 1
EndSplineSet
EndChar

StartChar: oneoldstyle
Encoding: 63281 63281 283
Width: 475
Flags: HW
TeX: 472 0
HStem: -0 64<80.5721 190 303 405.406> 361 63<68.6562 187.817> 453 20G<256 275>
VStem: 190 113<64 370>
LayerCount: 2
Fore
SplineSet
67 393 m 0
 67 412 83 422 94 424 c 0
 107 426 175 422 225 455 c 0
 241 465 246 473 266 473 c 0
 284 473 303 464 303 432 c 2
 303 64 l 1
 358 64 l 2
 361 64 363 65 366 65 c 0
 403 65 407 41 407 32 c 0
 407 23 403 0 366 -0 c 2
 119 -0 l 2
 83 0 79 23 79 32 c 0
 79 42 84 65 120 65 c 0
 124 65 127 64 130 64 c 2
 190 64 l 1
 190 370 l 1
 174 367 136 361 110 361 c 0
 74 361 67 380 67 393 c 0
EndSplineSet
EndChar

StartChar: twooldstyle
Encoding: 63282 63282 284
Width: 475
Flags: HW
TeX: 472 0
HStem: -0 93<170 420.456> 405 87<141.68 279.36>
VStem: 310 116<262.725 374.247>
LayerCount: 2
Fore
SplineSet
41 388 m 0
 41 396 88 492 223 492 c 0
 338 492 426 425 426 324 c 0
 426 237 334 199 271 160 c 0
 250 147 261 153 170 92 c 1
 369 93 l 1
 386 93 l 2
 426 93 427 66 427 50 c 1
 427 50 428 0 385 -0 c 2
 81 -0 l 2
 39 0 42 31 42 47 c 0
 42 72 41 66 199 184 c 0
 249 221 310 261 310 322 c 0
 310 377 261 405 210 405 c 0
 120 405 115 333 96 333 c 0
 86 333 41 375 41 388 c 0
EndSplineSet
EndChar

StartChar: threeoldstyle
Encoding: 63283 63283 285
Width: 475
Flags: HW
TeX: 472 166
HStem: -186 81<135.265 281.88> 146 75<159.795 261.797> 416 76<152.293 277.983>
VStem: 293 115<253.984 401.921> 312 122<-75.7479 105.758>
LayerCount: 2
Fore
SplineSet
40 -91 m 1
 40 -91 43 -29 59 -29 c 0
 77 -29 119 -105 223 -105 c 0
 306 -105 312 -34 312 22 c 0
 312 102 292 146 213 146 c 2
 181 146 l 2
 166 146 158 147 158 171 c 2xe8
 158 188 l 2
 158 228 198 201 237 221 c 0
 273 239 293 286 293 337 c 0
 293 381 280 416 226 416 c 0
 184 416 145 397 120 366 c 0
 108 351 104 335 93 335 c 0
 79 335 54 380 54 388 c 0
 54 402 113 492 229 492 c 0
 370 492 408 404 408 336 c 0xf0
 408 297 395 230 311 179 c 1
 404 153 434 85 434 19 c 0
 434 -108 358 -186 228 -186 c 0
 124 -186 40 -117 40 -91 c 1
EndSplineSet
EndChar

StartChar: fouroldstyle
Encoding: 63284 63284 286
Width: 475
Flags: HW
TeX: 472 166
HStem: 0 81<117 263 369 444.985> 452 20G<258 348.5>
VStem: 269 100<-183.375 0 81 389>
LayerCount: 2
Fore
SplineSet
26 47 m 2
 26 64 l 2
 26 80 27 81 38 102 c 2
 224 444 l 2
 238 469 247 472 269 472 c 2
 327 472 l 2
 370 472 369 445 369 426 c 2
 369 81 l 1
 406 81 l 2
 421 81 448 80 448 41 c 0
 448 0 420 0 404 0 c 2
 369 0 l 1
 369 -143 l 2
 369 -178 354 -186 327 -186 c 2
 306 -186 l 2
 272 -186 263 -172 263 -144 c 2
 263 0 l 1
 66 0 l 2
 24 0 26 31 26 47 c 2
117 81 m 1
 269 81 l 1
 269 389 l 1
 254 324 149 144 117 81 c 1
EndSplineSet
EndChar

StartChar: fiveoldstyle
Encoding: 63285 63285 287
Width: 475
Flags: HW
TeX: 472 166
HStem: -186 81<143.822 271.343> -37 20G<82.5 98> 183 65<181.598 279.967> 386 86<177 392.323>
VStem: 71 106<234 386> 304 123<-68.2324 149.855>
LayerCount: 2
Fore
SplineSet
49 -80 m 0
 49 -72 76 -17 89 -17 c 0
 107 -17 118 -105 209 -105 c 0
 297 -105 304 -30 304 29 c 2
 304 54 l 1
 303 106 300 183 241 183 c 0
 225 183 187 179 159 136 c 0
 143 112 138 108 112 108 c 0
 79 108 71 124 71 151 c 2
 71 417 l 2
 71 421 70 426 70 430 c 0
 70 472 98 472 114 472 c 2
 352 472 l 2
 391 472 395 453 395 427 c 0
 395 410 393 386 353 386 c 2
 177 386 l 1
 177 234 l 1
 202 244 219 248 244 248 c 2
 245 248 l 2
 314 248 427 215 427 36 c 0
 427 -142 304 -186 212 -186 c 0
 100 -186 49 -96 49 -80 c 0
EndSplineSet
EndChar

StartChar: sevenoldstyle
Encoding: 63287 63287 289
Width: 475
Flags: HW
TeX: 472 166
HStem: -177 21G<199 206.5> 378 95<41.8397 321>
LayerCount: 2
Fore
SplineSet
39 422 m 2
 39 428 l 2
 39 456 43 473 84 473 c 2
 140 473 l 2
 161 473 306 472 347 472 c 2
 382 472 l 2
 385 472 389 473 392 473 c 0
 413 473 435 468 435 431 c 0
 435 413 435 407 418 385 c 0
 227 127 248 -119 241 -150 c 0
 235 -176 211 -177 202 -177 c 2
 201 -177 l 2
 197 -177 193 -176 189 -176 c 2
 169 -176 l 2
 153 -176 125 -176 125 -135 c 0
 125 -26 152 182 321 380 c 1
 321 380 119 378 96 378 c 0
 59 378 39 379 39 422 c 2
EndSplineSet
EndChar

StartChar: nineoldstyle
Encoding: 63289 63289 291
Width: 475
Flags: HW
TeX: 472 166
HStem: -186 81<130.773 258.742> 32 65<179.592 273.419> 416 76<182.169 284.101>
VStem: 39 115<129.392 383.658> 318 117<-8.8641 348.407>
LayerCount: 2
Fore
SplineSet
39 263 m 0
 39 324 46 374 86 424 c 0
 124 471 170 492 238 492 c 0
 323 492 366 440 380 420 c 0
 427 353 435 255 435 157 c 0
 435 -134 291 -186 196 -186 c 0
 126 -186 70 -146 70 -130 c 0
 70 -121 95 -70 108 -70 c 0
 123 -70 141 -105 195 -105 c 0
 294 -105 319 1 319 116 c 1
 301 72 268 32 205 32 c 0
 148 32 113 54 87 86 c 0
 45 138 39 192 39 263 c 0
154 252 m 1
 155 180 155 97 230 97 c 0
 300 97 318 182 318 244 c 0
 318 341 301 416 235 416 c 0
 160 416 155 337 154 280 c 1
 154 252 l 1
EndSplineSet
EndChar

StartChar: angleleft
Encoding: 9001 9001 292
Width: 369
Flags: HW
TeX: 750 222
VStem: 105 72<193 301.789> 240 74<-216.513 -155.515 682.621 744.394>
DStem2: 306 -153 108 246 0.297249 -0.9548<-437.272 35.3446>
LayerCount: 2
Fore
SplineSet
105 264 m 0
 105 270 106 277 108 283 c 2
 240 705 l 2
 246 723 253 750 280 750 c 0
 298 750 314 734 314 715 c 0
 314 707 312 699 310 694 c 2
 181 280 l 2
 179 274 177 270 177 265 c 0
 177 261 178 256 180 249 c 2
 306 -153 l 2
 309 -164 314 -178 314 -188 c 0
 314 -208 297 -222 280 -222 c 0
 249 -222 242 -183 240 -178 c 2
 108 246 l 2
 106 252 105 258 105 264 c 0
EndSplineSet
EndChar

StartChar: minus
Encoding: 8722 8722 293
Width: 739
Flags: HW
TeX: 580 52
HStem: 232 64<54.6166 681.681>
LayerCount: 2
Fore
SplineSet
53 264 m 0
 53 274 57 296 95 296 c 2
 644 296 l 2
 679 296 684 271 684 263 c 0
 684 253 679 231 641 231 c 0
 637 231 632 232 628 232 c 2
 95 232 l 2
 59 232 53 251 53 264 c 0
EndSplineSet
EndChar

StartChar: angleright
Encoding: 9002 9002 294
Width: 369
Flags: HW
TeX: 750 222
VStem: 190 72<191.875 300.808>
DStem2: 58 -164 126 -180 0.298659 0.95436<-24.0387 446.711> 127 705 60 684 0.297889 -0.9546<-31.1841 440.521>
LayerCount: 2
Fore
SplineSet
53 -188 m 0
 53 -180 56 -171 58 -164 c 2
 187 248 l 2
 189 254 190 258 190 263 c 0
 190 267 189 272 187 279 c 2
 60 684 l 2
 57 694 53 706 53 715 c 0
 53 736 71 750 87 750 c 0
 118 750 125 711 127 705 c 2
 259 282 l 2
 261 276 262 270 262 264 c 0
 262 258 261 251 259 245 c 2
 126 -180 l 2
 120 -199 113 -222 87 -222 c 0
 69 -222 53 -208 53 -188 c 0
EndSplineSet
EndChar

StartChar: uni2127
Encoding: 8487 8487 295
Width: 686
Flags: HW
TeX: 694 0
HStem: -20 65<250.84 434.221> 600 94<44.8419 219 466 640.219>
VStem: 42 251<606.682 690.827> 53 122<124.484 334.664> 392 251<607.137 690.745> 510 123<125.643 334.031>
LayerCount: 2
Fore
SplineSet
42 643 m 2
 42 648 l 2
 42 670 43 694 85 694 c 2
 250 694 l 2
 274 694 293 686 293 655 c 0xe0
 293 506 175 374 175 230 c 0
 175 82 260 45 343 45 c 0
 424 45 510 82 510 229 c 0xd4
 510 372 392 508 392 655 c 0
 392 679 402 694 436 694 c 2
 600 694 l 2xc8
 628 694 643 686 643 651 c 2
 643 643 l 2xc8
 643 625 641 600 603 600 c 0
 593 600 485 602 466 602 c 1
 510 473 633 379 633 230 c 0
 633 138 588 -20 341 -20 c 0
 104 -20 53 132 53 230 c 0xd4
 53 379 176 475 219 602 c 1
 192 602 96 600 82 600 c 0
 44 600 42 626 42 643 c 2
EndSplineSet
EndChar

StartChar: circle
Encoding: 9675 9675 296
Width: 1056
Flags: HW
TeX: 750 222
HStem: -242 70<376.85 679.029> 700 70<375.75 674.031>
VStem: 52 70<99.1786 434.638> 931 70<95.1061 432.05>
LayerCount: 2
Fore
SplineSet
52 263 m 0
 52 668 316 770 526 770 c 0
 825 770 1001 586 1001 265 c 0
 1001 -140 737 -242 527 -242 c 0
 228 -242 52 -58 52 263 c 0
122 264 m 0
 122 16 236 -172 527 -172 c 0
 716 -172 931 -85 931 263 c 0
 931 613 718 700 526 700 c 0
 197 700 122 470 122 264 c 0
EndSplineSet
EndChar

StartChar: uni301A
Encoding: 12314 12314 298
Width: 383
Flags: HW
TeX: 750 222
HStem: -222 70<166 215 284 358.996> 680 70<166 215 284 358.942>
VStem: 96 70<-152 680> 215 69<-152 680>
LayerCount: 2
Fore
SplineSet
96 -178 m 2
 96 705 l 2
 96 732 100 750 140 750 c 2
 318 750 l 2
 336 750 361 747 361 715 c 0
 361 684 336 680 317 680 c 2
 284 680 l 1
 284 -152 l 1
 317 -152 l 2
 341 -152 361 -159 361 -187 c 0
 361 -215 341 -222 318 -222 c 2
 140 -222 l 2
 94 -222 96 -195 96 -178 c 2
166 -152 m 1
 215 -152 l 1
 215 680 l 1
 166 680 l 1
 166 -152 l 1
EndSplineSet
EndChar

StartChar: uni301B
Encoding: 12315 12315 299
Width: 383
Flags: HW
TeX: 750 222
HStem: -222 70<23.0039 97 167 216> 680 70<23.0896 97 167 216>
VStem: 97 70<-152 680> 216 69<-152 680>
LayerCount: 2
Fore
SplineSet
21 -187 m 0
 21 -159 41 -152 65 -152 c 2
 97 -152 l 1
 97 680 l 1
 65 680 l 2
 42 680 21 687 21 715 c 0
 21 743 41 750 64 750 c 2
 242 750 l 2
 283 750 285 728 285 705 c 2
 285 -178 l 2
 285 -194 287 -222 241 -222 c 2
 64 -222 l 2
 41 -222 21 -215 21 -187 c 0
167 -152 m 1
 216 -152 l 1
 216 680 l 1
 167 680 l 1
 167 -152 l 1
EndSplineSet
EndChar

StartChar: arrowup
Encoding: 8593 8593 300
Width: 475
Flags: HW
TeX: 694 166
HStem: -166 21G<229.5 246.5> 378 83<8.00292 95.014> 378 73<392.338 477.547> 673 20G<221.5 254>
VStem: 203 70<-163.138 483 576.446 689.93>
LayerCount: 2
Fore
SplineSet
-5 412 m 0
 -5 447 27 445 63 461 c 0xd8
 134 493 189 560 203 641 c 0
 206 657 205 693 238 693 c 0
 270 693 271 654 271 652 c 0
 285 546 360 476 440 451 c 0
 461 445 481 440 481 413 c 0
 481 396 469 378 448 378 c 0xb8
 433 378 349 397 273 483 c 1
 273 -118 l 2
 273 -124 273 -131 272 -137 c 0
 269 -153 255 -166 238 -166 c 0
 221 -166 207 -153 204 -137 c 0
 203 -131 203 -125 203 -119 c 2
 203 483 l 1
 119 389 33 378 27 378 c 0xd8
 8 378 -5 393 -5 412 c 0
EndSplineSet
EndChar

StartChar: arrowdown
Encoding: 8595 8595 301
Width: 475
Flags: HW
TeX: 694 166
HStem: -166 21G<218.5 256.5> 63 86<379.945 461.266> 77 72<-1.2272 83.565> 674 20G<229.5 257.5>
VStem: 192 84<-153.292 -42.077> 203 70<45 690.851>
LayerCount: 2
Fore
SplineSet
-5 115 m 0
 -5 132 7 149 27 149 c 0xb8
 43 149 127 131 203 45 c 1
 203 646 l 2
 203 652 203 658 204 664 c 0
 207 680 221 694 238 694 c 0
 277 694 273 646 273 646 c 1
 273 45 l 1
 338 118 419 149 448 149 c 0xd4
 468 149 481 132 481 115 c 0
 481 79 447 84 405 63 c 0xd4
 343 32 293 -27 276 -100 c 0
 271 -121 275 -166 238 -166 c 0
 199 -166 208 -117 192 -73 c 0
 167 -5 110 54 34 77 c 0
 25 80 -5 84 -5 115 c 0
EndSplineSet
EndChar

StartChar: grave.ts1
Encoding: 61703 61703 302
Width: 475
Flags: HW
TeX: 694 0
HStem: 546 148
VStem: 81 199
LayerCount: 2
Fore
SplineSet
81 683 m 0
 81 692 91 694 99 694 c 2
 167 694 l 2
 184 694 189 689 196 680 c 0
 266 584 280 568 280 558 c 0
 280 551 276 546 261 546 c 2
 242 546 l 2
 228 546 224 548 207 563 c 0
 87 671 81 672 81 683 c 0
EndSplineSet
EndChar

StartChar: uni22C6
Encoding: 8902 8902 303
Width: 475
Flags: HW
TeX: 500 -27
HStem: -6 21G<73.5 92 383 401.5> 287 65<-42.4946 29.6465 445.354 517.49>
LayerCount: 2
Fore
SplineSet
-45 321 m 0
 -45 338 -31 352 -13 352 c 0
 4 352 114 323 188 308 c 1
 207 523 203 511 214 523 c 0
 219 529 227 534 238 534 c 0
 275 533 269 507 287 308 c 1
 355 322 474 352 488 352 c 0
 511 352 520 332 520 321 c 0
 520 301 503 292 492 287 c 0
 353 228 336 220 318 213 c 1
 423 38 424 39 424 25 c 0
 424 10 411 -6 392 -6 c 0
 374 -6 377 -5 238 154 c 1
 237 154 l 1
 100 -3 101 -6 83 -6 c 0
 64 -6 51 10 51 25 c 0
 51 39 52 38 157 213 c 1
 139 220 122 228 -17 287 c 0
 -28 292 -45 301 -45 321 c 0
EndSplineSet
EndChar

StartChar: uni26AE
Encoding: 9902 9902 304
Width: 475
Flags: HW
TeX: 500 -27
HStem: 28 88<-77.6716 37.4819 438.418 552.702> 412 88<-76.7829 37.6812 437.518 552.672>
VStem: -202 88<156.378 371.87> 70 105<151.092 375.365> 182 112<-119.715 646.762> 300 105<151.352 376.085> 589 88<157.207 371.622>
LayerCount: 2
Fore
SplineSet
-202 264 m 0
 -202 459 -91 500 -17 500 c 0
 60 500 175 459 175 261 c 0
 175 72 60 28 -17 28 c 0
 -91 28 -202 69 -202 264 c 0
-114 265 m 0
 -114 193 -99 116 -18 116 c 0
 53 116 70 181 70 262 c 0
 70 336 58 412 -18 412 c 0
 -95 412 -114 343 -114 265 c 0
182 -77 m 2
 182 604 l 2
 182 627 183 650 225 650 c 0
 234 650 243 650 252 650 c 0
 294 650 294 621 294 605 c 2
 294 -77 l 2
 294 -98 293 -123 250 -123 c 0
 241 -123 232 -123 223 -123 c 0
 181 -123 182 -95 182 -77 c 2
300 265 m 0
 300 455 415 500 492 500 c 0
 566 500 677 459 677 264 c 0
 677 70 567 28 494 28 c 0
 417 28 300 67 300 265 c 0
405 266 m 0
 405 197 413 116 494 116 c 0
 580 116 589 205 589 263 c 0
 589 335 574 412 493 412 c 0
 422 412 405 346 405 266 c 0
EndSplineSet
EndChar

StartChar: uni271D
Encoding: 10013 10013 305
Width: 475
Flags: HW
TeX: 611 22
HStem: 330 87<22.6104 180 292 450.26>
VStem: 180 112<-18.6235 334 412 613.304>
LayerCount: 2
Fore
SplineSet
20 373 m 0
 20 384 19 402 37 412 c 0
 43 415 45 417 53 417 c 0
 66 417 94 414 180 412 c 1
 180 572 l 2
 180 611 198 616 225 616 c 2
 251 616 l 2
 293 616 292 588 292 571 c 2
 292 412 l 1
 365 414 398 417 415 417 c 0
 455 417 453 385 453 373 c 0
 453 347 445 329 416 329 c 0
 400 329 368 332 292 334 c 1
 292 22 l 2
 292 4 292 -22 248 -22 c 2
 223 -22 l 2
 181 -22 180 3 180 25 c 2
 180 334 l 1
 112 333 78 330 59 330 c 0
 25 330 20 349 20 373 c 0
EndSplineSet
EndChar

StartChar: leaf
Encoding: 61704 61704 306
Width: 950
Flags: HW
TeX: 694 0
HStem: -53 42<50.0306 385.665> 152 42<302 670> 361 42<587 842> 705 42<565.731 901.671>
VStem: 217 42<215 482> 502 42<423 666>
DStem2: 24 43 48 8 0.806988 0.590568<0 239.019 313.518 595.762 666.939 1089.08>
LayerCount: 2
Fore
SplineSet
-20 8 m 0
 -20 25 -16 66 -13 91 c 0
 38 470 360 747 739 747 c 0
 809 747 884 735 944 718 c 0
 961 713 971 708 971 686 c 0
 971 669 969 634 964 600 c 0
 910 222 588 -53 215 -53 c 0
 132 -53 57 -39 7 -24 c 0
 -10 -19 -20 -14 -20 8 c 0
24 43 m 1
 217 184 l 1
 217 482 l 1
 123 387 39 232 24 43 c 1
48 8 m 1
 115 -6 157 -11 215 -11 c 0
 360 -11 531 35 670 152 c 1
 264 152 l 2
 238 152 239 148 220 135 c 2
 48 8 l 1
259 215 m 1
 271 223 480 376 491 385 c 0
 496 389 502 394 502 407 c 2
 502 666 l 1
 397 631 316 572 259 523 c 1
 259 215 l 1
302 194 m 1
 699 194 l 2
 714 194 718 196 733 212 c 0
 769 250 813 305 842 361 c 1
 546 361 l 1
 531 359 l 1
 517 351 l 1
 302 194 l 1
544 423 m 1
 903 686 l 1
 853 696 810 705 735 705 c 0
 658 705 600 694 544 679 c 1
 544 423 l 1
587 403 m 1
 863 403 l 1
 915 518 924 601 928 652 c 1
 587 403 l 1
EndSplineSet
EndChar

StartChar: uni26AD
Encoding: 9901 9901 307
Width: 475
Flags: HW
TeX: 500 -27
HStem: 28 88<39.634 167.115 309.032 437.141> 412 88<41.2582 167.336 309.164 435.456>
VStem: -96 88<166.938 361.718> 135 206<148.488 379.415> 484 88<166.033 360.731>
CounterMasks: 1 38
LayerCount: 2
Fore
SplineSet
-96 263 m 0
 -96 452 26 500 119 500 c 0
 167 500 207 489 238 472 c 1
 239 472 l 1
 270 489 310 500 358 500 c 0
 458 500 572 445 572 263 c 0
 572 80 456 28 357 28 c 0
 310 28 270 39 239 56 c 1
 238 56 l 1
 207 39 166 28 119 28 c 0
 -12 28 -96 112 -96 263 c 0
-8 265 m 0
 -8 192 12 116 118 116 c 0
 137 116 148 118 168 124 c 1
 162 137 135 180 135 264 c 0
 135 330 149 367 168 404 c 1
 148 410 136 412 118 412 c 0
 22 412 -8 348 -8 265 c 0
308 124 m 1
 328 118 339 116 358 116 c 0
 459 116 484 184 484 263 c 0
 484 344 459 412 358 412 c 0
 340 412 328 410 308 404 c 1
 327 368 341 330 341 264 c 0
 341 198 327 160 308 124 c 1
EndSplineSet
EndChar

StartChar: musicalnote
Encoding: 9834 9834 308
Width: 581
Flags: HW
TeX: 694 0
HStem: -44 333<137.964 297.158> 674 20G<340.5 354>
VStem: 52 330<45.3733 209.741> 312 70<260 411 543.988 690.911>
LayerCount: 2
Fore
SplineSet
52 131 m 0xe0
 52 226 132 289 218 289 c 0
 256 289 283 277 312 260 c 1
 312 638 l 2
 312 648 311 659 314 668 c 0
 318 684 334 694 347 694 c 0
 361 694 375 684 380 671 c 0
 385 658 379 625 400 555 c 0
 436 438 527 306 527 174 c 0
 527 140 504 133 492 133 c 0
 481 133 472 138 465 146 c 0
 441 176 491 177 382 411 c 1xd0
 382 192 l 2
 382 158 381 161 381 155 c 0xe0
 381 148 382 141 382 132 c 0
 382 37 312 -44 217 -44 c 0
 125 -44 52 35 52 131 c 0xe0
EndSplineSet
EndChar

StartChar: tildelow
Encoding: 61705 61705 309
Width: 581
Flags: HW
TeX: 134 0
HStem: 0 65<324.055 421.044> 70 65<157.297 255.945>
VStem: 79 65<0.135132 57.375> 435 65<78.8872 134.815>
LayerCount: 2
Fore
SplineSet
79 19 m 0
 79 67 124 135 201 135 c 0
 283 135 328 65 379 65 c 0
 396 65 427 76 435 116 c 0
 438 130 440 135 463 135 c 2
 471 135 l 2
 490 135 500 134 500 117 c 0
 500 64 452 0 379 0 c 0
 297 0 252 70 201 70 c 0
 178 70 149 54 144 19 c 0
 141 5 141 0 116 -0 c 0
 111 0 106 0 101 -0 c 0
 88 0 79 3 79 19 c 0
EndSplineSet
EndChar

StartChar: breve.ts1
Encoding: 61707 61707 311
Width: 581
Flags: HW
TeX: 694 0
HStem: 556 80<141.277 437.56> 674 20G<100 119 468 479.5>
VStem: 73 68<648.142 690.638> 446 60<647.804 692.228>
LayerCount: 2
Fore
SplineSet
73 659 m 0
 73 687 95 694 105 694 c 0
 133 694 136 664 141 657 c 0
 153 642 201 636 273 636 c 2
 302 636 l 2
 450 636 436 656 446 676 c 0
 452 687 462 694 474 694 c 0
 485 694 506 687 506 658 c 0
 506 622 481 582 425 567 c 0
 386 556 340 556 293 556 c 2
 274 556 l 2
 204 556 86 557 74 648 c 0
 74 651 73 656 73 659 c 0
EndSplineSet
EndChar

StartChar: caron.ts1
Encoding: 61708 61708 312
Width: 581
Flags: HW
TeX: 694 0
HStem: 511 203
VStem: 144 292
LayerCount: 2
Fore
SplineSet
144 701 m 0
 144 711 153 714 164 714 c 2
 184 714 l 2
 206 714 201 714 290 598 c 1
 379 713 372 714 398 714 c 2
 410 714 l 2
 422 714 436 713 436 701 c 0
 436 693 437 700 341 527 c 0
 332 512 327 511 313 511 c 2
 265 511 l 2
 247 511 245 515 237 529 c 0
 144 696 144 693 144 701 c 0
EndSplineSet
EndChar

StartChar: hungarumlaut.ts1
Encoding: 61709 61709 313
Width: 475
Flags: HW
TeX: 694 0
HStem: 546 148<124.143 171.27 281.495 329.27>
VStem: 124 111<640.075 694>
LayerCount: 2
Fore
SplineSet
100 561 m 0
 100 566 124 676 124 677 c 0
 127 690 133 694 146 694 c 2
 214 694 l 2
 224 694 235 693 235 682 c 0
 235 675 236 678 177 577 c 0
 160 549 158 546 141 546 c 2
 122 546 l 2
 110 546 100 547 100 561 c 0
259 560 m 0
 259 565 260 571 261 577 c 0
 285 691 281 694 304 694 c 2
 373 694 l 2
 383 694 393 693 393 682 c 0
 393 675 394 678 335 577 c 0
 318 549 316 546 299 546 c 0
 293 546 287 546 281 546 c 0
 263 546 259 552 259 560 c 0
EndSplineSet
EndChar

